<svg width="100" height="100" viewBox="0 0 100 100" fill="none" xmlns="http://www.w3.org/2000/svg">
<g id="toys_FILL0_wght400_GRAD0_opsz48 1">
<path id="Vector" d="M28.7498 83.3333C25.6248 83.3333 22.8644 82.1701 20.4686 79.8437C18.0728 77.5173 16.7707 74.6875 16.5623 71.3542C13.9929 69.7569 11.9964 67.728 10.5728 65.2675C9.14914 62.8069 8.43734 60.1136 8.43734 57.1875C8.43734 53.5764 9.49636 50.3299 11.6144 47.4479C13.7325 44.566 16.5276 42.743 19.9998 41.9792L11.5623 33.125L9.58317 35.2083C8.95817 35.9028 8.21164 36.25 7.34359 36.25C6.47553 36.25 5.729 35.9201 5.104 35.2604C4.479 34.6007 4.1665 33.8542 4.1665 33.0208C4.1665 32.1875 4.479 31.4236 5.104 30.7292L13.5415 21.9792C14.1665 21.3542 14.913 21.0417 15.7811 21.0417C16.6491 21.0417 17.3957 21.3715 18.0207 22.0312C18.6457 22.691 18.9582 23.4375 18.9582 24.2708C18.9582 25.1042 18.6457 25.8333 18.0207 26.4583L16.0415 28.6458L23.5415 36.6667L27.604 24.4792C28.3679 22.1875 29.7042 20.3125 31.6129 18.8542C33.5216 17.3958 35.6575 16.6667 38.0207 16.6667H62.1873C64.5771 16.6667 66.737 17.3958 68.6671 18.8542C70.5973 20.3125 71.9096 22.1875 72.604 24.4792L77.8123 41.7708C81.7707 42.118 85.0693 43.7326 87.7082 46.6146C90.3471 49.4965 91.6665 53.0208 91.6665 57.1875C91.6665 60.1136 90.9547 62.8069 89.5311 65.2675C88.1075 67.728 86.1109 69.7569 83.5415 71.3542C83.3332 74.6875 82.0311 77.5173 79.6353 79.8437C77.2394 82.1701 74.479 83.3333 71.354 83.3333C68.4373 83.3333 65.8853 82.3264 63.6978 80.3125C61.5103 78.2986 60.1387 75.8333 59.5832 72.9167H40.5207C39.9651 75.8333 38.5936 78.2986 36.4061 80.3125C34.2186 82.3264 31.6665 83.3333 28.7498 83.3333ZM28.5415 41.5625H46.7707V22.9167H38.0207C37.0084 22.9167 36.113 23.2465 35.3344 23.9062C34.5558 24.566 33.9929 25.3819 33.6457 26.3542L28.5415 41.5625ZM53.0207 41.5625H71.2498L66.573 26.3901C66.2187 25.3939 65.6522 24.566 64.8736 23.9062C64.095 23.2465 63.1996 22.9167 62.1873 22.9167H53.0207V41.5625ZM40.5207 66.6667H59.5832C60.3471 64.1667 61.8401 62.1528 64.0623 60.625C66.2846 59.0972 68.7151 58.3333 71.354 58.3333C73.5762 58.3333 75.6248 58.9236 77.4998 60.1042C79.3748 61.2847 80.9026 62.8125 82.0832 64.6875C83.2637 63.7847 84.1144 62.6588 84.6353 61.3097C85.1561 59.9606 85.4165 58.5865 85.4165 57.1875C85.4165 54.5486 84.5137 52.3264 82.7082 50.5208C80.9026 48.7153 78.6804 47.8125 76.0415 47.8125H24.0623C21.4234 47.8125 19.2012 48.7153 17.3957 50.5208C15.5901 52.3264 14.6873 54.5486 14.6873 57.1875C14.6873 58.5865 14.9651 59.9606 15.5207 61.3097C16.0762 62.6588 16.9096 63.7847 18.0207 64.6875C19.1318 62.6736 20.6452 61.1111 22.5608 60C24.4765 58.8889 26.5395 58.3333 28.7498 58.3333C31.3887 58.3333 33.8193 59.0972 36.0415 60.625C38.2637 62.1528 39.7568 64.1667 40.5207 66.6667ZM28.7498 77.0833C30.5207 77.0833 32.005 76.4844 33.203 75.2864C34.4009 74.0885 34.9998 72.6042 34.9998 70.8333C34.9998 69.0625 34.4009 67.5781 33.203 66.3802C32.005 65.1823 30.5207 64.5833 28.7498 64.5833C26.979 64.5833 25.4946 65.1823 24.2967 66.3802C23.0988 67.5781 22.4998 69.0625 22.4998 70.8333C22.4998 72.6042 23.0988 74.0885 24.2967 75.2864C25.4946 76.4844 26.979 77.0833 28.7498 77.0833ZM71.354 77.0833C73.1248 77.0833 74.6092 76.4844 75.8071 75.2864C77.005 74.0885 77.604 72.6042 77.604 70.8333C77.604 69.0625 77.005 67.5781 75.8071 66.3802C74.6092 65.1823 73.1248 64.5833 71.354 64.5833C69.5832 64.5833 68.0988 65.1823 66.9009 66.3802C65.703 67.5781 65.104 69.0625 65.104 70.8333C65.104 72.6042 65.703 74.0885 66.9009 75.2864C68.0988 76.4844 69.5832 77.0833 71.354 77.0833Z" fill="#48ACF0"/>
</g>
</svg>
