<svg width="100" height="100" viewBox="0 0 100 100" fill="none" xmlns="http://www.w3.org/2000/svg">
<g id="child_care_FILL0_wght400_GRAD0_opsz48 1">
<path id="Vector" d="M60.8333 47.7083C59.5139 47.7083 58.4028 47.2569 57.5 46.3542C56.5972 45.4514 56.1458 44.3403 56.1458 43.0208C56.1458 41.7014 56.5972 40.5903 57.5 39.6875C58.4028 38.7847 59.5139 38.3333 60.8333 38.3333C62.1528 38.3333 63.2639 38.7847 64.1667 39.6875C65.0694 40.5903 65.5208 41.7014 65.5208 43.0208C65.5208 44.3403 65.0694 45.4514 64.1667 46.3542C63.2639 47.2569 62.1528 47.7083 60.8333 47.7083ZM39.0625 47.7083C37.7431 47.7083 36.6319 47.2569 35.7292 46.3542C34.8264 45.4514 34.375 44.3403 34.375 43.0208C34.375 41.7014 34.8264 40.5903 35.7292 39.6875C36.6319 38.7847 37.7431 38.3333 39.0625 38.3333C40.3819 38.3333 41.4931 38.7847 42.3958 39.6875C43.2986 40.5903 43.75 41.7014 43.75 43.0208C43.75 44.3403 43.2986 45.4514 42.3958 46.3542C41.4931 47.2569 40.3819 47.7083 39.0625 47.7083ZM50 70.2083C46.1111 70.2083 42.5694 69.1667 39.375 67.0833C36.1806 65 33.6806 62.2569 31.875 58.8542H68.125C66.3194 62.2569 63.8194 65 60.625 67.0833C57.4306 69.1667 53.8889 70.2083 50 70.2083ZM50 87.5C44.8611 87.5 40.0174 86.5104 35.4687 84.5312C30.9201 82.5521 26.9444 79.8611 23.5417 76.4583C20.1389 73.0556 17.4479 69.0799 15.4687 64.5312C13.4896 59.9826 12.5 55.1389 12.5 50C12.5 44.8611 13.4896 40.0174 15.4687 35.4687C17.4479 30.9201 20.1389 26.9444 23.5417 23.5417C26.9444 20.1389 30.9201 17.4479 35.4687 15.4687C40.0174 13.4896 44.8611 12.5 50 12.5C55.1389 12.5 59.9826 13.4896 64.5312 15.4687C69.0799 17.4479 73.0556 20.1389 76.4583 23.5417C79.8611 26.9444 82.5521 30.9201 84.5312 35.4687C86.5104 40.0174 87.5 44.8611 87.5 50C87.5 55.1389 86.5104 59.9826 84.5312 64.5312C82.5521 69.0799 79.8611 73.0556 76.4583 76.4583C73.0556 79.8611 69.0799 82.5521 64.5312 84.5312C59.9826 86.5104 55.1389 87.5 50 87.5ZM50 81.25C58.5417 81.25 65.8854 78.2118 72.0312 72.1354C78.1771 66.059 81.25 58.75 81.25 50.2083C81.25 41.6667 78.2292 34.2014 72.1875 27.8125C66.1458 21.4236 58.6806 18.2292 49.7917 18.2292H47.9167C47.4306 18.2292 46.8056 18.2639 46.0417 18.3333C45.9028 18.8889 45.7812 19.5486 45.6771 20.3125C45.5729 21.0764 45.5208 21.7361 45.5208 22.2917C45.5208 24.0278 46.0937 25.4687 47.2396 26.6146C48.3854 27.7604 49.8264 28.3333 51.5625 28.3333C52.3958 28.3333 53.0903 28.2812 53.6458 28.1771C54.2014 28.0729 54.7222 28.0208 55.2083 28.0208C55.9028 28.0208 56.4931 28.1944 56.9792 28.5417C57.4653 28.8889 57.7083 29.4097 57.7083 30.1042C57.7083 31.2153 57.1875 32.066 56.1458 32.6562C55.1042 33.2465 53.5764 33.5417 51.5625 33.5417C48.3681 33.5417 45.6944 32.4653 43.5417 30.3125C41.3889 28.1597 40.3125 25.4861 40.3125 22.2917C40.3125 21.9444 40.3299 21.4931 40.3646 20.9375C40.3993 20.3819 40.4861 19.9306 40.625 19.5833C34.3056 21.875 29.0799 25.6944 24.9479 31.0417C20.816 36.3889 18.75 42.6389 18.75 49.7917C18.75 58.3333 21.8229 65.7118 27.9687 71.9271C34.1146 78.1424 41.4583 81.25 50 81.25Z" fill="#48ACF0"/>
</g>
</svg>
