<svg width="45" height="26" viewBox="0 0 45 26" fill="none" xmlns="http://www.w3.org/2000/svg">
  <path
    d="M36.893 10.8727L36.3399 12.0641L37.6355 12.2801C41.4102 12.9097 44 15.6062 44 18.5714C44 21.9513 40.6069 25 36 25L10.125 25C4.89933 25 1 21.5334 1 17.6429C1 14.5597 3.40917 11.7712 7.04291 10.7161L7.79832 10.4968L7.76306 9.71098C7.75586 9.55053 7.75 9.41624 7.75 9.28571C7.75 4.87862 12.1485 1 18 1C21.8845 1 25.1948 2.74165 26.9328 5.22746L27.4489 5.96568L28.2369 5.52924C29.1541 5.0212 30.2806 4.71429 31.5 4.71429C34.8624 4.71429 37.25 6.93308 37.25 9.28571C37.25 9.83952 37.1238 10.3754 36.893 10.8727Z"
    stroke="white"
    stroke-width="2"
  />
</svg>
