<?xml version="1.0" encoding="utf-8"?>
<!-- Generator: Adobe Illustrator 24.0.2, SVG Export Plug-In . SVG Version: 6.00 Build 0)  -->
<svg version="1.1" id="Layer_1" xmlns="http://www.w3.org/2000/svg" xmlns:xlink="http://www.w3.org/1999/xlink" x="0px" y="0px"
	 viewBox="0 0 595.28 382.68" style="enable-background:new 0 0 595.28 382.68;" xml:space="preserve">
<style type="text/css">
	.st0{fill:#40BB98;}
	.st1{fill:#262262;}
	.st2{fill:#EF3C23;}
	.st3{fill:#56A9DE;}
	.st4{fill:#FDB714;}
	.st5{fill:#81D2E2;}
	.st6{fill:#4A230E;}
	.st7{fill:#E6C2AE;}
	.st8{fill:#FFFFFF;}
	.st9{fill:#955D53;}
	.st10{fill:#F8A79A;}
	.st11{fill:#F47F73;}
	.st12{fill:#27AAE1;}
	.st13{fill:#FED074;}
	.st14{fill:#4EBDE5;}
	.st15{fill:#B8B9BA;}
	.st16{fill:#EF4277;}
</style>
<g>
	<g>
		<g>
			<path class="st0" d="M191.27,221.92c-2.49,0-4.88-0.66-7.1-1.95l-0.47-0.27l-0.43-0.34c-3.66-2.89-5.75-6.27-6.19-10.05
				L159.12,83.61c-0.5-4.3,0.52-8.08,2.94-11.12c2.15-2.73,5.15-4.65,8.67-5.55l0.37-0.1l0.38-0.06c6.78-1.03,13.39-1.55,19.64-1.55
				c4.44,0,8.8,0.26,12.98,0.78c10.24,1.28,19.24,3.86,26.76,7.67c7.48,3.79,14.14,8.67,19.79,14.5
				c5.64,5.81,10.16,12.24,13.43,19.12c3.21,6.74,5.5,14.04,6.82,21.69c1.14,7.27,1.28,14.41,0.44,21.33
				c-0.87,7.09-3.08,14.3-6.59,21.43c-3.49,7.1-8.24,13.74-14.12,19.72c-5.82,5.92-13.55,11.57-22.96,16.82
				c-9.3,5.18-20.12,9.55-32.16,12.99C194.29,221.67,192.77,221.92,191.27,221.92z M216.34,153.99c1.65-2.12,2.9-4.72,3.79-7.86
				c2.07-7.26,1.35-13.35-2.19-18.61c-1.81-2.68-3.9-4.12-6.75-4.58L216.34,153.99z"/>
			<path class="st1" d="M191.13,72.99c4.14,0,8.15,0.24,12.03,0.72c9.39,1.17,17.46,3.47,24.21,6.89
				c6.74,3.42,12.65,7.75,17.73,12.98c5.08,5.23,9.07,10.92,11.99,17.05c2.92,6.14,4.98,12.69,6.18,19.67
				c1.01,6.48,1.14,12.85,0.38,19.08c-0.76,6.24-2.71,12.55-5.85,18.94c-3.14,6.39-7.37,12.29-12.69,17.7
				c-5.33,5.41-12.39,10.57-21.21,15.49c-8.82,4.91-18.98,9.01-30.51,12.3c-0.72,0.23-1.42,0.35-2.11,0.35c-1.1,0-2.17-0.3-3.19-0.9
				c-2-1.58-3.09-3.2-3.29-4.86L166.8,82.52c-0.24-2.04,0.21-3.78,1.34-5.21c1.12-1.42,2.64-2.38,4.52-2.86
				C179.08,73.48,185.24,72.99,191.13,72.99 M210.66,167.13c8.57-3.07,14.22-9.36,16.93-18.87c2.71-9.51,1.63-17.86-3.22-25.07
				c-3.67-5.44-8.8-8.16-15.38-8.16c-2.13,0-4.41,0.28-6.84,0.85L210.66,167.13 M191.13,57.48L191.13,57.48
				c-6.65,0-13.65,0.55-20.81,1.64l-0.76,0.12l-0.74,0.19c-5.18,1.32-9.63,4.19-12.86,8.28c-3.65,4.61-5.28,10.51-4.56,16.61
				l0.02,0.2l0.03,0.2l17.97,125.76c0.53,4.05,2.55,9.84,9.05,14.97l0.85,0.67l0.94,0.55c3.37,1.97,7.18,3.01,11,3.01
				c2.2,0,4.41-0.34,6.57-1c12.53-3.59,23.84-8.17,33.61-13.61c10.06-5.61,18.38-11.72,24.71-18.16
				c6.46-6.57,11.7-13.88,15.56-21.73c3.89-7.92,6.36-15.96,7.33-23.9c0.93-7.63,0.77-15.49-0.46-23.36l-0.02-0.12l-0.02-0.12
				c-1.43-8.33-3.94-16.31-7.46-23.7c-3.63-7.64-8.64-14.77-14.87-21.19c-6.25-6.44-13.6-11.83-21.84-16.01
				c-8.32-4.22-18.18-7.06-29.3-8.45C200.58,57.76,195.89,57.48,191.13,57.48L191.13,57.48z"/>
		</g>
		<g>
			<path class="st2" d="M331.93,214.56c-1.27,0-2.54-0.04-3.82-0.12c-12.06-0.77-23.11-5.04-32.83-12.69
				c-9.53-7.5-16.86-17.38-21.77-29.36c-4.85-11.82-6.87-24.71-6-38.32c0.64-10.08,2.93-19.79,6.81-28.87
				c3.9-9.14,9-17.01,15.16-23.4c6.21-6.46,13.59-11.55,21.9-15.13c7.33-3.16,14.99-4.76,22.75-4.76c1.22,0,2.45,0.04,3.69,0.12
				c11.96,0.76,22.9,5.03,32.52,12.69c9.4,7.49,16.65,17.38,21.56,29.42c4.84,11.88,6.85,24.77,5.99,38.31
				c-0.86,13.54-4.5,26.07-10.8,37.24c-6.39,11.32-14.85,20.2-25.14,26.38C352.58,211.7,342.48,214.56,331.93,214.56z
				 M334.43,105.56c-1.37,0-5.52,0-10.72,7.41c-4.44,6.34-7.01,14.47-7.62,24.18c-0.62,9.73,0.9,18.2,4.51,25.17
				c4.42,8.53,8.82,8.81,10.27,8.9c0.18,0.01,0.53,0.02,0.53,0.02c1.29,0,5.18-0.02,10.32-7.54c4.42-6.47,6.98-14.69,7.6-24.43
				c0.41-6.39-0.15-12.43-1.66-17.95c-1.41-5.15-3.46-9.23-6.08-12.11c-2.77-3.05-5.06-3.53-6.55-3.62
				C334.84,105.57,334.64,105.56,334.43,105.56z"/>
			<path class="st1" d="M334.14,69.66c1.06,0,2.12,0.03,3.19,0.1c10.4,0.66,19.79,4.34,28.19,11.02
				c8.39,6.68,14.79,15.45,19.21,26.28c4.41,10.84,6.23,22.47,5.44,34.89c-0.79,12.42-4.06,23.73-9.82,33.92
				c-5.76,10.19-13.21,18.04-22.38,23.55c-8.19,4.92-16.86,7.37-26.03,7.37c-1.1,0-2.21-0.04-3.33-0.11
				c-10.52-0.67-20.03-4.35-28.53-11.04c-8.51-6.69-14.97-15.42-19.39-26.21c-4.42-10.78-6.23-22.41-5.44-34.89
				c0.59-9.24,2.66-18.02,6.2-26.32c3.55-8.3,8.08-15.32,13.61-21.06c5.52-5.74,11.99-10.2,19.39-13.38
				C320.84,71.04,327.4,69.67,334.14,69.66 M331.39,179c6.18,0,11.75-3.64,16.73-10.91c5.25-7.67,8.23-17.11,8.94-28.32
				c0.46-7.28-0.18-14.11-1.92-20.48c-1.74-6.37-4.35-11.47-7.82-15.29c-3.47-3.82-7.4-5.87-11.79-6.15
				c-0.37-0.02-0.74-0.04-1.11-0.04c-6.37,0-12.06,3.57-17.06,10.71c-5.3,7.55-8.3,16.94-9.01,28.14
				c-0.71,11.21,1.07,20.95,5.36,29.23c4.29,8.28,9.84,12.64,16.66,13.07C330.72,178.99,331.06,179,331.39,179 M334.14,54.16
				L334.14,54.16c-8.83,0-17.52,1.81-25.83,5.39c-9.27,3.99-17.49,9.66-24.42,16.87c-6.81,7.06-12.43,15.72-16.7,25.72
				c-4.22,9.89-6.72,20.46-7.42,31.42c-0.94,14.79,1.27,28.84,6.56,41.76c5.42,13.24,13.55,24.18,24.15,32.52
				c10.98,8.64,23.47,13.46,37.13,14.33c1.44,0.09,2.89,0.14,4.31,0.14c11.97,0,23.42-3.23,34.01-9.59
				c11.45-6.88,20.84-16.71,27.9-29.22c6.89-12.2,10.85-25.84,11.79-40.56c0.94-14.71-1.27-28.75-6.55-41.72
				c-5.41-13.28-13.46-24.24-23.91-32.56c-10.89-8.67-23.29-13.5-36.86-14.37C336.92,54.2,335.52,54.16,334.14,54.16L334.14,54.16z
				 M331.37,163.49L331.37,163.49c-0.74-0.05-2.3-1.68-3.88-4.72c-3-5.79-4.19-12.69-3.66-21.12c0.53-8.27,2.62-15.07,6.24-20.22
				c2.11-3.01,3.77-4.11,4.37-4.11c0.13,0,0.58,0.18,1.43,1.11c1.78,1.96,3.24,4.98,4.33,8.94c1.28,4.69,1.75,9.88,1.4,15.41
				c-0.53,8.33-2.64,15.25-6.26,20.55C333.3,162.29,331.79,163.33,331.37,163.49L331.37,163.49z"/>
		</g>
		<g>
			<path class="st3" d="M429.29,204.8c-0.77,0-1.57-0.06-2.42-0.2l-26.42-4.19c-3.58-0.57-6.65-2.41-8.88-5.34
				c-2.32-3.02-3.22-6.71-2.59-10.66l18.19-114.75c0.61-3.86,2.66-7.03,5.8-9.03c2.2-1.82,4.94-2.77,7.97-2.77
				c0.77,0,1.58,0.06,2.43,0.2l23.71,4.99c3.53,0.62,6.5,2.45,8.6,5.32c2.14,2.97,2.96,6.45,2.38,10.08l-15.13,114.33
				c-0.6,3.78-2.49,6.9-5.38,9.02C435.29,203.76,432.45,204.8,429.29,204.8z"/>
			<path class="st1" d="M420.95,65.61c0.38,0,0.78,0.03,1.21,0.1l23.48,4.95c1.6,0.25,2.86,1.01,3.77,2.27
				c0.91,1.26,1.24,2.69,0.99,4.29l-15.17,114.53c-0.27,1.72-1.13,3.05-2.57,3.99c-0.87,0.87-2,1.31-3.38,1.31
				c-0.38,0-0.78-0.03-1.2-0.1l-26.42-4.19c-1.6-0.25-2.91-1.05-3.93-2.38c-1.02-1.33-1.38-2.91-1.09-4.75l18.19-114.76
				c0.29-1.83,1.2-3.15,2.74-3.96C418.44,66.04,419.57,65.61,420.95,65.61 M420.95,50.1L420.95,50.1c-4.65,0-9.02,1.49-12.54,4.25
				c-4.77,3.21-7.97,8.24-8.9,14.1l-18.19,114.76c-0.95,6.02,0.5,11.92,4.11,16.61c3.39,4.44,8.3,7.39,13.81,8.26l26.42,4.19
				c1.22,0.19,2.44,0.29,3.63,0.29c4.89,0,9.47-1.65,13.08-4.69c4.42-3.33,7.31-8.14,8.19-13.69l0.03-0.2l0.03-0.2L465.75,79.4
				c0.81-5.54-0.52-11.05-3.77-15.55c-3.27-4.48-8-7.43-13.42-8.42l-23.21-4.9l-0.38-0.08l-0.39-0.06
				C423.36,50.2,422.14,50.1,420.95,50.1L420.95,50.1z"/>
		</g>
	</g>
	<g>
		<path class="st1" d="M539.42,184.81c1.18-1.9,1.99-3.99,2.19-6.28c0.05-0.71-0.15-1.39-0.52-1.94c-0.52-1.18-1.65-1.93-3.67-1.93
			c-4.15-4.55-8.61-9.73-14.52-11.56c-2.81-0.88-6.31,0-7.64,2.71c-5.05,6.53,1.48,17.72,6.38,23.8c-0.13,0.11-0.23,0.2-0.24,0.28
			c-0.06,0.37-0.06,0.69-0.05,1c-0.26,1.51,0.39,2.3,1.57,2.6c1.29,0.5,3.24,0.16,5.27-0.51c3.04-0.88,6.17-2.41,7.2-3.38
			c0.13-0.12,0.26-0.26,0.39-0.38c0.13-0.09,0.25-0.18,0.36-0.27C537.2,188.15,538.43,186.58,539.42,184.81z"/>
	</g>
	<path class="st4" d="M517.45,181.43c-2.38-4.84-4.52-13.37,0.18-17.56c3.41-1.53,8.81,2.08,11.13,4c2.78,2.29,5.11,5.13,7.82,7.46
		c-0.06,0.05-0.14,0.1-0.22,0.16c-0.08,0.06-0.06,0.13,0.06,0.08c3.95-1.45,3.72,4.47,3.04,6.37c-0.86,2.36-2.9,5-4.74,6.7
		c-2.75,2.55-11.4,6.96-12.12,0.42c-0.01-0.18-0.22-0.13-0.41-0.03C520.47,186.55,518.8,184.16,517.45,181.43z"/>
	<path class="st3" d="M519.54,171.16c2.12-2.23,4.63-3.8,7.47-4.63c-0.85-0.57-1.83-1.18-2.85-1.7c-4.09,1.43-7.58,4.38-9.17,8.45
		c0.15,1.23,0.42,2.46,0.76,3.64C516.53,174.74,518.06,172.7,519.54,171.16z"/>
	<path class="st3" d="M537.83,175.36c-3.56,0.12-6.73,3.44-8.21,4.73c-3.24,2.85-5.58,6.31-6.59,10.45
		c1.85,4.2,9.18,0.38,11.69-1.93c1.84-1.7,3.89-4.34,4.74-6.7C540.05,180.29,540.29,175.68,537.83,175.36z"/>
	<path class="st3" d="M529.22,174.27c1.04-0.63,2.51-1.48,4.08-2.1c-0.8-0.81-1.58-1.6-2.38-2.39c-5.74,1.87-11.6,6.96-12.9,12.67
		c0.52,0.98,1.1,1.94,1.69,2.86C521.4,180.68,525.04,176.8,529.22,174.27z"/>
	<g>
		<path class="st1" d="M467.49,181.04c0.06,0.09,0.15,0.2,0.25,0.32c0.09,0.14,0.18,0.29,0.26,0.43c0.7,1.11,3.11,3.19,5.62,4.69
			c1.65,1.08,3.3,1.84,4.58,1.69c1.1,0.01,1.87-0.55,1.99-1.96c0.08-0.27,0.14-0.56,0.18-0.91c0.01-0.07-0.06-0.18-0.15-0.3
			c5.77-4.26,14.19-12.69,11.23-19.67c-0.54-2.71-3.46-4.31-6.15-4.19c-5.69,0.24-10.86,3.8-15.61,6.88
			c-5.38-1.45-4.97,5.32-4.13,8.55C466.01,178.41,466.73,180.08,467.49,181.04z"/>
	</g>
	<path class="st4" d="M479.88,184.35c-0.16-0.15-0.34-0.24-0.39-0.07c-2.15,5.64-8.8-0.29-10.67-3.2c-1.24-1.95-2.43-4.76-2.64-7.06
		c-0.17-1.84,1.01-7.17,4.17-4.94c0.09,0.06,0.14,0.01,0.08-0.06c-0.06-0.07-0.11-0.13-0.18-0.19c2.98-1.43,5.71-3.42,8.71-4.81
		c2.52-1.16,8.16-3.09,10.83-0.96c3.22,4.83-0.7,11.92-3.94,15.67C484.02,180.83,481.97,182.57,479.88,184.35z"/>
	<path class="st3" d="M476.93,175.83c-1.65-3.08-3.99-5.13-6.62-7.04c-0.02,0.01-0.03,0.01-0.06,0.03c0.07,0.06,0.12,0.12,0.18,0.19
		c0.06,0.08,0.01,0.13-0.08,0.06c-3.16-2.23-4.34,3.1-4.17,4.94c0.21,2.3,1.4,5.12,2.64,7.06c1.86,2.91,8.52,8.84,10.67,3.2
		c0.04-0.1,0.13-0.1,0.22-0.05C479.17,181.31,478.32,178.42,476.93,175.83z"/>
	<path class="st5" d="M490.95,168.04c0.16-1.77-0.16-3.49-1.16-5c-0.65-0.5-1.44-0.77-2.33-0.89
		C488.91,163.9,490.06,165.91,490.95,168.04z"/>
	<path class="st3" d="M485.74,162.11c-0.93,0.07-1.89,0.24-2.82,0.48c1.96,2.13,3.54,4.5,4.83,7.26c0.47,1.03,1.13,2.23,1.64,3.47
		c0.45-0.94,0.83-1.92,1.11-2.92C489.44,167.35,487.93,164.44,485.74,162.11z"/>
	<path class="st3" d="M477.39,164.81c-0.89,0.48-1.77,0.96-2.62,1.47c2.69,1.95,4.65,4.63,6.14,7.73c1.05,2.26,2.13,4.76,2.41,7.31
		c0.65-0.61,1.27-1.24,1.88-1.91C484.32,173.65,481.86,168.55,477.39,164.81z"/>
	<g>
		<path class="st1" d="M523.82,205.95c1.26-12.91,0.26-27.81-3.36-40.15c1.02-2.8-1.65-4.92-5.21-6.27
			c-5.59-2.11-13.75-2.35-20.31-0.87c-4.29,0.42-8.19,2.23-6.94,6.37c-5.15,3.6-8.28,10.4-10.86,15.87
			c-3.33,7.1-5.37,15.05-5.78,22.91c-9.03,4.53,7.92,10.1,11.55,10.99c9.26,2.29,19.12,2.22,28.53,1.22
			c4.24-0.46,9.42-1.05,12.61-4.13C526.42,210.14,527.55,206.69,523.82,205.95z"/>
	</g>
	<path class="st4" d="M485.25,213.26c-3.16-0.65-18.39-4.67-13.91-9c-0.03,0.63-0.06,1.25-0.06,1.89c0,0.29,0.75-0.15,0.77-0.38
		c2.01-14.47,6.59-28.91,16.13-40.29c0.13,0.37,0.29,0.73,0.5,1.13c0.14,0.27,0.7-0.29,0.71-0.46c0.12-1.08,0.06-2.14,0.03-3.24
		c-0.06-2.16,2-2.63,3.78-2.96c3.05-0.57,6.09-0.45,9.19-0.4c0.05,0.01,0.3-0.18,0.2-0.22c-0.18-0.07-0.39-0.12-0.6-0.19
		c9.29,0.06,19.91,2.01,16.29,8.97c-0.23,0.44,0.48,0.17,0.62,0.02c0.44-0.46,0.79-0.89,1.06-1.32c0.62,6.36,1.76,12.67,2.3,19.05
		c0.65,7.59,0.47,15.11,0.52,22.71c-0.01,0.34,0.82-0.2,0.85-0.48c0.05-0.31,0.06-0.66,0.09-0.98c0.42,0.57,0.81,1.12,1.02,1.85
		c0.61,2.16-4.17,3.83-5.54,4.38c-0.86,0.34-1.74,0.62-2.63,0.87c-3.4,0.53-7.04,0.47-9.83,0.61
		C499.55,215.18,492.29,214.7,485.25,213.26z"/>
	<g>
		<path class="st5" d="M489.38,166.15c-0.01,0.07-0.07,0.18-0.17,0.28c5.38,0.98,10.94,1.45,16.29,1.57
			c4.4,0.1,8.76-0.19,13.14-0.72c2.36-6.29-7.77-8.08-16.66-8.14c0.21,0.07,0.41,0.12,0.6,0.19c0.1,0.04-0.15,0.23-0.2,0.22
			c-3.1-0.05-6.13-0.17-9.19,0.4c-1.78,0.34-3.84,0.8-3.78,2.96C489.44,164,489.5,165.06,489.38,166.15z"/>
		<path class="st3" d="M507.1,176.42c-8.38-0.25-16.2-1.68-24.1-3.63c-0.87,1.41-1.68,2.83-2.42,4.3c2.81,1.25,5.65,2.43,8.6,3.19
			c4.88,1.26,9.96,1.69,14.98,1.74c5.77,0.07,11.85,0.12,17.54-1.19c-0.2-1.55-0.4-3.1-0.62-4.66
			C516.39,176.83,511.32,176.55,507.1,176.42z"/>
		<path class="st3" d="M520.88,187.89c-5.33,1.16-10.65,1.86-16.09,2.22c-9.71,0.63-18.99-1.46-27.19-6.34
			c-0.46,1.18-0.9,2.37-1.3,3.57c5.62,5.99,15.65,8.24,23.3,8.6c7.76,0.38,15.79-0.51,23.04-3.38c-0.06-1.67-0.15-3.33-0.27-4.99
			C521.86,187.68,521.36,187.79,520.88,187.89z"/>
		<path class="st5" d="M520.09,200.86c-5.44,1.34-11.1,2.35-16.71,2.62c-10.29,0.51-21.76-1.76-29.08-9.35
			c-0.27,1.05-0.51,2.12-0.74,3.18c2.09,3.95,8.51,6.7,12.18,7.87c4.59,1.47,9.43,2.15,14.26,2.28c7.91,0.22,15.68-0.99,22.77-4.18
			c-0.01-1.07-0.01-2.13-0.01-3.2C521.89,200.37,521,200.63,520.09,200.86z"/>
		<path class="st5" d="M524.18,207.81c-0.19,0.14-0.4,0.25-0.59,0.39c-0.13,0.22-0.55,0.51-0.74,0.48
			c-7.94,4.91-18.61,4.49-27.57,3.75c-7.81-0.63-17.85-1.94-22.96-8.53c-0.08,0.62-0.19,1.25-0.28,1.87
			c-0.02,0.23-0.77,0.66-0.77,0.38c0-0.64,0.04-1.26,0.06-1.89c-4.47,4.34,10.75,8.35,13.91,9c7.04,1.44,14.3,1.93,21.49,1.57
			c2.79-0.14,6.44-0.08,9.83-0.61c0.89-0.26,1.77-0.53,2.63-0.87c1.36-0.55,6.14-2.22,5.54-4.38
			C524.62,208.52,524.4,208.17,524.18,207.81z"/>
	</g>
	<path class="st6" d="M513.66,152.9c-2.07-3.01-7.07-3.22-10.23-2.95c-2.18,0.19-5.7,1.18-6.99,3.2c-0.96,1.49-0.3,3.21,0.22,4.93
		c-0.06,1.82-0.39,3.58-1.29,5.44c-0.63,1.28-1.03,2.37-0.88,3.81c0.33,3.06,5.12,4.21,7.48,4.62c3.39,0.61,6.71-0.31,9.55-2.16
		c2.3-1.51,2.06-3.69,1.57-6.05C512.23,159.72,516.37,156.82,513.66,152.9z"/>
	<path class="st7" d="M512.24,161.36c-0.05,1.27-0.02,2.53-0.1,3.87c-0.05,0.88-0.16,1.86-0.66,2.61c-0.7,1.05-1.66,1.58-2.74,1.83
		c-0.59,0.25-1.32,0.44-2.25,0.63c-3.49,0.69-7.34,0.18-9.89-2.53c-0.88-0.94-0.6-2.47-0.02-4.06c0.08-0.42,0.21-0.86,0.42-1.3
		c0.94-2.14,1.2-3.83,0.85-6.2c-0.32-2.12,0.53-3.43,2.31-3.98c2.19-1.01,5.79-0.68,7.73-0.26c3.15,0.66,5.96,2.81,5.29,6.31
		C512.98,159.36,512.59,160.36,512.24,161.36z"/>
	<g>
		<g>
			<path class="st1" d="M578.26,119.11c-2.37-0.67-5.45-0.43-7.28,1.26c0.61-2.27,1.02-4.54,1.19-6.79
				c3.29-10.56-2.46-25.55-7.31-34.64c-3.31-6.25-8.23-11.97-13.91-16.14c-6.26-4.54-13.47-7.81-20.99-9.56
				c-4.65-1.08-9.65-1.86-14.44-2.02c-4.29-0.13-8.56,0.2-12.76,0.99c-3.17,0.61-6.3,1.34-9.43,2.1c-1.32,0.32-2.57,0.7-3.8,1.12
				c-7.85,2.52-15.15,6.52-21.18,12.49c-11.81,11.69-19.39,28.78-16.91,45.06c-2.01-1.47-4.89-1.55-7.47,0.01
				c-5.48,3.33-8.43,9.36-6.78,15.68c2.29,8.85,16.38,11.11,20.79,3.44c2.51,4.27,5.71,8.27,9.42,11.9
				c11.99,11.76,28.12,17.06,44.66,17.06c15.3,0.01,30.71-4.72,42.52-14.56c1.94-1.6,3.85-3.56,5.67-5.75
				c2.55,3.59,9.64,2.08,13.08,1.02c5.18-1.57,9.33-5.67,11-10.76C586.04,125.81,583.41,120.6,578.26,119.11z"/>
		</g>
		<path class="st7" d="M440.17,129.26c-2.17-3.66-1.64-8.29,0.42-11.83c2.41-4.17,7.93-5.72,11.14-2.89
			c0.27,1.43,0.61,2.86,1.06,4.27c0.87,4.12,2.37,8.1,4.43,11.86C454.1,138.28,443.46,134.8,440.17,129.26z"/>
		<path class="st7" d="M549.04,148.18c-12.3,8.97-28.52,11.56-43.4,10.35c-17.96-1.47-37.2-12.88-46.7-28.9
			c0-0.08-0.05-0.15-0.11-0.17c-0.72-1.24-1.36-2.5-1.96-3.79c-1.65-3.49-2.52-7.96-3.09-11.77c-0.6-4.03-0.57-8.12-0.09-12.15
			c0.99-8.04,3.39-16.22,7.92-22.99c4.6-6.85,10.51-12.9,17.49-17.32c9.12-5.77,21.02-7.93,31.65-8.26c3.19-0.1,6.43,0.06,9.58,0.48
			c7.08,0.93,13.93,2.9,20.42,5.88c18.56,8.5,28.68,29,29.26,48.83C569.76,123.64,561.23,139.31,549.04,148.18z"/>
		<path class="st7" d="M582.36,131.68c-1.12,5.22-6,8.32-10.87,9.45c-2.9,0.68-8.23,0.99-9.87-2.09c3.94-5.15,7.28-11.42,9.12-17.82
			c3-2.6,7.53-0.9,9.99,1.64C582.99,125.19,582.98,128.75,582.36,131.68z"/>
		<g>
			<path class="st1" d="M448.46,118.92c-4.12-1.08-6.21,4.16-5.66,7.31c0.03,0.17,0.42-0.08,0.41-0.22
				c0.01-1.74,0.54-5.14,2.68-5.68c1.68-0.44,3.33,1.42,4.21,2.56c0.91,1.15,1.44,2.43,1.76,3.76c-0.7,0.73-1.22,1.36-2.46,1.33
				c-1.49-0.02-2.69-0.82-3.45-2.07c-0.08-0.12-0.49,0.13-0.46,0.28c0.52,1.89,1.86,3.08,3.87,2.95c0.61-0.04,1.82-0.52,2.72-1.21
				c0.2,1.37,0.21,2.78,0.15,4.18c-0.02,0.39,0.81-0.21,0.88-0.37C454.98,127.49,453.51,120.24,448.46,118.92z"/>
		</g>
		<g>
			<path class="st1" d="M572.42,128.12c-2.11,1.86-7.62,8.14-5.11,11.25c0.27,0.33,1.07-0.28,1.12-0.56
				c0.32-1.57,0.76-3.01,1.37-4.4c0.01,0.66,0.14,1.32,0.48,1.9c1.36,2.44,4.94,0.5,6.45-0.63c0.19-0.16,0.22-0.42-0.09-0.26
				c-1.71,0.88-3.73,1.37-4.75-0.66c-0.64-1.31-0.38-2.65-0.02-3.95c0.12-0.16,0.25-0.34,0.38-0.51c2.12-2.71,5.73-5.4,8.68-2.21
				c0.15,0.15,0.6-0.16,0.51-0.34C579.57,123.35,575.03,125.81,572.42,128.12z"/>
		</g>
	</g>
	<g>
		<g>
			<path class="st1" d="M490.83,119.26c-0.29,2.88-2.87,4.99-5.75,4.71c-2.88-0.28-5-2.86-4.71-5.75c0.28-2.88,2.86-5,5.75-4.71
				C489.01,113.78,491.12,116.36,490.83,119.26z"/>
		</g>
		<path class="st8" d="M486.11,116.04c-0.1,1-0.99,1.75-2,1.65c-1-0.11-1.74-1.01-1.63-2.02c0.1-1.01,0.99-1.75,2-1.64
			C485.48,114.13,486.2,115.03,486.11,116.04z"/>
	</g>
	<g>
		<path class="st1" d="M483.15,101.1c-1.65,0.71-2.9,1.65-3.83,3.19c-0.41,0.68-1.34,2.35-0.52,2.92c0.1,0.08,0.35-0.11,0.38-0.21
			c0.22-0.89,0.75-1.57,1.32-2.27c1.6-1.93,3.03-2.69,5.47-1.89c2.14,0.7,3.61,2.41,4.75,4.27c0.14,0.2,0.74-0.2,0.67-0.4
			C490.22,102.9,487.66,99.19,483.15,101.1z"/>
	</g>
	<g>
		<g>
			<path class="st1" d="M533.29,122.83c-0.85,2.78-3.81,4.32-6.58,3.46c-2.77-0.88-4.32-3.82-3.45-6.59
				c0.87-2.78,3.81-4.32,6.6-3.45C532.62,117.11,534.17,120.06,533.29,122.83z"/>
		</g>
		<path class="st8" d="M529.33,118.73c-0.31,0.96-1.34,1.48-2.3,1.2c-0.96-0.3-1.5-1.34-1.2-2.3c0.3-0.97,1.33-1.51,2.3-1.21
			C529.09,116.73,529.63,117.75,529.33,118.73z"/>
	</g>
	<g>
		<path class="st1" d="M529.45,103.51c-1.77,0.35-3.16,1.03-4.4,2.36c-0.53,0.57-1.8,2.03-1.11,2.74c0.08,0.11,0.37-0.04,0.41-0.13
			c0.4-0.82,1.03-1.38,1.76-1.94c1.96-1.56,3.53-2.03,5.74-0.75c1.96,1.12,3.05,3.09,3.8,5.13c0.08,0.22,0.76-0.04,0.73-0.25
			C536.02,106.68,534.25,102.55,529.45,103.51z"/>
	</g>
	<g>
		<path class="st1" d="M580.54,72.94c-3.85-9.67-10.18-18.14-19.09-23.65c-1.43-0.88-4.12-2.52-6.75-3.5
			c-6.35-7.03-18.58-11.15-26.28-12.56c-15.61-2.9-30.95-1.62-45.53,4.76c-11.26,4.94-22.64,13-29.38,23.45
			c-3.76,5.78-6.21,11.91-7.51,18.69c-0.96,5.05-2.18,12.69,0.01,17.59c-0.24,1.41-0.34,2.89-0.31,4.44
			c0.08,4.37,2.3,12.32,6.49,14.6c0.52,0.28,1.43-0.5,1.63-0.92c1.6-3.16,1.06-7.67,1.97-11.2c1.5-5.88,4.36-10.55,7.86-15.14
			c-1.38,3.54-1.38,8.02,3.73,7.08c7.41-1.37,17.29-5.79,23.82-11.72c-3.07,4.57-5.11,9.14-1.39,9.44
			c5.12,0.41,10.82-2.26,15.28-4.48c3.86-1.93,8.7-4.4,12.2-7.57c-1.95,2.66-3.93,5.3-5.49,8.15c-1.46,2.69,1.49,2.58,3.17,2.01
			c2.91-1,5.75-2.49,8.31-4.14c2.11-1.34,5-3.31,6.85-5.68c0.3,1.17,0.69,2.35,1.19,3.58c1.14,2.71,2.87,5.25,4.51,7.69
			c0.57,0.82,2.11,3.53,3.35,3.56c1.79,0.05,2.87-1.55,2.91-3.11c0.08-2.01-0.43-4.17-0.55-6.19c-0.06-0.98-0.11-1.95-0.19-2.91
			c2.36,2.86,4.39,6.1,6.09,8.94c2.07,3.45,3.89,7.07,5.2,10.88c0.26,0.76,0.55,2.93,1.4,3.29c3.7,1.55,4.78-8.64,5.02-15.07
			c4.54,10.75,9.63,22.54,7.4,34.27c-0.15,0.8,0.98,0.23,1.26,0.05c2.97-1.95,5.61-4.71,7.74-7.9
			C585.7,106.83,586.39,87.65,580.54,72.94z"/>
	</g>
	<path class="st9" d="M573.29,119.53c-0.1,0.08-0.17,0.13-0.26,0.16c-0.6,0.96-1.25,1.92-1.98,2.9c-2.08,2.8-2.37,4.11-1.75,0.04
		c0.33-2.18-0.03-4.54-0.26-6.69c-0.78-7.93-3.47-19.99-9.95-25.62c-0.18-0.12-0.39-0.21-0.59-0.31c-0.28,0.83-0.57,1.66-0.86,2.48
		c-0.28,4.44-0.89,8.87-2.22,13.13c-0.53,1.7-0.55-0.88-0.79-1.7c-0.51-1.82-1.17-3.53-1.92-5.26c-2.16-4.99-5.7-10.98-10.24-15.08
		c-0.91-0.6-1.88-1.01-2.86-1.07c-0.05,0.13-0.08,0.27-0.11,0.39c-0.15,0.42-0.27,0.88-0.38,1.32c-0.03,2.23,0.02,4.47,0.06,6.7
		c0,0.75,0.22,1.9,0.31,3.01c-2.21-2.54-5.43-8.43-5.96-9.37c-0.85-1.47-1.41-3.03-1.93-4.6c0.01-0.04,0.01-0.1,0.03-0.14
		c-0.22-0.4-0.46-0.77-0.71-1.14c-0.46,0.39-0.93,0.78-1.39,1.18c0.02,0.06,0.02,0.12,0.04,0.17c-3.31,4.7-8.02,7.94-13.4,10.02
		c-2.1,0.8-1.67-0.66-0.64-2.02c0.89-1.2,1.59-2.57,2.34-3.88c1.24-2.14,2.58-4.17,3.28-6.53c-1.52,1.95-3.59,3.58-5.85,4.69
		c-6.05,4.65-14.32,7.96-21.16,9.55c-6.5,1.53-2.39-5.2-1.33-7.25c0.43-0.83,0.91-1.62,1.41-2.39c0.26-0.96,0.62-1.91,1.07-2.82
		c-0.64,0.36-1.27,0.74-1.94,1.1c-6.54,6.51-14.91,11.57-23.77,14.16c-7.13,2.07-4.91-4.56-2.59-9.06
		c-0.67,0.29-1.32,0.62-1.97,0.96c-0.02,0.04-0.04,0.06-0.06,0.1c-3.63,2.95-6.38,7.02-8.24,11.29c-1.29,3.03-2.3,6.05-3.09,9.23
		c-0.51,1.98-0.4,4.96-0.9,7.24c-3.93-3.71-5.91-10.64-5.31-16.61c0.08-0.06,0.13-0.12,0.2-0.19c0.03-0.54,0.04-1.07,0.09-1.61
		c-0.01-0.02-0.01-0.05-0.02-0.08c0.03-0.08,0.05-0.15,0.06-0.23c0.13-1.25,0.35-2.51,0.65-3.77c-0.4,0.55-0.75,1.11-1.05,1.68
		c-1.02-9.71,2.38-21.34,6.72-29.42c6.52-12.16,19.37-20.29,31.81-25.33c18.52-7.48,44.37-6.78,61.97,4.73
		c2.33,0.88,4.22,2.49,5.99,4.23c1.66,1.59,5.07,2.45,7.03,3.9c2.09,1.56,3.99,3.38,5.73,5.33c5.08,5.65,9.36,12.22,11.99,19.39
		C583.52,89.75,583.87,108.72,573.29,119.53z"/>
	<path class="st10" d="M532.73,141.44c-0.17-1.01-0.65-1.91-1.49-2.58c-2.62-2.05-6.82-0.87-9.77-0.41
		c-8.07,1.24-16.67,0.68-24.54-1.34c-4.02-1.04-9.62-4.46-13.69-2.26c-4.74,2.53-1.47,6.78,0.84,9.56c1.12,1.35,2.37,2.57,3.78,3.61
		c8.53,6.27,21.69,7.8,31.78,5.4c2.83-0.66,5.71-1.82,8.15-3.41C530.38,148.3,533.31,144.75,532.73,141.44z"/>
	<path class="st11" d="M489.42,149.07c8.5,5.38,20.71,6.59,30.21,4.34c1.57-0.37,3.15-0.91,4.67-1.56
		C513.89,145.83,499.98,143.97,489.42,149.07z"/>
	<path class="st8" d="M497.21,142.96c4.03,1.52,8.35,2.46,12.65,2.61c7.41,0.22,14.97-1.78,18.9-7.75c-2.38-0.42-5.16,0.29-7.3,0.62
		c-8.07,1.24-16.67,0.68-24.54-1.34c-2.63-0.68-5.94-2.37-9.06-2.86C489.56,138.33,492.66,141.24,497.21,142.96z"/>
	<g>
		<g>
			<path class="st1" d="M180.74,72.38c-3.43-4.02-7.39-6.77-11.7-9.07c0.21-0.41,0.29-0.84,0.04-0.99
				c-2.37-1.47-5.09-2.31-7.96-2.71c-0.68-0.28-1.34-0.56-2.02-0.85c-0.2-0.08-0.52,0.44-0.36,0.55c0.04,0.03,0.09,0.05,0.12,0.08
				c-10.57-0.61-23.07,4.14-31.17,7.84c-12.31,5.62-22.22,14.79-29.46,26.14c-12.82,20.1-23.01,62.3,10.54,67.31
				c27.86,4.16,62.32-8.24,77.87-32.35c6.6-10.21,8.72-23.18,5.72-34.87C190.39,85.64,185.93,78.45,180.74,72.38z"/>
		</g>
		<g>
			<path class="st12" d="M186.98,124.06c-12,24.94-47.14,34.92-72,34.44c-13.94-0.28-24.14-10.47-25.87-24.78
				c-1.64-13.52,4.09-27.85,10.78-39.27c7.25-12.35,18.74-20.57,31.69-26.14c9.85-4.22,22.83-7.01,33.74-4.75
				c7.8,5.32,14.5,11.3,19.63,19.87C192.67,96.28,193.47,110.57,186.98,124.06z"/>
		</g>
		<g>
			<path class="st1" d="M149.51,171.6c0.35-2.34,0.25-4.74-0.56-7.03c-0.25-0.72-0.72-1.28-1.33-1.67c-1-0.92-2.42-1.18-4.39-0.3
				c-5.98-2.65-12.52-5.78-19.06-5.03c-3.1,0.36-6.13,2.72-6.26,5.89c-2.11,8.54,9.04,16.62,16.39,20.41
				c-0.07,0.15-0.13,0.31-0.12,0.38c0.12,0.38,0.25,0.7,0.37,1c0.41,1.58,1.39,2.07,2.65,1.87c1.48-0.08,3.23-1.24,4.9-2.77
				c2.6-2.16,4.98-4.99,5.57-6.38c0.09-0.16,0.14-0.35,0.21-0.52c0.09-0.15,0.18-0.29,0.24-0.41
				C148.8,175.79,149.31,173.76,149.51,171.6z"/>
		</g>
		<path class="st2" d="M126.73,177.73c-4.39-3.69-10.13-11.07-7.34-17.16c2.66-2.93,9.44-1.76,12.53-0.88
			c3.67,1.04,7.15,2.8,10.8,3.9c-0.05,0.08-0.11,0.15-0.16,0.24c-0.05,0.1,0.01,0.16,0.09,0.08c3.22-3.12,5.53,2.74,5.67,4.86
			c0.19,2.67-0.68,6.1-1.73,8.55c-1.6,3.67-8.12,11.64-11.6,5.59c-0.09-0.18-0.28-0.05-0.42,0.14
			C131.86,181.41,129.2,179.81,126.73,177.73z"/>
		<g>
			<path class="st1" d="M71.23,194.1c0.11,0.08,0.25,0.17,0.39,0.26c0.15,0.12,0.29,0.27,0.44,0.39c1.13,0.98,4.52,2.46,7.82,3.23
				c2.18,0.61,4.27,0.87,5.63,0.29c1.22-0.38,1.88-1.26,1.53-2.85c-0.02-0.32-0.04-0.67-0.13-1.05c-0.01-0.08-0.12-0.2-0.25-0.3
				c4.87-6.68,11.25-18.88,5.56-25.58c-1.52-2.8-5.29-3.54-8.23-2.48c-6.19,2.24-10.64,7.96-14.82,13c-2.15,0.08-3.31,0.94-3.8,2.22
				c-0.35,0.62-0.53,1.34-0.45,2.09c0.31,2.41,1.29,4.59,2.65,6.54C68.69,191.71,70.06,193.29,71.23,194.1z"/>
		</g>
		<path class="st2" d="M86.02,193.45c-0.21-0.1-0.42-0.14-0.44,0.07c-0.41,6.96-9.82,2.72-12.86,0.16
			c-2.04-1.72-4.34-4.42-5.37-6.88c-0.82-1.96-1.36-8.24,2.91-6.89c0.12,0.03,0.14-0.04,0.05-0.1c-0.09-0.06-0.17-0.09-0.25-0.15
			c2.77-2.61,5.11-5.74,7.92-8.3c2.38-2.15,7.93-6.24,11.61-4.81c5.23,4.22,3.36,13.39,1.09,18.64
			C89.39,188.15,87.72,190.77,86.02,193.45z"/>
		<g>
			<path class="st1" d="M141.98,202.07c-3.09-14.67-9.36-30.74-17.6-43.09c0.15-3.45-3.53-4.86-7.92-5.11
				c-6.9-0.38-15.97,2.15-22.68,6.07c-4.59,1.96-8.26,5.28-5.44,9.43c-4.45,5.75-5.55,14.33-6.5,21.26
				c-1.22,8.98-0.72,18.44,1.57,27.28c-8.41,8.1,12.21,8.37,16.53,8.11c10.99-0.68,21.85-4.18,31.89-8.54
				c4.51-1.96,10.02-4.39,12.47-8.91C146.3,205.8,146.35,201.6,141.98,202.07z"/>
		</g>
		<path class="st2" d="M101.95,223.48c-3.7,0.38-21.87,1.21-18.44-5.11c0.2,0.7,0.37,1.41,0.57,2.09c0.1,0.34,0.78-0.4,0.74-0.67
			c-2.8-16.66-2.74-34.16,3.82-50.01c0.28,0.35,0.58,0.7,0.95,1.06c0.25,0.26,0.67-0.55,0.64-0.75c-0.25-1.24-0.71-2.39-1.11-3.57
			c-0.83-2.37,1.29-3.6,3.15-4.58c3.15-1.69,6.56-2.62,9.97-3.62c0.08-0.01,0.29-0.31,0.16-0.32c-0.24,0-0.48,0-0.73,0.01
			c10.27-3.14,22.65-4.68,21.08,4.26c-0.11,0.57,0.56,0.03,0.67-0.18c0.35-0.66,0.58-1.26,0.73-1.81
			c2.88,6.79,6.31,13.35,9.11,20.19c3.35,8.14,5.76,16.51,8.43,24.87c0.12,0.37,0.85-0.5,0.78-0.83c-0.07-0.37-0.16-0.75-0.23-1.12
			c0.65,0.49,1.27,0.96,1.75,1.69c1.42,2.17-3.27,5.68-4.59,6.74c-0.82,0.68-1.7,1.29-2.6,1.87c-3.55,1.77-7.59,2.97-10.62,4.08
			C118.41,220.66,110.21,222.63,101.95,223.48z"/>
		<g>
			<path class="st1" d="M112.4,147.09c-3.3-2.6-8.9-1.1-12.3,0.3c-2.34,0.97-5.88,3.25-6.61,5.93c-0.53,1.98,0.78,3.64,1.95,5.38
				c0.56,2.02,0.82,4.08,0.45,6.44c-0.25,1.64-0.32,2.97,0.36,4.51c1.44,3.24,7.09,2.87,9.84,2.51c3.95-0.51,7.3-2.67,9.77-5.69
				c2.03-2.46,1.02-4.79-0.35-7.21C113.19,155.11,116.76,150.48,112.4,147.09z"/>
		</g>
		<path class="st7" d="M113.76,156.91c0.39,1.41,0.88,2.79,1.25,4.31c0.24,0.99,0.46,2.11,0.18,3.12c-0.41,1.39-1.28,2.3-2.39,2.95
			c-0.58,0.48-1.32,0.96-2.27,1.49c-3.62,1.97-8.04,2.74-11.77,0.63c-1.31-0.75-1.51-2.54-1.43-4.47c-0.04-0.5-0.04-1.03,0.02-1.59
			c0.3-2.69,0.01-4.64-1.21-7.14c-1.08-2.23-0.61-3.96,1.16-5.19c2.08-1.85,6.16-2.75,8.45-2.97c3.71-0.36,7.55,1.03,8.02,5.13
			C113.9,154.45,113.82,155.68,113.76,156.91z"/>
		<g>
			<g>
				<path class="st1" d="M171.96,87.49c-2.85,0.06-6.17,1.39-7.59,3.89c-0.12-2.7-0.45-5.36-1.02-7.9
					c-0.05-12.77-11.58-27.31-20.04-35.66c-5.82-5.73-13.23-10.36-20.95-12.98c-8.45-2.86-17.55-3.97-26.45-3.28
					c-5.5,0.42-11.28,1.27-16.62,2.76c-4.75,1.34-9.37,3.18-13.73,5.5c-3.28,1.76-6.48,3.66-9.66,5.57
					c-1.34,0.81-2.58,1.67-3.79,2.55c-7.8,5.49-14.47,12.44-19.06,21.11c-8.98,16.96-11.43,38.43-3.04,55.53
					c-2.73-0.93-5.95-0.02-8.24,2.58c-4.88,5.57-6.07,13.24-2.05,19.64c5.59,8.95,21.89,6.59,24.12-3.4
					c4.25,3.84,9.15,7.14,14.49,9.87c17.32,8.81,36.94,9.07,55.18,3.35c16.87-5.29,32.23-15.83,41.85-30.75
					c1.57-2.45,3.01-5.26,4.27-8.32c4.06,3.08,11.31-1.05,14.78-3.4c5.15-3.52,8.32-9.48,8.39-15.68
					C182.88,92.19,178.16,87.34,171.96,87.49z"/>
			</g>
			<path class="st7" d="M23.2,146.46c-3.66-3.3-4.66-8.59-3.63-13.22c1.21-5.43,6.76-9.04,11.26-7.03c0.81,1.49,1.7,2.94,2.67,4.34
				c2.36,4.26,5.4,8.12,8.97,11.57C41.67,151.57,28.73,151.41,23.2,146.46z"/>
			<path class="st7" d="M149.8,129.65c-10.48,14.14-27.46,22.63-44.27,26.44c-20.33,4.59-45.5-1.34-61.51-15.72
				c-0.05-0.09-0.09-0.15-0.17-0.15c-1.23-1.11-2.38-2.28-3.5-3.49c-3.02-3.3-5.54-7.9-7.48-11.92c-2.07-4.23-3.44-8.74-4.29-13.37
				c-1.7-9.21-1.88-19.05,0.79-28.08c2.69-9.14,7.12-17.88,13.28-25.17c8.06-9.52,20.45-16.01,32.04-20.04
				c3.48-1.21,7.11-2.15,10.73-2.78c8.12-1.41,16.36-1.61,24.55-0.58c23.39,2.94,41.65,22.05,49.14,43.72
				C164.15,95.42,160.16,115.65,149.8,129.65z"/>
			<path class="st7" d="M180.83,99.93c0.59,6.15-3.74,11.24-8.73,14.18c-2.97,1.75-8.75,3.95-11.59,1.1
				c2.56-7.03,4.07-15.1,3.89-22.8c2.41-3.9,7.99-3.59,11.59-1.66C179.27,92.54,180.52,96.48,180.83,99.93z"/>
			<g>
				<path class="st1" d="M28.76,132.15c-4.93,0.24-5.42,6.76-3.72,10.04c0.09,0.18,0.44-0.23,0.39-0.38
					c-0.61-1.94-1.18-5.85,0.98-7.19c1.72-1.08,4.16,0.39,5.55,1.36c1.4,0.96,2.41,2.19,3.22,3.55c-0.49,1.05-0.87,1.91-2.25,2.32
					c-1.65,0.48-3.24,0.02-4.5-1.08c-0.15-0.13-0.49,0.31-0.41,0.46c1.22,1.91,3.12,2.75,5.28,1.91c0.66-0.25,1.84-1.21,2.59-2.27
					c0.68,1.46,1.18,3,1.62,4.55c0.11,0.44,0.8-0.5,0.82-0.7C38.92,139.38,34.77,131.87,28.76,132.15z"/>
			</g>
			<g>
				<path class="st1" d="M168.63,99.44c-1.68,2.78-5.59,11.62-1.74,14.17c0.41,0.27,1.09-0.66,1.04-1.02
					c-0.19-1.82-0.22-3.58-0.02-5.31c0.25,0.73,0.62,1.4,1.18,1.93c2.35,2.22,5.63-1.15,6.89-2.93c0.17-0.23,0.11-0.53-0.17-0.26
					c-1.59,1.58-3.65,2.81-5.46,0.91c-1.17-1.21-1.35-2.77-1.38-4.34c0.08-0.23,0.14-0.45,0.23-0.69c1.4-3.72,4.46-7.94,8.81-5.44
					c0.21,0.11,0.6-0.38,0.44-0.56C174.87,91.7,170.72,96,168.63,99.44z"/>
			</g>
		</g>
		<g>
			<g>
				<path class="st1" d="M75.6,117.87c0.68,3.3-1.43,6.51-4.71,7.2c-3.27,0.68-6.5-1.43-7.18-4.72c-0.68-3.29,1.43-6.51,4.71-7.19
					C71.7,112.49,74.93,114.59,75.6,117.87z"/>
			</g>
			<path class="st8" d="M69.28,115.97c0.23,1.13-0.5,2.26-1.64,2.5c-1.16,0.24-2.27-0.5-2.51-1.64c-0.24-1.16,0.49-2.27,1.65-2.51
				C67.92,114.08,69.03,114.82,69.28,115.97z"/>
		</g>
		<g>
			<path class="st1" d="M60.86,100.53c-1.6,1.35-2.63,2.81-3.12,4.84c-0.22,0.89-0.67,3.06,0.43,3.42c0.13,0.04,0.34-0.26,0.34-0.38
				c-0.06-1.06,0.28-1.97,0.67-2.94c1.11-2.7,2.42-4.04,5.37-3.99c2.62,0.05,4.82,1.41,6.73,3.07c0.2,0.18,0.74-0.48,0.61-0.68
				C69.27,100.06,65.15,96.86,60.86,100.53z"/>
		</g>
		<g>
			<g>
				<path class="st1" d="M123.67,107.14c0.01,3.36-2.72,6.08-6.07,6.09c-3.35,0.01-6.09-2.72-6.08-6.07
					c-0.01-3.35,2.7-6.08,6.07-6.08C120.95,101.07,123.66,103.78,123.67,107.14z"/>
			</g>
			<path class="st8" d="M117.87,103.99c0,1.16-0.96,2.12-2.12,2.12c-1.18,0-2.13-0.95-2.12-2.12c-0.01-1.16,0.94-2.11,2.1-2.11
				C116.91,101.87,117.85,102.81,117.87,103.99z"/>
		</g>
		<g>
			<path class="st1" d="M112.74,87.16c-1.82,1-3.14,2.22-4.04,4.12c-0.38,0.83-1.26,2.85-0.27,3.42c0.12,0.08,0.4-0.18,0.42-0.3
				c0.16-1.04,0.67-1.88,1.24-2.74c1.64-2.42,3.19-3.47,6.08-2.83c2.55,0.57,4.43,2.38,5.96,4.36c0.16,0.23,0.83-0.31,0.72-0.52
				C121.07,88.4,117.69,84.43,112.74,87.16z"/>
		</g>
		<g>
			<path class="st1" d="M158.5,35.78c-7.6-9.33-17.48-16.49-29.24-19.47c-1.87-0.48-5.4-1.35-8.63-1.52
				c-9.44-5.55-24.36-5.86-33.32-4.77c-18.23,2.21-34.71,8.93-48.57,21.01c-10.71,9.34-20.45,22.16-24.29,36.01
				c-2.13,7.67-2.74,15.28-1.81,23.21c0.68,5.91,1.99,14.76,6.1,19.38c0.22,1.65,0.61,3.31,1.18,5.03
				c1.61,4.79,6.79,12.77,12.21,13.84c0.67,0.13,1.42-1.05,1.5-1.58c0.67-4.05-1.5-8.82-1.71-13.03c-0.38-7,1.17-13.14,3.42-19.42
				c-0.3,4.39,1.25,9.33,6.56,6.53c7.69-4.08,17.06-12.37,22.22-21.17c-1.8,6.12-2.47,11.87,1.73,10.91
				c5.78-1.33,11.14-6.25,15.28-10.24c3.59-3.46,8.08-7.86,10.85-12.55c-1.23,3.6-2.49,7.18-3.22,10.88
				c-0.69,3.46,2.53,2.32,4.19,1.11c2.84-2.1,5.46-4.73,7.73-7.44c1.85-2.2,4.35-5.37,5.58-8.64c0.73,1.19,1.55,2.36,2.55,3.52
				c2.19,2.6,4.98,4.81,7.64,6.92c0.9,0.72,3.54,3.16,4.93,2.77c1.98-0.56,2.6-2.69,2.12-4.44c-0.61-2.26-1.91-4.46-2.74-6.63
				c-0.41-1.07-0.8-2.12-1.22-3.15c3.58,2.33,6.94,5.21,9.81,7.76c3.48,3.08,6.74,6.45,9.5,10.21c0.54,0.75,1.61,3.03,2.68,3.14
				c4.61,0.42,2.29-11.17,0.32-18.36c8.73,10.27,18.41,21.52,20.02,35.22c0.11,0.94,1.16-0.09,1.41-0.38
				c2.61-3.17,4.56-7.13,5.8-11.38C175.9,71.37,170.04,49.98,158.5,35.78z"/>
		</g>
		<path class="st13" d="M166.63,89.67c-0.08,0.12-0.15,0.2-0.23,0.26c-0.35,1.27-0.72,2.55-1.18,3.88c-1.32,3.8-1.2,5.35-1.92,0.65
			c-0.39-2.51-1.6-4.99-2.59-7.3c-3.62-8.47-10.74-20.82-19.82-24.77c0,0,0-0.02,0-0.02c-0.26-0.06-0.52-0.1-0.77-0.13
			c-0.02,1.01-0.05,2.02-0.09,3.03c1.21,5,2.08,10.08,2.09,15.24c0,2.05-0.91-0.78-1.45-1.6c-1.2-1.83-2.53-3.5-3.95-5.15
			c-4.11-4.74-10.09-10.12-16.51-13.08c-1.21-0.33-2.41-0.47-3.53-0.19c-0.01,0.17,0,0.33,0.01,0.48c0,0.51,0.03,1.04,0.05,1.58
			c0.72,2.48,1.58,4.91,2.39,7.37c0.27,0.83,0.89,2.03,1.37,3.23c-3.3-2.05-8.89-7.42-9.81-8.28c-1.43-1.34-2.59-2.86-3.71-4.41
			c0.01-0.05,0-0.11-0.01-0.17c-0.39-0.36-0.77-0.7-1.17-1c-0.37,0.58-0.76,1.17-1.12,1.77c0.04,0.06,0.07,0.13,0.09,0.19
			c-2.01,6.33-6.1,11.54-11.29,15.67c-2.05,1.62-2.07-0.15-1.43-1.98c0.58-1.65,0.87-3.41,1.26-5.1c0.62-2.8,1.39-5.5,1.36-8.34
			c-1.02,2.67-2.74,5.17-4.82,7.2c-5.08,7.22-13.06,13.72-20.03,17.85c-6.65,3.92-4.44-4.9-3.98-7.55c0.19-1.06,0.45-2.1,0.71-3.11
			c-0.04-1.14,0.04-2.31,0.21-3.48c-0.58,0.62-1.15,1.25-1.74,1.88c-4.98,9.45-12.46,17.93-21.33,23.84c-7.15,4.76-7-3.33-6.01-9.09
			c-0.63,0.55-1.23,1.14-1.84,1.75c-0.01,0.04-0.02,0.07-0.02,0.11c-2.98,4.52-4.62,9.95-5.18,15.32
			c-0.37,3.78-0.44,7.45-0.23,11.25c0.13,2.35,1.28,5.6,1.53,8.3c-5.61-2.73-10.19-9.7-11.62-16.49c0.05-0.09,0.12-0.18,0.15-0.26
			c-0.16-0.61-0.34-1.21-0.45-1.83c-0.02-0.03-0.04-0.05-0.04-0.08c-0.01-0.09-0.01-0.18-0.03-0.27c-0.28-1.44-0.48-2.9-0.58-4.38
			c-0.26,0.74-0.45,1.47-0.59,2.22c-4.46-10.36-4.73-24.35-2.75-34.76c2.97-15.67,14.35-29.08,26.34-38.94
			C60.19,16.26,88.94,8.09,112.34,14.7c2.87,0.16,5.5,1.28,8.07,2.59c6.81,0.4,12.26,1.86,17.82,6.32c0.22,0.17,0.45,0.34,0.68,0.52
			c5.77,3.46,10.87,7.97,15.61,12.86c7.78,8.06,12.38,17.54,14.03,27.55C171.04,72.52,170.2,82.62,166.63,89.67z"/>
		<g>
			<g>
				<path class="st1" d="M173.23,56.55c-1.88-4.99-4.34-9.74-7.12-14.29c-7.8-12.75-19.55-23.16-32.91-29.75
					C119.32,5.65,100.84,5.1,85.8,7.06c-10.73,1.4-21.6,5.45-31.36,10.78c-0.88,0.39-1.76,0.81-2.6,1.22
					c-12.28,5.96-22.85,15.26-30.95,26.16c-7.3,9.81-10.8,20.5-11.34,32.62c-0.34,7.4,0.24,14.78,1.64,22.03
					c0.66,3.36,1.79,6.56,3.09,9.73c0.05,0.14,0.14,0.27,0.19,0.39c0.07,0.04,0.14,0.07,0.22,0.09c0.92,1.46,2.31,2.11,4.02,0.27
					c1.29-1.39,0.87-3.31,0.89-5.02c0.06-3.56,1.19-6.64,2.02-9.98c11.17-23.81,45.52-34.17,69.47-38.67
					c15.21-2.86,30.42-4.51,45.76-1.82c7.86,1.38,16.12,3.26,23.26,6.85c2.72,1.36,5.15,3.81,7.32,5.87
					c1.12,1.09,2.27,2.21,3.19,3.48c0.42,0.58,0.9,1,1.36,1.24c1.45,0.75,2.92-0.05,3.71-1.34c1.2-1.96,0.32-4.45-0.12-6.53
					C175.01,61.75,174.21,59.12,173.23,56.55z"/>
			</g>
			<path class="st14" d="M173.97,67.72c0.11,0.87-0.85,1.24-1.45,0.71c-6.78-6.06-12.45-10.5-21.34-13
				c-5.16-1.45-10.45-2.35-15.71-3.28c-18.92-3.34-39.33,0.88-57.73,5.17c-16.85,3.94-33.75,10.79-46.49,22.79
				c-4.71,4.44-8.31,9.98-11.03,15.8c-0.97,2.09-2.72,6.6-3.51,10.88c-0.31-0.58-0.59-1.18-0.84-1.78
				c-2.35-5.74-3.14-12.13-3.62-18.24c-1.11-13.98,0.94-26.87,8.57-38.8c7.88-12.31,19.99-21.3,32.94-27.68
				c7.64-3.76,17.09-7.74,26.18-9.92c16.16-3.12,32.91-2.34,48.94,3.35c12.2,4.33,24.16,15.2,32.13,25.08
				c5.25,6.51,9.26,15.01,11.74,24.43C173.31,64.69,173.75,66.18,173.97,67.72z"/>
			<g>
				<path class="st12" d="M45.54,31.88c2.25-4.5,5.28-8.43,8.79-11.85c-0.19,0.09-0.39,0.18-0.58,0.28
					C40.8,26.68,28.69,35.67,20.82,47.98c-7.63,11.93-9.68,24.82-8.57,38.8c0.49,6.11,1.27,12.5,3.62,18.24
					c0.25,0.6,0.53,1.19,0.84,1.78c0.79-4.28,2.53-8.79,3.51-10.88c2.72-5.82,6.32-11.36,11.03-15.8
					c4.39-4.14,9.29-7.66,14.49-10.66C42.49,56.94,39.5,43.98,45.54,31.88z"/>
			</g>
			<g>
				<path class="st12" d="M172.74,63.25c-2.48-9.42-6.48-17.92-11.74-24.43c-7.97-9.88-19.94-20.75-32.13-25.08
					c-7.06-2.51-14.27-4.06-21.5-4.75c7.06,3.17,13.17,8.1,17.34,15.43c4.8,8.48,6.53,17.9,8.25,27.35
					c0.85,0.13,1.67,0.24,2.51,0.39c5.26,0.93,10.55,1.83,15.71,3.28c8.88,2.5,14.56,6.94,21.34,13c0.6,0.53,1.57,0.16,1.45-0.71
					C173.75,66.18,173.31,64.69,172.74,63.25z"/>
			</g>
		</g>
		<path class="st8" d="M80.32,142.97c0,0,15.15-1.85,26.12-6.01c10.5-3.98,17.6-9.48,17.6-9.48s4.11,11.54-1.36,15.38
			C117.21,146.7,80.47,158.66,80.32,142.97z"/>
		<path class="st10" d="M124.04,127.48c0,0-0.34,0.26-1.01,0.72c-0.12,0.67-0.26,1.34-0.4,2.02c-0.05,2-0.54,4.01-1.85,4.86
			c0,0,0,0-0.01,0.02c-0.01,0.02-0.01,0.03-0.03,0.04c-0.15,0.25-0.38,0.34-0.62,0.33c-0.22,0.14-0.44,0.25-0.66,0.38
			c1.88,1.29,2.23,4.56,2.34,7.52c0.32-0.18,0.63-0.34,0.88-0.52C128.15,139.03,124.04,127.48,124.04,127.48z"/>
		<g>
			<path class="st15" d="M95.49,144.64c0,0,25.77-7.63,26.62-9.74c0.83-2.11,0.69-3.69,0.69-3.69s-0.25,1.97-1.6,3.37
				C119.24,136.63,95.49,144.64,95.49,144.64z"/>
			<path class="st15" d="M121.79,141.9c0,0,0.59-4.35-1.44-5.79l-1.35,0.62C119,136.73,120.95,137.23,121.79,141.9z"/>
		</g>
		<g>
			<path class="st1" d="M54.89,58.16c0,0,25.17-13.88,57.21-14.16c0,0-5.65-24.86-32.27-20.04C53.19,28.77,51.18,52.51,54.89,58.16z
				"/>
		</g>
		<path class="st13" d="M56.55,55.12c0,0,22.96-12.17,51.98-12.87c0,0-4.77-21.11-28.94-16.63C55.41,30.11,53.26,50.37,56.55,55.12z
			"/>
	</g>
	<g>
		<g>
			<path class="st3" d="M114.43,350.73c-2.91,0-5.73-0.91-8.15-2.65c-3.01-2.15-4.94-5.34-5.44-8.99
				c-3.73-21.29-9.17-58.88-16.18-111.74c-0.35-3.03,0.37-6.1,2.12-9.28l0.41-0.73l0.55-0.63c2.4-2.75,5.54-4.41,9.06-4.82
				l65.57-8.25c0.6-0.07,1.12-0.1,1.65-0.1c2.62,0,5.29,0.74,7.92,2.19l0.98,0.54l0.79,0.8c3.52,3.56,4.27,7.19,4.18,9.87l0.9,10.68
				c0.38,3.23-0.55,6.59-2.71,9.46c-2.02,2.68-4.8,4.53-8.06,5.38l-0.49,0.13l-29.33,3.65l1.55,8.98l17.37-2.72
				c1.02-0.27,2.06-0.41,3.1-0.41c1.93,0,4.76,0.49,7.63,2.74c3.24,2.13,5.27,5.42,5.72,9.32l1.99,14.28
				c0.35,3.09-0.37,6.17-2.13,9.35l-0.4,0.72l-0.54,0.62c-2.4,2.75-5.54,4.42-9.07,4.83l-15.85,1.82c0.33,1.52,0.64,3.01,0.93,4.48
				c0.85,4.23,1.44,7.37,1.8,9.41c0.35,2.06,0.94,5.84,1.75,11.37c0.78,5.31,1.32,8.8,1.63,10.47l0.05,0.25l0.03,0.25
				c0.54,4.7-0.91,7.93-2.23,9.81l-0.22,0.32l-0.25,0.3c-3.3,3.82-6.94,4.96-9.41,5.25l-25.53,2.94
				C115.53,350.69,114.97,350.73,114.43,350.73z"/>
			<path class="st1" d="M164.03,211.3c1.3,0,2.69,0.41,4.17,1.23c1.45,1.47,2.09,2.97,1.92,4.5l0.94,11.26
				c0.17,1.5-0.22,2.88-1.18,4.16c-0.96,1.28-2.23,2.12-3.82,2.54l-36.88,4.59l4.22,24.51l25.42-3.97c0.47-0.16,0.94-0.24,1.4-0.24
				c1.07,0,2.1,0.43,3.1,1.3c1.5,0.88,2.35,2.18,2.55,3.9l2.01,14.45c0.15,1.27-0.26,2.77-1.23,4.51c-1.13,1.3-2.51,2.04-4.12,2.22
				l-24.5,2.82c1.08,4.31,2.03,8.54,2.86,12.7c0.83,4.16,1.42,7.24,1.76,9.24c0.34,2,0.92,5.72,1.72,11.16
				c0.8,5.45,1.36,9.02,1.67,10.73c0.21,1.84-0.08,3.33-0.88,4.47c-1.34,1.55-2.81,2.42-4.42,2.61l-25.54,2.94
				c-0.26,0.03-0.52,0.05-0.78,0.05c-1.31,0-2.52-0.4-3.64-1.2c-1.33-0.95-2.09-2.23-2.28-3.85c-3.73-21.25-9.12-58.45-16.17-111.6
				c-0.15-1.27,0.26-2.77,1.23-4.51c1.13-1.29,2.5-2.04,4.12-2.22l65.66-8.26C163.57,211.31,163.8,211.3,164.03,211.3
				 M164.03,195.79c-0.82,0-1.65,0.05-2.46,0.14l-0.08,0.01l-0.08,0.01l-65.6,8.25c-5.43,0.65-10.24,3.21-13.91,7.4l-1.1,1.25
				L80,214.32c-2.55,4.62-3.58,9.26-3.06,13.78l0.02,0.13l0.02,0.13c7.01,52.85,12.46,90.5,16.21,111.92
				c0.82,5.72,3.85,10.71,8.59,14.1c3.73,2.67,8.11,4.09,12.66,4.09c0.84,0,1.7-0.05,2.55-0.15l25.54-2.94
				c3.84-0.44,9.46-2.17,14.39-7.88l0.52-0.6l0.45-0.65c2.08-2.98,4.39-8.02,3.58-15.13l-0.06-0.51l-0.09-0.51
				c-0.16-0.88-0.58-3.36-1.58-10.2c-0.78-5.3-1.4-9.29-1.78-11.53c-0.26-1.51-0.63-3.47-1.1-5.87l7.46-0.86
				c5.48-0.63,10.33-3.2,14.02-7.43l1.09-1.24l0.8-1.44c2.56-4.62,3.59-9.26,3.07-13.8l-0.02-0.18l-0.03-0.18l-1.99-14.33
				c-0.72-5.71-3.69-10.72-8.27-14.08c3.69-1.52,6.86-3.98,9.3-7.21c3.27-4.36,4.77-9.65,4.24-14.95l-0.85-10.11
				c0.06-5.51-2.18-10.8-6.43-15.09l-1.57-1.59l-1.96-1.08C171.9,196.86,167.97,195.79,164.03,195.79L164.03,195.79z"/>
		</g>
		<g>
			<path class="st4" d="M262.97,350.4c-0.54,0-1.08-0.03-1.63-0.09l-0.5-0.07c-5.85-1.06-11.38-2.76-16.42-5.04
				c-5.12-2.31-9.48-4.99-12.95-7.95c-2.85-2.43-5.44-5.03-7.73-7.76l-0.25,2.72c-0.45,3.89-2.13,7.06-4.88,9.36
				c-2.61,2.17-5.91,3.33-9.54,3.37l-0.37,0l-24.43-2.1c-3.82-0.44-6.92-2.06-9.2-4.73c-2.84-2.94-4.15-6.71-3.7-10.67l11.18-112.41
				c0.42-3.72,2.1-6.84,4.86-9.14c2.54-2.12,5.63-3.24,8.93-3.24l0.64,0.01c40.25,1.48,65.86,11.4,78.25,30.31
				c7.9,12.22,8.85,25.62,2.85,39.85c-4.39,10.74-11.42,18.75-20.85,23.71c-0.87,0.47-1.74,0.89-2.63,1.27
				c0.13,0.05,0.27,0.09,0.41,0.13c2.1,0.56,4.05,0.86,5.79,0.88l0.42,0c1.71,0,3.55-0.19,5.47-0.57c0.86-0.16,1.63-0.23,2.39-0.23
				c3.31,0,6.42,1.38,8.75,3.89c2.62,2.83,3.82,6.5,3.37,10.33l-4.4,27.31l-0.24,0.66c-0.96,2.7-2.55,5.04-4.71,6.95l-0.28,0.25
				l-0.31,0.22C268.79,349.45,265.92,350.4,262.97,350.4z M231.39,260.56c0.32-0.15,0.63-0.31,0.93-0.48
				c0.74-0.41,1.96-1.29,3.54-3.16c1.02-1.21,1.68-2.6,2-4.26c0.16-0.84,0.28-2-0.09-2.73c-0.42-0.83-0.81-1.11-1.15-1.28
				c-1.2-0.59-2.44-1.1-3.7-1.51L231.39,260.56z"/>
			<path class="st1" d="M196.35,210.41c0.1,0,0.2,0,0.31,0.01c37.25,1.37,61.28,10.31,72.09,26.82c6.43,9.95,7.16,20.81,2.2,32.59
				c-3.73,9.13-9.5,15.75-17.32,19.86c-3.23,1.75-6.45,2.63-9.66,2.63c-0.49,0-0.98-0.02-1.47-0.06c0.63,3.69,1.86,6.63,3.71,8.82
				c1.85,2.2,4.13,3.65,6.84,4.37c2.72,0.72,5.26,1.1,7.65,1.14c0.18,0,0.36,0,0.54,0c2.22,0,4.54-0.24,6.97-0.71
				c0.3-0.06,0.6-0.08,0.89-0.08c1.17,0,2.19,0.47,3.07,1.41c1.09,1.17,1.54,2.57,1.36,4.18l-4.24,26.26
				c-0.52,1.46-1.36,2.7-2.53,3.73c-1.18,0.85-2.44,1.27-3.77,1.27c-0.25,0-0.49-0.01-0.74-0.04c-5.25-0.95-10.12-2.44-14.61-4.48
				c-4.49-2.03-8.19-4.29-11.11-6.78c-2.92-2.49-5.5-5.15-7.74-7.97c-2.24-2.82-3.97-5.53-5.19-8.11c-1.22-2.59-2.23-4.95-3.03-7.08
				c-0.8-2.13-1.31-3.79-1.52-4.98l-0.47-1.98l-2.78,30.28c-0.2,1.73-0.91,3.1-2.14,4.12c-1.23,1.03-2.77,1.55-4.64,1.56
				l-24.06-2.07c-1.72-0.2-3.1-0.94-4.12-2.22c-1.36-1.32-1.94-2.85-1.75-4.57l11.19-112.52c0.19-1.61,0.89-2.93,2.11-3.95
				C193.53,210.89,194.85,210.41,196.35,210.41 M222.42,270.72c0.59-0.05,1.32-0.11,2.21-0.18c0.88-0.07,2.53-0.44,4.93-1.09
				c2.4-0.66,4.57-1.51,6.5-2.57c1.93-1.06,3.83-2.71,5.72-4.94c1.89-2.23,3.12-4.83,3.69-7.79c0.57-2.96,0.31-5.53-0.78-7.69
				c-1.09-2.16-2.63-3.74-4.61-4.73c-1.98-0.98-4.02-1.77-6.11-2.36c-2.09-0.59-3.88-0.97-5.37-1.14l-2.44-0.11L222.42,270.72
				 M196.35,194.91c-5.15,0-9.96,1.74-13.91,5.04c-4.25,3.56-6.94,8.56-7.58,14.08l-0.01,0.12l-0.01,0.12l-11.18,112.44
				c-0.65,6.1,1.41,12.09,5.68,16.62c3.52,4.03,8.39,6.57,13.83,7.19l0.22,0.03l0.22,0.02l24.06,2.07l0.73,0.06l0.74-0.01
				c5.45-0.05,10.44-1.84,14.43-5.17c1.35-1.13,2.54-2.4,3.56-3.8c3.89,3.19,8.63,6.07,14.1,8.54c5.6,2.54,11.74,4.43,18.22,5.6
				l0.5,0.09l0.5,0.06c0.84,0.1,1.68,0.14,2.52,0.14c4.58,0,9.01-1.45,12.82-4.19l0.62-0.45l0.58-0.51
				c3.16-2.79,5.47-6.2,6.88-10.16l0.47-1.33l0.23-1.39l4.24-26.26l0.06-0.35l0.04-0.35c0.7-6.12-1.21-11.98-5.39-16.49
				c-2.2-2.37-4.82-4.12-7.71-5.19c3.83-4.48,6.99-9.73,9.44-15.71c6.92-16.48,5.71-32.71-3.49-46.96
				c-13.91-21.25-41.55-32.31-84.54-33.9C196.99,194.91,196.67,194.91,196.35,194.91L196.35,194.91z"/>
		</g>
		<g>
			<g>
				<path class="st0" d="M438.78,371.54c-0.88,0-1.79-0.12-2.71-0.35l-0.6-0.15l-3.86-1.83c-1.81-0.92-3.15-2.35-4.22-4.44
					c-1.4-2.57-1.42-5.59-0.06-8.3l0.03-0.06c-1.27-0.78-2.46-1.73-3.57-2.84c-3.34-3.34-5.11-7.56-5.11-12.2
					c0-4.94,1.78-9.38,5.15-12.84c3.41-3.5,7.92-5.35,13.04-5.35c4.86,0,9.26,1.83,12.72,5.29c3.46,3.47,5.29,7.87,5.29,12.72
					c0,6.86-2.56,15.12-7.82,25.26C445.31,369.73,442.3,371.54,438.78,371.54z"/>
				<path class="st1" d="M436.87,329.4c3.24,0,6.02,1.16,8.33,3.47c2.31,2.32,3.47,5.1,3.47,8.34c0,5.79-2.37,13.26-7.12,22.4
					c-0.62,1.15-1.55,1.72-2.78,1.72c-0.38,0-0.78-0.05-1.22-0.16l-3.3-1.56c-0.46-0.23-0.93-0.81-1.39-1.74
					c-0.47-0.81-0.47-1.68,0-2.61l3.13-6.43c-3.01-0.23-5.62-1.45-7.82-3.65c-2.2-2.2-3.3-4.8-3.3-7.81c0-3.36,1.13-6.19,3.39-8.51
					C430.53,330.56,433.4,329.4,436.87,329.4 M436.87,316.99c-6.83,0-12.88,2.5-17.48,7.22c-4.52,4.64-6.91,10.58-6.91,17.17
					c0,6.32,2.4,12.06,6.93,16.59c0.27,0.27,0.54,0.53,0.81,0.78c-0.39,3.05,0.17,6.13,1.68,8.92c1.66,3.22,3.93,5.57,6.75,7
					l0.15,0.07l0.15,0.07l3.3,1.56l1.12,0.53l1.2,0.3c1.41,0.35,2.83,0.53,4.21,0.53c5.79,0,10.91-3.08,13.69-8.23l0.05-0.09
					l0.05-0.09c5.73-11.04,8.51-20.24,8.51-28.12c0-6.54-2.46-12.45-7.1-17.1C449.32,319.45,443.41,316.99,436.87,316.99
					L436.87,316.99z"/>
			</g>
		</g>
		<g>
			<path class="st16" d="M354.94,352.02c-3.34,0-6.46-1.15-9.01-3.32c-2.6-2.21-4.25-5.23-4.74-8.73l-1.4-9.09l-11.19,0.08
				l-1.37,7.51l-0.13,0.44c-0.91,2.95-2.51,5.4-4.76,7.3c-2.27,1.92-5.04,2.93-8.02,2.93c-0.5,0-1.01-0.03-1.54-0.09
				c0,0-26.75-1.03-26.75-1.03c-4.38,0-8.3-2.07-10.79-5.83c-2.53-3.63-3.1-7.81-1.64-11.83l32.19-112.22l0.22-0.48
				c2.51-5.7,7.37-8.97,13.35-8.97l33.35,0.35l0.45,0.06c2,0.25,3.92,0.92,5.71,2c1.82,1.1,3.32,2.49,4.47,4.14
				c1.24,1.81,2,3.81,2.27,5.98c4.05,26.2,13.64,63.54,28.46,110.78c1.46,3.94,0.95,8.21-1.44,12.04l-0.32,0.48
				c-2.67,3.63-6.43,5.67-10.63,5.77l-26.46,1.74H354.94z"/>
			<path class="st1" d="M319.34,216.44l32.82,0.35c0.92,0.12,1.82,0.43,2.69,0.96c0.87,0.52,1.56,1.16,2.08,1.91
				c0.52,0.76,0.84,1.59,0.95,2.52c4.17,26.98,13.78,64.44,28.83,112.37c0.7,1.74,0.46,3.53-0.69,5.38c-1.28,1.74-2.84,2.6-4.69,2.6
				l-26.4,1.74c-1.51,0-2.84-0.49-3.99-1.48c-1.16-0.98-1.85-2.29-2.08-3.91l-2.43-15.81l-24.31,0.17l-2.43,13.37
				c-0.46,1.51-1.24,2.72-2.34,3.65c-0.88,0.74-1.89,1.11-3.03,1.11c-0.29,0-0.58-0.02-0.88-0.07l-27.09-1.04
				c-2.08,0-3.65-0.81-4.69-2.43c-1.16-1.62-1.39-3.3-0.69-5.04l32.13-112.02C314.36,217.89,316.44,216.44,319.34,216.44
				 M326.46,301.37c3.24-0.23,8.8-0.35,16.67-0.35l-7.64-48.11L326.46,301.37 M319.42,200.93h-0.08c-9.05,0-16.69,5.08-20.44,13.59
				l-0.43,0.97l-0.29,1.01L266.2,328c-2.18,6.27-1.24,12.96,2.61,18.55c3.85,5.77,10.06,9.11,17.14,9.23l26.26,1.01
				c0.7,0.07,1.4,0.11,2.1,0.11c4.83,0,9.33-1.65,13.03-4.77c2.87-2.41,5.1-5.54,6.52-9.12c1.05,4.59,3.47,8.58,7.05,11.62
				c3.97,3.37,8.82,5.16,14.03,5.16h0.51l0.51-0.03l26.06-1.71c6.5-0.21,12.49-3.44,16.51-8.92l0.34-0.47l0.31-0.49
				c3.61-5.78,4.41-12.53,2.22-18.64c-14.65-46.69-24.12-83.55-28.15-109.55c-0.46-3.3-1.65-6.37-3.54-9.11
				c-1.8-2.6-4.1-4.74-6.86-6.4c-2.74-1.64-5.67-2.66-8.74-3.05l-0.89-0.11l-0.89-0.01l-32.82-0.35L319.42,200.93L319.42,200.93z"/>
		</g>
		<g>
			<path class="st0" d="M424.44,347.7c-3.42,0-6.55-1.14-9.06-3.29c-2.81-2.41-4.45-5.75-4.75-9.67L404.88,259l-19.28,1.47
				c-0.35,0.03-0.69,0.04-1.04,0.04c-2.8,0-5.62-0.85-8.38-2.52l-1.21-0.73l-0.87-1.12c-1.99-2.54-3.11-5.38-3.34-8.43l-1.07-23.31
				c-0.27-3.53,0.94-7.01,3.49-9.84c2.47-2.73,5.73-4.32,9.46-4.61l91.69-9.75c0.58-0.05,0.92-0.06,1.27-0.06
				c2.79,0,5.6,0.84,8.37,2.51l0.56,0.34l0.5,0.43c2.8,2.42,4.44,5.7,4.72,9.49l1.95,25.62c0.28,3.68-0.88,7.15-3.36,10.03
				c-2.46,2.87-5.71,4.53-9.39,4.81l-21.55,1.64l7.25,74.88c0.86,3.85-0.13,7.66-2.83,10.81c-2.53,2.94-5.8,4.64-9.48,4.92
				l-26.67,2.03C425.24,347.68,424.84,347.7,424.44,347.7z"/>
			<path class="st1" d="M475.58,207.9c1.37,0,2.82,0.47,4.36,1.39c1.24,1.07,1.93,2.47,2.06,4.2l1.95,25.63
				c0.12,1.62-0.38,3.08-1.5,4.38c-1.12,1.3-2.49,2.02-4.11,2.14l-29.44,2.24l8.07,83.34c0.47,1.59,0.12,3.07-1.05,4.43
				c-1.17,1.37-2.57,2.11-4.19,2.23l-26.67,2.03c-0.22,0.02-0.43,0.02-0.63,0.02c-1.57,0-2.9-0.47-4-1.41
				c-1.24-1.06-1.93-2.52-2.07-4.37l-6.34-83.47l-27.02,2.05c-0.15,0.01-0.3,0.02-0.45,0.02c-1.37,0-2.82-0.46-4.35-1.39
				c-1.03-1.32-1.6-2.72-1.72-4.23l-1.06-23.08c-0.12-1.62,0.38-3.05,1.51-4.3c1.12-1.24,2.55-1.94,4.28-2.07l91.92-9.77
				C475.28,207.91,475.43,207.9,475.58,207.9 M475.58,192.39c-0.54,0-1.09,0.02-1.62,0.06l-0.23,0.02l-0.23,0.02l-91.75,9.75
				c-5.54,0.49-10.62,3.01-14.32,7.11c-3.9,4.32-5.83,9.83-5.48,15.56l1.05,22.92l0.01,0.23l0.02,0.23
				c0.34,4.54,2.06,8.89,4.96,12.6l1.75,2.24l2.43,1.47c3.98,2.41,8.15,3.64,12.39,3.64c0.55,0,1.09-0.02,1.63-0.06l11.55-0.88
				l5.17,68.01c0.45,5.92,3.09,11.24,7.44,14.97c3.91,3.37,8.79,5.15,14.1,5.15c0.59,0,1.19-0.02,1.81-0.07l26.67-2.03
				c5.69-0.43,10.94-3.13,14.78-7.59c4.17-4.86,5.81-10.97,4.63-17.03l-6.45-66.59l13.65-1.04c5.7-0.43,10.92-3.1,14.7-7.51
				c3.78-4.39,5.62-9.95,5.19-15.65l-1.95-25.63c-0.44-5.79-3.07-11.04-7.41-14.78l-0.99-0.85l-1.12-0.67
				C483.97,193.61,479.81,192.39,475.58,192.39L475.58,192.39z"/>
		</g>
		<g>
			<path class="st2" d="M530.99,343.05l-26.71-1.44c-3.62-0.2-6.86-1.71-9.38-4.39c-2.61-2.76-3.89-6.34-3.67-10.34l6.26-116.02
				c0.2-3.89,1.91-7.26,4.84-9.59c2.34-2.37,5.56-3.65,9.19-3.65c0.29,0,1.08,0.03,1.08,0.03l23.91,2.51
				c3.58,0.25,6.72,1.77,9.09,4.4c2.44,2.73,3.61,6.1,3.41,9.78l-3.26,115.29c-0.21,3.82-1.77,7.12-4.43,9.54
				c-2.37,2.53-5.68,3.92-9.44,3.92C531.58,343.07,531.29,343.07,530.99,343.05z"/>
			<path class="st1" d="M511.52,205.37c0.15,0,0.3,0,0.46,0.01l23.87,2.51c1.62,0.09,2.95,0.71,3.99,1.87
				c1.04,1.16,1.51,2.55,1.43,4.17l-3.27,115.49c-0.09,1.73-0.81,3.15-2.14,4.23c-0.91,1.13-2.24,1.69-3.98,1.69
				c-0.15,0-0.3,0-0.46-0.01l-26.71-1.44c-1.62-0.09-3.01-0.74-4.16-1.96c-1.15-1.22-1.68-2.76-1.58-4.61l6.26-116.02
				c0.1-1.85,0.87-3.26,2.31-4.22C508.46,205.93,509.79,205.37,511.52,205.37 M511.52,189.86L511.52,189.86
				c-5.61,0-10.64,2-14.42,5.67c-4.39,3.68-7.04,9-7.36,14.91l-6.26,116.02c-0.33,6.08,1.73,11.8,5.8,16.1
				c3.83,4.07,9.02,6.49,14.59,6.79l26.71,1.44c0.44,0.02,0.87,0.04,1.3,0.04c5.85,0,11.07-2.17,14.9-6.15
				c4.04-3.77,6.4-8.84,6.71-14.44l0.01-0.2l0.01-0.2l3.27-115.35c0.24-5.59-1.66-10.93-5.35-15.07c-3.71-4.12-8.73-6.57-14.22-6.99
				l-23.59-2.48l-0.39-0.04l-0.39-0.02C512.38,189.87,511.95,189.86,511.52,189.86L511.52,189.86z"/>
		</g>
	</g>
	<g>
		<g>
			<path class="st1" d="M143.73,166.55c0.57-0.42,1.17-0.77,1.75-0.97c-1.14,0.34-2.35,0.79-3.51,1.34
				c-1.72,1.57-3.33,3.79-4.07,4.87c-1.07,1.49-2.96,4.65-3.21,7.15c-0.18,0.04-0.39,0.08-0.58,0.14c-2.82-0.47-6.32,0.94-8.5,2.09
				c-2.79,1.47-4.81,3.69-6.38,6.25c-8.14,0.26-16.17,0.78-24.35,2.03c-0.36,0.06-0.71,0.12-1.07,0.18
				c-1.8-1.82-3.68-2.91-6.32-3.24c-1.31-0.15-2.98-0.04-4.48,0.38c-0.59-0.1-1.17,0.14-1.73,0.47c-0.37-0.33-0.76-0.64-1.16-0.95
				c-3.13-1.27-7.68-3.94-11.1-2.5c1.44,0.28,2.79,0.68,4.05,1.22c-5.37,6.85-3.35,23.83,5.54,25.88
				c13.88,3.21,31.68-2.68,44.5-10.46c0.01,0.06,0.05,0.11,0.13,0.13c5.07,1.04,11.98-2.45,16.56-4.48
				c5.25-2.31,10.68-5.16,13.97-10C158.1,179.77,150.2,169.05,143.73,166.55z"/>
		</g>
		<path class="st7" d="M84.53,187.74c1.11-0.01,2.25,0.12,3.24,0.37c0.61,0.12,1.2,0.23,1.72,0.36c0.25,0.05,0.39,0.2,0.45,0.37
			c0.93,0.34,1.84,0.69,2.76,1c-1.94,0.4-3.87,0.94-5.61,1.74c-0.47,0.7-1.34,1.05-2.08,1.41c-1.24,0.62-2.07,1.68-3.04,2.64
			c-0.25,0.24-0.6,0.26-0.89,0.1c-1.18-0.63-1.26-1.62-0.81-2.68c0.12-0.4,0.36-0.79,0.64-1.13c0.5-0.71,1.16-1.41,1.81-2.03
			c-0.99,0.49-1.85,1.43-2.81,2.09c-0.08,0.12-0.14,0.2-0.22,0.31c-0.12,0.18-0.23,0.39-0.32,0.63c-0.19,0.02-0.39,0.06-0.57,0.09
			c-0.35,0.08-0.69,0.03-1.01-0.14c-1.35-0.65,0.45-2.61,0.91-3.04c0.1-0.09,0.23-0.19,0.34-0.29
			C80.33,188.09,82.39,187.68,84.53,187.74z"/>
		<path class="st7" d="M90.67,209.63c-6.68,0.65-12.85,1.07-17.14-5.03c-3.05-4.33-2.86-14.41,0.03-19.38
			c2.03,0.91,3.85,2.12,5.57,3.49c-0.73,0.56-1.41,1.21-1.87,1.98c-0.46,0.76-1.17,2.16-0.46,3c0.59,0.68,1.46,0.61,2.23,0.34
			c-0.07,0.41-0.08,0.82,0,1.17c0.32,1.08,1.09,1.86,2.12,1.81c-0.46,0.98-0.78,2.09-0.93,3.34c-0.04,0.37,0.39-0.04,0.45-0.19
			c3.31-10.28,19.76-10.26,28.13-10.92c3.22-0.25,6.46-0.34,9.69-0.51c-0.02,0.05-0.05,0.1-0.08,0.13c0.11-0.01,0.2-0.02,0.31-0.02
			c0.35-0.61,0.88-1.16,1.47-1.64c2.01-2.28,4.38-4.2,7.33-5.35c0.87-0.34,1.77-0.53,2.64-0.63c-1.25,1.02-2.15,2.24-2.75,3.81
			c-0.11,0.25,0.15,0.14,0.24,0.04c1.09-1.33,2.13-2.21,3.66-3.05c1.37-0.74,2.7-0.42,4.07-0.55c0.37,0.05,0.75,0.11,1.12,0.17
			c0.1,0.35,0.19,0.71,0.29,1.07c-1.21,0.22-2.55,0.93-3.2,1.37c-1.34,0.93-2.39,2.28-2.83,3.86c-0.07,0.2,0.2,0.05,0.24-0.01
			c0.92-1.4,1.91-2.3,3.54-2.73c0.95-0.24,1.88-0.06,2.79-0.3l0.03,0.07c-1.35,1.7-1.54,3.95-2.58,5.9
			c-1.27,2.36-3.35,4.37-6.03,4.89c-0.88,0.17-2.89,0.9-3.64,0.23c-0.09-0.09-0.29,0.22-0.27,0.3c0.08,0.83,0.94,1.08,2.03,1.03
			C116.06,203.69,103.11,208.45,90.67,209.63z"/>
		<path class="st7" d="M124.65,199.47c1.19-0.77,2.32-1.52,3.39-2.3c1.49-0.25,3.01-0.81,3.44-1.05c1.64-0.96,3.01-2.83,3.99-4.38
			c1.12-1.78,1.38-3.87,2.17-5.72c0.24,0.86,0.55,1.67,0.97,2.46c0.31-0.92,0.65-1.83,0.89-2.76c-0.2-1.23-0.52-2.43-1.03-3.61
			c-0.27-0.66-0.67-1.47-1.17-2.16c-0.02-0.01-0.02-0.02-0.02-0.04c-0.2-0.4-0.51-0.63-0.84-0.8c-0.07-0.08-0.17-0.16-0.25-0.21
			c0.28-2.16,1.1-4.23,2.15-6.14c0.94-1.69,2.69-4.01,4.57-5.6c3.91,4.41,7.98,7.95,10.3,13.67
			C157.1,190.42,132.02,198.66,124.65,199.47z"/>
	</g>
	<g>
		<g>
			<g>
				<path class="st1" d="M517.83,160.19c-0.39-0.85-1-2.21-1.89-3.07c-0.27-2.28-1.67-4.25-4.39-4.58
					c-0.95-2.57-3.55-4.39-6.58-3.76c-1.05,0.22-2,0.59-2.88,1.08c1.29-2.07,3.02-3.87,4.41-5.97c0.98-1.51,1.73-2.25,1.19-4.01
					c-0.55-1.8-5.07,0.48-5.82,1c-2.68,1.85-4.97,3.85-6.89,6.03c-0.03,0-0.07,0-0.11,0.02c-6.51,2.57-7.72,11.35-6.38,17.83
					c0.02,0.7,0.05,1.4,0.11,2.12c-3.91,2.92-7.91,5.71-11.85,8.65c-0.69,0.52-1.36,1.01-1.99,1.5c-0.98-1.99-2.34-3.77-4.05-5.11
					c-0.82-0.47-1.67-0.86-2.56-1.16c0.59,0.36,1.14,0.75,1.63,1.18c-7.97,5.54-11.81,20.59-0.33,24.47c0,0,0.03,0,0.04,0
					c7.17,2.19,17.79-8.76,24.97-18.2c1.99,0.79,5.6-0.12,6.79-0.61c2.9-1.2,6.83-5.07,7.17-8.45c0.26-0.27,0.51-0.7,0.57-1.1
					c-0.07,0.59-0.11,1.2-0.01,1.89c0.24,1.49,2.5,1.54,3.62,1.62c2.92,0.21,3.91-3.36,4.79-5.4
					C518.19,164.17,518.74,162.24,517.83,160.19z"/>
			</g>
			<path class="st7" d="M488.9,159.07c0.03-4.71,1.07-9.4,5.38-11.38C491.52,151.06,489.69,154.84,488.9,159.07z"/>
			<path class="st7" d="M514.98,169.49c-1.05,1.14-2.99,1.89-4.22,0.51c-1.36-1.52-0.81-3.95,0.08-5.9
				c-1.75,2.06-3.47,4.15-5.18,6.24c0.51-0.17,1.11-0.61,1.61-1.07c-1.51,3.1-3.13,6.08-6.52,7.5c-1.52,0.64-3.34,0.79-4.93,0.43
				c-0.01,0-0.03-0.02-0.03-0.02c-0.87-0.06-1.74-0.28-2.65-0.64c0.04,0.54,0.26,0.95,0.61,1.24c-7.9,10.84-19.66,23.5-27.7,14.69
				c-1.7-2.15-2.58-4.8-2.59-7.9c-0.02-5.23,3.55-8.79,6.52-12.46c1.74,1.57,2.88,3.53,3.81,5.63c-2.76,2.22-4.8,4.57-4.76,8.74
				c-0.01,0.04,0.05,0.05,0.09,0.04c0.92-5.18,4.86-8.42,9.08-11.17c2.59-1.92,5.31-3.64,7.61-5.28c0.83-0.59,1.65-1.17,2.48-1.76
				c0.38-0.33,0.74-0.66,1.11-0.98c-0.02-0.15-0.01-0.28-0.03-0.42c0.03-0.04,0.05-0.08,0.04-0.1c-0.04-0.4-0.09-0.82-0.13-1.26
				c-0.07-0.82,0.1-1.76,0.17-2.58c0.07-0.84,0.16-1.7,0.26-2.55c0.22-1.67,0.58-3.33,1.11-4.93c1.06-3.27,2.89-6.21,5.22-8.74
				c0.68-0.73,1.4-1.43,2.11-2.11c0.95-0.87,1.73-1.7,2.86-2.36c0.9-0.53,5.06-3.7,5.68-1.37c0.39,1.42-1.59,3.09-2.41,4
				c-1.79,1.96-3.8,3.77-4.18,6.53c-0.96,0.79-1.73,1.76-2.04,2.88c1.18-1.63,2.88-3.19,4.74-3.81c0.12-0.07,0.25-0.16,0.37-0.22
				c0.56-0.18,1.13-0.3,1.76-0.33c1.21-0.06,2.11,0.23,2.84,0.73c0.07,0.03,0.12,0.04,0.17,0.06c0.21,0.09,0.32,0.22,0.38,0.38
				c0.42,0.43,0.8,0.91,1.1,1.48c-3.02,0.53-5.8,2.89-7.53,5.39c2.83-3.22,9.18-6.75,11.74-2.45c0.11,0.18,0.11,0.35,0.05,0.49
				c0.08,0.12,0.15,0.23,0.21,0.35c-1.37,0.13-2.49,0.64-3.69,1.38c-1.23,0.75-2.27,2.05-3.43,2.98c0,0,0.01,0.02,0.03,0.02
				c0.39-0.31,0.78-0.63,1.16-0.88c0.39-0.28,0.84-0.5,1.28-0.72c1.09-0.76,2.39-1.44,3.66-1.38c0.72-0.13,1.45-0.12,2.11,0.21
				c2.9,1.49,2.52,5.47,1.42,8.14C516.23,167.4,515.82,168.58,514.98,169.49z"/>
		</g>
		<g>
			<g>
				<path class="st1" d="M535.93,178.72c0.22-0.13,0.42-0.28,0.62-0.43c0.05-0.04,0.14-0.17,0.02-0.15
					c-2.89,0.49-5.21,2.56-7.29,4.45c-1.18,1.06-2.2,2.21-3.07,3.45c-3.97,0.02-8.13,0.57-12.15,0.71c-0.14-1.67-1.24-3.5-2.03-4.68
					c-1.33-2-3.85-3.84-6.09-4.61c-2.61-0.89-5.45-0.53-7.85,0.76c-1.91,1.03-3.72,2.33-5.13,3.99c-0.66,0.76-1.33,1.62-1.71,2.56
					c-0.16,0.4-0.28,0.82-0.17,1.24c0.05,0.24,0.65,0.89,0.62,1.04c-0.23,1.34,0.19,2.83,1.08,3.86c0.04,1.29,0.7,2.68,1.69,3.41
					c0.07,0.99,0.54,1.99,1.2,2.91c1.03,1.4,2.7,2.4,4.39,1.37c0.77-0.47,1.8-1.23,2.38-2.13c0.48,0.73,0.92,1.46,1.36,1.86
					c1.32,1.13,3.16,1.58,4.86,1.68c1.19,0.08,2.38-0.51,3.3-1.37c0.37,0.22,0.77,0.42,1.17,0.64c4.06,1.36,7.98,2.71,12.15,3.39
					c7.21,0.04,14.98-1.46,19.03-5.27C550.53,191.63,543.22,179.74,535.93,178.72z"/>
			</g>
			<path class="st7" d="M540.81,198.78c-4.07,1.88-9.24,2.51-14.38,2.5c-4.76-0.2-9.48-1.29-13.78-3.34
				c0.09-0.13,0.18-0.25,0.27-0.38c-0.53,0.38-1.12,0.67-1.75,0.87c-1.2,0.54-2.51,0.48-3.84,0.08c-0.05-0.02-0.08-0.03-0.12-0.04
				c-0.51-0.15-1-0.38-1.49-0.63c-0.84-0.43-1.34-1-1.72-1.63c-0.66-0.78-1.24-1.64-1.7-2.51c-1.01-0.12-2.3,0.11-2.89,0.94
				c1.14-0.52,1.96,0.28,2.7,1.31c-0.51,1.64-2.91,2.03-4.17,0.95c-0.67-0.55-1.16-1.37-1.67-2.04c-2.17-2.88,1.9-5.28,3.91-6.61
				c0.05-0.03,0.07-0.11,0-0.08c-1.83,0.68-3.49,1.87-4.74,3.34c-0.36,0.42-0.59,0.85-0.75,1.29c-0.44-0.69-0.8-1.42-0.98-2.19
				c-0.53-2.75,3.11-4.92,5.01-6.14c0.06-0.05,0.12-0.17-0.01-0.11c-2.27,1.19-4.25,2.49-5.54,4.77c-0.06,0.11-0.11,0.24-0.15,0.35
				c-0.42-1.28-0.48-2.71,0.08-3.95c0.68-1.54,2.71-2.38,4.12-3.12c0.12-0.07,0.26-0.35,0.02-0.24c-1.76,0.8-3.49,1.54-4.74,3.08
				c-0.07,0.07-0.2,0.29-0.14,0.22c-0.25,0.36-0.23-0.61,0.26-1.63c0.24-0.49,0.96-1.03,1.36-1.43c0.46-0.47,0.94-0.9,1.44-1.32
				c0.97-0.81,2.05-1.5,3.23-1.99c2.3-0.95,4.82-1.11,7.16-0.16c1.27,0.51,2.73,1.32,3.76,2.24c1.32,1.21,3.1,3.53,3.8,5.59
				c-0.04,0-0.1,0-0.15,0c0.24,0.54,0.46,1.08,0.64,1.64c0.05,0.01,0.1-0.01,0.14-0.01c5.72-1.37,11.62-1.73,17.5-1.08
				c1.67,0.19,3.46,0.45,5.1,1c-2.7-1.59-5.78-2.15-9.02-2.25c0.62-0.85,1.27-1.66,2.02-2.43c1.76-1.78,3.73-3.1,5.74-4.49
				C542.65,181.39,550.63,194.26,540.81,198.78z"/>
		</g>
	</g>
</g>
</svg>
