<?xml version="1.0" encoding="utf-8"?>
<!-- Generator: Adobe Illustrator 24.0.2, SVG Export Plug-In . SVG Version: 6.00 Build 0)  -->
<svg version="1.1" id="Layer_1" xmlns="http://www.w3.org/2000/svg" xmlns:xlink="http://www.w3.org/1999/xlink" x="0px" y="0px"
	 viewBox="0 0 595.28 141.73" style="enable-background:new 0 0 595.28 141.73;" xml:space="preserve">
<style type="text/css">
	.st0{fill:#56A9DE;}
	.st1{fill:#262262;}
	.st2{fill:#EF3C23;}
	.st3{fill:#40BB98;}
	.st4{fill:#E6C2AE;}
	.st5{fill:#FFFFFF;}
	.st6{fill:#FDB714;}
	.st7{fill:#4EBDE5;}
	.st8{fill:#F8A79A;}
	.st9{fill:#B8B9BA;}
	.st10{fill:#EF4277;}
	.st11{fill:#81D2E2;}
	.st12{fill:#4A230E;}
	.st13{fill:#955D53;}
	.st14{fill:#F47F73;}
</style>
<g>
	<g>
		<g>
			<path class="st0" d="M27.37,128.63c-1.37,0-2.69-0.36-3.92-1.08l-0.26-0.15l-0.24-0.19c-2.02-1.6-3.17-3.46-3.42-5.55L9.61,52.25
				c-0.28-2.38,0.29-4.46,1.62-6.14c1.19-1.51,2.85-2.57,4.79-3.07l0.2-0.05l0.21-0.03c3.74-0.57,7.39-0.86,10.85-0.86
				c2.45,0,4.86,0.15,7.17,0.43c5.66,0.71,10.63,2.13,14.78,4.23c4.13,2.1,7.81,4.79,10.93,8.01c3.11,3.21,5.61,6.76,7.41,10.56
				c1.77,3.73,3.04,7.76,3.77,11.98c0.63,4.02,0.71,7.97,0.24,11.78c-0.48,3.91-1.7,7.89-3.64,11.83c-1.93,3.92-4.55,7.59-7.8,10.89
				c-3.22,3.27-7.48,6.39-12.68,9.29c-5.14,2.86-11.11,5.28-17.76,7.17C29.03,128.49,28.19,128.63,27.37,128.63z M41.21,91.11
				c0.91-1.17,1.6-2.61,2.09-4.34c1.14-4.01,0.75-7.37-1.21-10.28c-1-1.48-2.15-2.27-3.73-2.53L41.21,91.11z"/>
			<path class="st1" d="M27.29,46.38c2.29,0,4.5,0.13,6.64,0.4c5.19,0.65,9.64,1.92,13.37,3.8c3.72,1.89,6.99,4.28,9.79,7.17
				c2.8,2.89,5.01,6.03,6.62,9.42c1.61,3.39,2.75,7.01,3.41,10.86c0.56,3.58,0.63,7.1,0.21,10.54c-0.42,3.45-1.5,6.93-3.23,10.46
				c-1.73,3.53-4.07,6.79-7.01,9.77c-2.94,2.99-6.85,5.84-11.71,8.55c-4.87,2.71-10.48,4.98-16.85,6.79
				c-0.4,0.13-0.79,0.19-1.17,0.19c-0.61,0-1.2-0.17-1.76-0.5c-1.1-0.87-1.71-1.77-1.82-2.68l-9.94-69.52
				c-0.13-1.13,0.11-2.09,0.74-2.87c0.62-0.79,1.46-1.31,2.5-1.58C20.63,46.65,24.03,46.38,27.29,46.38 M38.07,98.37
				c4.73-1.7,7.85-5.17,9.35-10.42c1.5-5.25,0.9-9.87-1.78-13.84c-2.03-3.01-4.86-4.51-8.49-4.51c-1.17,0-2.43,0.16-3.78,0.47
				L38.07,98.37 M27.29,37.82c-3.67,0-7.54,0.31-11.49,0.91l-0.42,0.06l-0.41,0.1c-2.86,0.73-5.32,2.31-7.1,4.57
				c-2.01,2.54-2.91,5.81-2.52,9.17l0.01,0.11l0.02,0.11l9.93,69.45c0.29,2.23,1.41,5.43,5,8.27l0.47,0.37l0.52,0.3
				c1.86,1.09,3.96,1.66,6.08,1.66c1.21,0,2.43-0.19,3.63-0.55c6.92-1.98,13.17-4.51,18.56-7.52c5.56-3.1,10.15-6.47,13.65-10.03
				c3.57-3.63,6.46-7.67,8.59-12c2.15-4.37,3.51-8.81,4.05-13.2c0.51-4.21,0.43-8.55-0.25-12.9l-0.01-0.06l-0.01-0.06
				c-0.79-4.6-2.18-9.01-4.12-13.09c-2.01-4.22-4.77-8.16-8.21-11.7c-3.45-3.56-7.51-6.53-12.06-8.84
				c-4.6-2.33-10.04-3.9-16.18-4.66C32.5,37.97,29.92,37.82,27.29,37.82L27.29,37.82z"/>
		</g>
		<g>
			<path class="st2" d="M105.05,124.56c-0.7,0-1.4-0.02-2.11-0.07c-6.66-0.42-12.76-2.78-18.13-7.01
				c-5.27-4.14-9.31-9.6-12.02-16.22c-2.68-6.53-3.79-13.65-3.31-21.16c0.36-5.57,1.62-10.93,3.76-15.94
				c2.16-5.05,4.97-9.4,8.37-12.92c3.43-3.57,7.5-6.38,12.1-8.35c4.05-1.74,8.28-2.63,12.57-2.63c0.68,0,1.35,0.02,2.04,0.07
				c6.61,0.42,12.65,2.78,17.96,7.01c5.19,4.13,9.2,9.6,11.91,16.25c2.67,6.57,3.79,13.68,3.31,21.16
				c-0.48,7.48-2.49,14.4-5.97,20.57c-3.53,6.26-8.2,11.16-13.88,14.57C116.45,122.99,110.87,124.56,105.05,124.56z M106.43,64.37
				c-0.75,0-3.05,0-5.92,4.09c-2.45,3.5-3.87,7.99-4.21,13.36c-0.34,5.37,0.5,10.05,2.49,13.9c2.44,4.71,4.87,4.86,5.67,4.91
				c0.1,0.01,0.19,0.01,0.29,0.01c0.71,0,2.86,0,5.71-4.16c2.44-3.57,3.86-8.11,4.2-13.49c0.22-3.52-0.08-6.86-0.92-9.91
				c-0.78-2.84-1.91-5.1-3.36-6.69c-1.53-1.68-2.79-1.95-3.61-2C106.65,64.37,106.54,64.37,106.43,64.37z"/>
			<path class="st1" d="M106.27,44.54c0.58,0,1.17,0.02,1.76,0.06c5.74,0.37,10.93,2.39,15.57,6.09c4.63,3.69,8.17,8.53,10.61,14.51
				c2.44,5.99,3.44,12.41,3,19.27c-0.44,6.86-2.24,13.11-5.42,18.73c-3.18,5.63-7.3,9.96-12.36,13c-4.52,2.71-9.31,4.07-14.37,4.07
				c-0.61,0-1.22-0.02-1.84-0.06c-5.81-0.37-11.06-2.4-15.76-6.1c-4.7-3.69-8.27-8.52-10.71-14.47c-2.44-5.95-3.44-12.38-3-19.27
				c0.33-5.1,1.47-9.95,3.42-14.54c1.96-4.58,4.46-8.46,7.52-11.63c3.05-3.17,6.62-5.63,10.71-7.39
				C98.92,45.3,102.55,44.54,106.27,44.54 M104.75,104.92c3.41,0,6.49-2.01,9.24-6.03c2.9-4.24,4.54-9.45,4.94-15.64
				c0.26-4.02-0.1-7.79-1.06-11.31c-0.96-3.52-2.4-6.33-4.32-8.44c-1.92-2.11-4.09-3.24-6.51-3.39c-0.2-0.01-0.41-0.02-0.61-0.02
				c-3.52,0-6.66,1.97-9.42,5.92c-2.93,4.17-4.58,9.35-4.98,15.54c-0.39,6.19,0.59,11.57,2.96,16.14c2.37,4.57,5.43,6.98,9.2,7.22
				C104.38,104.92,104.56,104.92,104.75,104.92 M106.27,35.98L106.27,35.98c-4.88,0-9.67,1-14.26,2.98
				c-5.12,2.2-9.66,5.34-13.49,9.32c-3.76,3.9-6.86,8.68-9.22,14.21c-2.33,5.46-3.71,11.3-4.1,17.35
				c-0.52,8.17,0.7,15.93,3.62,23.06c3,7.31,7.48,13.35,13.34,17.96c6.06,4.77,12.96,7.43,20.51,7.91c0.79,0.05,1.59,0.08,2.38,0.08
				c6.61,0,12.93-1.78,18.78-5.29c6.32-3.8,11.51-9.23,15.41-16.13c3.8-6.74,5.99-14.27,6.51-22.4c0.52-8.13-0.7-15.88-3.62-23.04
				c-2.99-7.34-7.43-13.39-13.2-17.98c-6.01-4.79-12.86-7.46-20.36-7.93C107.8,36.01,107.03,35.98,106.27,35.98L106.27,35.98z
				 M104.73,96.36L104.73,96.36c-0.41-0.03-1.27-0.93-2.14-2.61c-1.66-3.2-2.32-7.01-2.02-11.66c0.29-4.57,1.45-8.32,3.44-11.17
				c1.17-1.66,2.08-2.27,2.41-2.27c0.07,0,0.32,0.1,0.79,0.61c0.99,1.08,1.79,2.75,2.39,4.94c0.71,2.59,0.97,5.45,0.77,8.51
				c-0.29,4.6-1.46,8.42-3.46,11.35C105.8,95.7,104.97,96.27,104.73,96.36L104.73,96.36z"/>
		</g>
		<g>
			<path class="st3" d="M158.81,119.17c-0.42,0-0.87-0.03-1.33-0.11l-14.59-2.31c-1.98-0.31-3.67-1.33-4.9-2.95
				c-1.28-1.67-1.78-3.71-1.43-5.89l10.05-63.37c0.34-2.13,1.47-3.88,3.2-4.99c1.22-1.01,2.73-1.53,4.4-1.53
				c0.42,0,0.87,0.03,1.34,0.11l13.09,2.76c1.95,0.34,3.59,1.35,4.75,2.94c1.18,1.64,1.63,3.56,1.31,5.57l-8.36,63.14
				c-0.33,2.09-1.38,3.81-2.97,4.98C162.12,118.6,160.56,119.17,158.81,119.17z"/>
			<path class="st1" d="M154.21,42.3c0.21,0,0.43,0.02,0.67,0.06l12.97,2.74c0.88,0.14,1.58,0.56,2.08,1.25
				c0.5,0.7,0.69,1.49,0.55,2.37l-8.38,63.25c-0.15,0.95-0.62,1.68-1.42,2.2c-0.48,0.48-1.1,0.72-1.87,0.72
				c-0.21,0-0.43-0.02-0.67-0.06l-14.59-2.31c-0.89-0.14-1.61-0.58-2.17-1.32c-0.56-0.74-0.76-1.61-0.6-2.62l10.05-63.38
				c0.16-1.01,0.66-1.74,1.51-2.19C152.82,42.54,153.44,42.3,154.21,42.3 M154.21,33.74L154.21,33.74c-2.57,0-4.98,0.82-6.92,2.35
				c-2.63,1.77-4.4,4.55-4.91,7.79l-10.05,63.38c-0.53,3.32,0.28,6.58,2.27,9.17c1.87,2.45,4.58,4.08,7.63,4.56l14.59,2.31
				c0.67,0.11,1.35,0.16,2.01,0.16c2.7,0,5.23-0.91,7.22-2.59c2.44-1.84,4.04-4.5,4.52-7.56l0.02-0.11l0.01-0.11l8.37-63.17
				c0.45-3.06-0.29-6.1-2.08-8.58c-1.8-2.47-4.42-4.1-7.41-4.65l-12.82-2.7l-0.21-0.04l-0.21-0.03
				C155.54,33.79,154.86,33.74,154.21,33.74L154.21,33.74z"/>
		</g>
	</g>
	<g>
		<g>
			<g>
				<path class="st1" d="M263.36,47.84c-1.56-2.47-3.51-4.28-5.69-5.87c0.15-0.21,0.22-0.44,0.1-0.54c-1.18-0.99-2.6-1.66-4.14-2.11
					c-0.35-0.21-0.69-0.41-1.04-0.62c-0.1-0.06-0.32,0.2-0.24,0.27c0.02,0.02,0.04,0.03,0.06,0.05c-5.73-1.16-12.93,0.46-17.65,1.85
					c-7.17,2.11-13.3,6.35-18.15,11.99c-8.58,9.99-17.45,32.26,0.5,37.62c14.9,4.45,34.71,0.36,45.1-11.61
					c4.41-5.07,6.57-11.99,5.85-18.62C267.6,55.84,265.72,51.56,263.36,47.84z"/>
			</g>
			<path class="st0" d="M262.73,76.58c-8.51,12.7-28.5,15.41-42.05,13.21c-7.6-1.24-12.38-7.61-12.21-15.57
				c0.16-7.52,4.41-14.91,8.96-20.63c4.93-6.18,11.85-9.78,19.37-11.82c5.72-1.54,13.03-2.05,18.82,0.04
				c3.85,3.52,7.04,7.31,9.18,12.4C268.01,61.84,267.33,69.71,262.73,76.58z"/>
			<g>
				<path class="st1" d="M238.53,99.64c0.37-1.25,0.5-2.57,0.24-3.89c-0.08-0.41-0.29-0.76-0.6-1.02c-0.47-0.58-1.23-0.83-2.38-0.51
					c-3.06-1.92-6.4-4.14-10.03-4.24c-1.72-0.05-3.56,1.01-3.88,2.73c-1.82,4.5,3.65,9.79,7.36,12.44c-0.05,0.08-0.09,0.16-0.09,0.2
					c0.04,0.22,0.08,0.4,0.13,0.58c0.1,0.9,0.6,1.24,1.3,1.23c0.82,0.07,1.87-0.43,2.89-1.13c1.59-0.98,3.11-2.34,3.54-3.06
					c0.06-0.08,0.1-0.18,0.15-0.27c0.06-0.07,0.12-0.14,0.16-0.21C237.82,101.88,238.25,100.81,238.53,99.64z"/>
			</g>
			<path class="st2" d="M225.6,101.22c-2.11-2.36-4.68-6.84-2.67-9.96c1.68-1.39,5.3-0.23,6.92,0.5c1.93,0.86,3.69,2.09,5.6,2.98
				c-0.03,0.04-0.07,0.07-0.1,0.12c-0.03,0.05-0.01,0.09,0.04,0.05c2.01-1.46,2.81,1.93,2.72,3.1c-0.1,1.47-0.85,3.28-1.61,4.54
				c-1.16,1.88-5.35,5.73-6.78,2.15c-0.04-0.1-0.15-0.05-0.24,0.05C228.12,103.63,226.79,102.55,225.6,101.22z"/>
			<g>
				<path class="st1" d="M193.98,105.83c0.05,0.05,0.12,0.11,0.19,0.17c0.07,0.08,0.14,0.17,0.21,0.25c0.54,0.62,2.28,1.7,4.02,2.38
					c1.14,0.51,2.26,0.81,3.05,0.6c0.69-0.11,1.13-0.54,1.06-1.44c0.02-0.18,0.03-0.37,0.01-0.59c0-0.04-0.05-0.12-0.11-0.18
					c3.18-3.27,7.63-9.44,5.04-13.55c-0.61-1.65-2.61-2.35-4.31-2c-3.56,0.74-6.44,3.52-9.12,5.95c-1.18-0.12-1.88,0.26-2.25,0.92
					c-0.24,0.31-0.39,0.69-0.41,1.11c-0.02,1.34,0.35,2.61,0.94,3.78C192.78,104.32,193.4,105.3,193.98,105.83z"/>
			</g>
			<path class="st2" d="M202.12,106.63c-0.1-0.07-0.22-0.11-0.24,0c-0.77,3.77-5.58,0.72-7.04-0.92c-0.98-1.1-2.03-2.75-2.4-4.18
				c-0.29-1.14-0.1-4.61,2.13-3.54c0.06,0.03,0.08-0.01,0.03-0.05c-0.04-0.04-0.09-0.06-0.12-0.1c1.72-1.21,3.24-2.74,4.98-3.92
				c1.47-0.99,4.82-2.79,6.72-1.72c2.53,2.72,0.79,7.58-0.86,10.28C204.37,104,203.25,105.3,202.12,106.63z"/>
			<g>
				<path class="st1" d="M232.04,115.71c-0.54-8.26-2.72-17.54-6.26-24.93c0.35-1.87-1.55-2.93-3.93-3.41
					c-3.74-0.75-8.9-0.07-12.87,1.55c-2.66,0.71-4.93,2.24-3.71,4.73c-2.88,2.8-4.16,7.4-5.22,11.12
					c-1.37,4.81-1.84,10.03-1.27,15.04c-5.23,3.77,6.02,5.53,8.41,5.73c6.06,0.48,12.27-0.58,18.1-2.18
					c2.62-0.72,5.82-1.62,7.52-3.9C234.1,118.09,234.46,115.8,232.04,115.71z"/>
			</g>
			<path class="st2" d="M208.48,124.29c-2.05-0.08-12.05-1.04-9.68-4.24c0.05,0.4,0.09,0.8,0.15,1.19c0.03,0.19,0.46-0.16,0.46-0.31
				c-0.23-9.33,1.17-18.89,6-27.04c0.12,0.21,0.26,0.43,0.44,0.65c0.11,0.16,0.41-0.25,0.41-0.36c-0.04-0.69-0.2-1.36-0.33-2.04
				c-0.27-1.36,0.99-1.87,2.08-2.26c1.85-0.68,3.79-0.92,5.73-1.2c0.04,0,0.18-0.15,0.11-0.16c-0.13-0.02-0.26-0.04-0.4-0.05
				c5.86-0.92,12.75-0.79,11.19,3.97c-0.1,0.3,0.3,0.06,0.38-0.05c0.24-0.33,0.41-0.64,0.54-0.93c1.04,3.94,2.41,7.79,3.41,11.75
				c1.2,4.71,1.86,9.48,2.67,14.26c0.04,0.21,0.5-0.21,0.49-0.39c-0.01-0.21-0.03-0.42-0.04-0.63c0.31,0.32,0.62,0.62,0.82,1.06
				c0.61,1.29-2.23,2.85-3.04,3.33c-0.5,0.31-1.03,0.57-1.57,0.82c-2.08,0.69-4.38,1.03-6.12,1.4
				C217.7,124.04,213.06,124.48,208.48,124.29z"/>
			<g>
				<path class="st1" d="M220.16,83.35c-1.6-1.68-4.78-1.3-6.75-0.8c-1.35,0.35-3.47,1.32-4.07,2.72c-0.44,1.04,0.14,2.05,0.65,3.09
					c0.15,1.15,0.13,2.29-0.25,3.56c-0.26,0.87-0.41,1.6-0.16,2.49c0.53,1.88,3.65,2.12,5.18,2.14c2.2,0.03,4.2-0.89,5.79-2.35
					c1.3-1.19,0.93-2.54,0.37-3.97C219.96,87.79,222.28,85.54,220.16,83.35z"/>
			</g>
			<path class="st4" d="M220.14,88.82c0.1,0.8,0.26,1.59,0.35,2.45c0.06,0.56,0.09,1.19-0.14,1.72c-0.33,0.73-0.88,1.16-1.54,1.43
				c-0.35,0.22-0.8,0.42-1.36,0.64c-2.13,0.8-4.61,0.87-6.49-0.57c-0.66-0.51-0.63-1.51-0.43-2.56c0.02-0.28,0.06-0.56,0.13-0.87
				c0.37-1.45,0.37-2.54-0.11-4c-0.42-1.3-0.02-2.22,1.04-2.75c1.28-0.85,3.58-1.02,4.85-0.96c2.06,0.09,4.05,1.15,3.98,3.43
				C220.41,87.49,220.26,88.15,220.14,88.82z"/>
			<g>
				<g>
					<path class="st1" d="M257.38,55.42c-1.57-0.19-3.48,0.28-4.46,1.53c0.15-1.49,0.17-2.96,0.06-4.4
						c0.97-6.98-4.2-15.84-8.17-21.06c-2.73-3.59-6.42-6.69-10.44-8.73c-4.39-2.22-9.29-3.54-14.21-3.86
						c-3.04-0.2-6.27-0.19-9.3,0.21c-2.7,0.36-5.37,1-7.94,1.93c-1.93,0.7-3.83,1.49-5.72,2.29c-0.8,0.34-1.54,0.71-2.27,1.1
						c-4.69,2.39-8.89,5.67-12.07,10.05c-6.23,8.57-9.25,20.12-6,30.12c-1.42-0.72-3.25-0.48-4.7,0.77
						c-3.1,2.67-4.35,6.77-2.66,10.58c2.36,5.33,11.45,5.31,13.45,0.02c2.02,2.43,4.44,4.62,7.15,6.53
						c8.78,6.17,19.49,7.84,29.9,6.14c9.63-1.58,18.86-6.14,25.28-13.55c1.05-1.22,2.06-2.64,2.99-4.21c1.98,2,6.27,0.31,8.34-0.7
						c3.09-1.52,5.29-4.54,5.81-7.91C262.98,58.84,260.78,55.82,257.38,55.42z"/>
				</g>
				<path class="st4" d="M171.44,76.04c-1.74-2.09-1.88-5.06-0.95-7.51c1.08-2.87,4.4-4.42,6.7-2.96c0.33,0.88,0.7,1.74,1.12,2.58
					c0.96,2.51,2.32,4.86,4,7.02C181.14,80.27,174.08,79.18,171.44,76.04z"/>
				<path class="st4" d="M241.97,76.73c-6.83,6.91-16.78,10.23-26.27,11c-11.47,0.92-24.77-4.29-32.4-13.4
					c-0.02-0.05-0.04-0.09-0.08-0.1c-0.59-0.7-1.12-1.43-1.64-2.18c-1.39-2.04-2.41-4.75-3.16-7.1c-0.8-2.48-1.2-5.05-1.3-7.65
					c-0.21-5.17,0.46-10.56,2.63-15.29c2.18-4.78,5.29-9.22,9.23-12.72c5.15-4.57,12.43-7.16,19.08-8.46c2-0.39,4.05-0.62,6.09-0.68
					c4.55-0.14,9.07,0.4,13.47,1.6c12.56,3.43,21.05,15.31,23.45,27.74C252.48,59.14,248.72,69.89,241.97,76.73z"/>
				<path class="st4" d="M261.25,62.91c-0.16,3.41-2.92,5.85-5.88,7.07c-1.76,0.72-5.09,1.48-6.42-0.3
					c1.95-3.64,3.4-7.94,3.91-12.16c1.62-1.94,4.65-1.34,6.46,0C260.98,58.74,261.35,61,261.25,62.91z"/>
				<g>
					<path class="st1" d="M175.6,68.65c-2.71-0.25-3.49,3.27-2.81,5.2c0.04,0.1,0.26-0.09,0.24-0.18c-0.18-1.11-0.19-3.29,1.09-3.86
						c1.02-0.45,2.25,0.54,2.93,1.18c0.69,0.63,1.15,1.39,1.48,2.19c-0.35,0.54-0.63,0.98-1.41,1.09c-0.94,0.14-1.77-0.24-2.38-0.94
						c-0.07-0.08-0.29,0.13-0.26,0.22c0.52,1.14,1.49,1.75,2.74,1.45c0.38-0.08,1.1-0.52,1.59-1.04c0.26,0.85,0.41,1.73,0.53,2.61
						c0.03,0.25,0.48-0.21,0.5-0.32C180.59,73.39,178.91,68.97,175.6,68.65z"/>
				</g>
				<g>
					<path class="st1" d="M254.62,61.69c-1.14,1.39-3.97,5.92-2.06,7.61c0.2,0.18,0.65-0.28,0.65-0.48c0.04-1.01,0.16-1.97,0.41-2.9
						c0.08,0.42,0.23,0.81,0.49,1.15c1.11,1.4,3.17-0.19,4-1.07c0.11-0.11,0.1-0.28-0.07-0.16c-0.99,0.74-2.22,1.25-3.06,0.07
						c-0.54-0.75-0.52-1.62-0.42-2.48c0.06-0.12,0.11-0.24,0.18-0.36c1.06-1.93,3.06-3.99,5.24-2.29c0.11,0.08,0.36-0.16,0.29-0.27
						C258.64,57.94,256.03,59.97,254.62,61.69z"/>
				</g>
			</g>
			<g>
				<g>
					<path class="st1" d="M202.32,64.5c0.12,1.86-1.29,3.45-3.14,3.57c-1.84,0.12-3.44-1.29-3.56-3.14
						c-0.12-1.85,1.29-3.45,3.14-3.56C200.61,61.25,202.21,62.65,202.32,64.5z"/>
				</g>
				<path class="st5" d="M199.02,62.97c0.04,0.64-0.45,1.2-1.09,1.24c-0.65,0.04-1.2-0.45-1.24-1.09c-0.04-0.65,0.44-1.2,1.1-1.24
					C198.42,61.83,198.97,62.32,199.02,62.97z"/>
			</g>
			<g>
				<path class="st1" d="M195.62,53.87c-0.98,0.61-1.66,1.33-2.09,2.4c-0.19,0.47-0.61,1.62-0.03,1.9c0.07,0.03,0.21-0.11,0.22-0.18
					c0.05-0.58,0.31-1.05,0.6-1.55c0.82-1.39,1.64-2.02,3.25-1.76c1.43,0.23,2.53,1.15,3.44,2.2c0.1,0.11,0.44-0.2,0.39-0.32
					C200.25,54.26,198.25,52.2,195.62,53.87z"/>
			</g>
			<g>
				<g>
					<path class="st1" d="M229.44,62.38c-0.26,1.83-1.96,3.11-3.79,2.85c-1.83-0.26-3.12-1.96-2.85-3.79
						c0.26-1.83,1.95-3.11,3.79-2.85C228.42,58.85,229.7,60.55,229.44,62.38z"/>
				</g>
				<path class="st5" d="M226.51,60.21c-0.09,0.63-0.69,1.08-1.32,1c-0.64-0.09-1.09-0.68-0.99-1.33c0.08-0.63,0.68-1.08,1.31-0.99
					C226.16,58.98,226.6,59.57,226.51,60.21z"/>
			</g>
			<g>
				<path class="st1" d="M225.02,50.61c-1.07,0.41-1.89,0.97-2.53,1.94c-0.28,0.42-0.91,1.46-0.41,1.85
					c0.06,0.05,0.23-0.07,0.25-0.13c0.17-0.56,0.51-0.98,0.89-1.4c1.09-1.19,2.01-1.65,3.55-1.07c1.35,0.51,2.24,1.64,2.92,2.85
					c0.07,0.14,0.48-0.1,0.43-0.23C229.48,51.94,227.94,49.5,225.02,50.61z"/>
			</g>
			<g>
				<path class="st1" d="M254.05,26.09c-3.43-5.69-8.27-10.38-14.47-12.93c-0.98-0.41-2.85-1.16-4.6-1.5
					c-4.73-3.77-12.86-5.1-17.85-5.21c-10.14-0.21-19.67,2.17-28.19,7.69c-6.58,4.27-12.91,10.52-16.09,17.79
					c-1.76,4.03-2.69,8.14-2.8,12.55c-0.09,3.28-0.07,8.22,1.82,11.07c-0.01,0.92,0.07,1.86,0.25,2.84
					c0.51,2.74,2.72,7.51,5.59,8.52c0.36,0.12,0.86-0.47,0.94-0.74c0.68-2.16-0.13-4.94,0.08-7.26c0.34-3.86,1.66-7.09,3.39-10.35
					c-0.51,2.38-0.04,5.2,3.08,4.08c4.52-1.63,10.29-5.43,13.8-9.84c-1.46,3.21-2.28,6.3,0.09,6.1c3.26-0.27,6.58-2.55,9.15-4.41
					c2.23-1.61,5.03-3.67,6.91-6.02c-0.95,1.87-1.92,3.73-2.61,5.7c-0.65,1.84,1.2,1.46,2.2,0.94c1.71-0.92,3.36-2.16,4.81-3.46
					c1.18-1.06,2.8-2.6,3.72-4.29c0.31,0.71,0.66,1.41,1.12,2.13c0.99,1.59,2.35,3.02,3.63,4.38c0.44,0.47,1.69,2,2.48,1.9
					c1.13-0.15,1.63-1.27,1.51-2.26c-0.16-1.28-0.69-2.58-0.98-3.84c-0.14-0.62-0.27-1.22-0.42-1.82c1.77,1.55,3.38,3.39,4.76,5.01
					c1.66,1.96,3.18,4.05,4.4,6.32c0.24,0.45,0.65,1.78,1.22,1.92c2.49,0.59,2.12-5.93,1.61-10.01c3.97,6.3,8.39,13.2,8.19,20.82
					c-0.01,0.52,0.64,0.04,0.8-0.1c1.68-1.53,3.05-3.54,4.06-5.77C260.79,46.91,259.25,34.76,254.05,26.09z"/>
			</g>
			<path class="st6" d="M254.29,56.19c-0.05,0.06-0.1,0.1-0.15,0.12c-0.29,0.67-0.59,1.34-0.95,2.03c-1.02,1.97-1.08,2.83-1.1,0.2
				c-0.02-1.4-0.49-2.85-0.84-4.2c-1.32-4.91-4.24-12.22-8.9-15.09c0,0,0-0.01,0-0.01c-0.14-0.05-0.28-0.1-0.41-0.13
				c-0.09,0.55-0.18,1.1-0.28,1.65c0.27,2.83,0.35,5.67-0.05,8.49c-0.16,1.12-0.44-0.5-0.67-0.99c-0.51-1.09-1.11-2.11-1.76-3.12
				c-1.88-2.91-4.73-6.32-8.01-8.44c-0.64-0.27-1.28-0.44-1.91-0.38c-0.02,0.09-0.02,0.18-0.03,0.26c-0.04,0.28-0.07,0.57-0.1,0.86
				c0.2,1.41,0.48,2.81,0.73,4.21c0.08,0.47,0.33,1.18,0.5,1.87c-1.64-1.38-4.28-4.75-4.72-5.29c-0.67-0.84-1.19-1.76-1.69-2.7
				c0.01-0.03,0.01-0.06,0.01-0.09c-0.18-0.22-0.37-0.44-0.56-0.64c-0.25,0.29-0.51,0.58-0.75,0.88c0.02,0.04,0.03,0.08,0.04,0.11
				c-1.59,3.3-4.24,5.83-7.39,7.69c-1.25,0.73-1.12-0.24-0.62-1.19c0.45-0.86,0.74-1.79,1.09-2.69c0.56-1.48,1.19-2.9,1.4-4.45
				c-0.76,1.38-1.9,2.61-3.2,3.56c-3.34,3.55-8.21,6.48-12.34,8.19c-3.94,1.63-2.04-3.03-1.58-4.44c0.19-0.57,0.41-1.11,0.63-1.65
				c0.07-0.63,0.2-1.26,0.39-1.88c-0.36,0.29-0.73,0.6-1.1,0.89c-3.46,4.78-8.21,8.83-13.52,11.37c-4.28,2.04-3.57-2.37-2.57-5.44
				c-0.39,0.25-0.76,0.53-1.14,0.81c-0.01,0.02-0.02,0.04-0.02,0.06c-1.98,2.24-3.3,5.08-4.03,7.97c-0.5,2.04-0.82,4.04-1,6.13
				c-0.11,1.3,0.26,3.16,0.19,4.66c-2.85-1.93-4.81-6.1-5.06-9.92c0.03-0.04,0.08-0.09,0.1-0.13c-0.04-0.35-0.09-0.69-0.1-1.03
				c-0.01-0.02-0.02-0.03-0.02-0.05c0-0.05,0.01-0.1,0.01-0.15c-0.04-0.81-0.04-1.62,0.03-2.44c-0.2,0.38-0.36,0.77-0.5,1.17
				c-1.63-6.01-0.68-13.68,1.21-19.22c2.85-8.33,10.12-14.78,17.44-19.23c10.89-6.62,27.24-8.85,39.52-3.4
				c1.56,0.31,2.91,1.13,4.21,2.04c3.69,0.75,6.56,1.98,9.25,4.85c0.1,0.11,0.22,0.22,0.33,0.34c2.88,2.34,5.32,5.21,7.53,8.25
				c3.62,5.01,5.4,10.56,5.52,16.16C258.04,47.16,256.79,52.61,254.29,56.19z"/>
			<g>
				<g>
					<path class="st1" d="M260.49,38.6c-0.64-2.88-1.61-5.66-2.78-8.37c-3.27-7.58-8.88-14.19-15.67-18.84
						c-7.05-4.84-17.12-6.58-25.49-6.68c-5.98-0.07-12.23,1.29-17.99,3.44c-0.51,0.15-1.02,0.31-1.52,0.47
						c-7.18,2.3-13.68,6.56-18.96,11.88c-4.76,4.79-7.51,10.36-8.75,16.95c-0.76,4.02-1.02,8.1-0.82,12.17
						c0.1,1.89,0.47,3.73,0.93,5.56c0.02,0.08,0.05,0.16,0.07,0.23c0.04,0.03,0.07,0.05,0.11,0.07c0.39,0.87,1.1,1.33,2.18,0.46
						c0.81-0.66,0.74-1.74,0.88-2.67c0.31-1.94,1.17-3.54,1.88-5.3c7.96-12.14,27.55-15.13,41-15.72
						c8.54-0.37,16.98-0.09,25.16,2.58c4.19,1.37,8.56,3.04,12.18,5.56c1.38,0.96,2.52,2.49,3.54,3.78
						c0.53,0.68,1.07,1.38,1.47,2.15c0.18,0.35,0.41,0.61,0.65,0.78c0.73,0.52,1.6,0.2,2.13-0.44c0.81-0.98,0.52-2.41,0.45-3.58
						C261.06,41.58,260.82,40.08,260.49,38.6z"/>
				</g>
				<path class="st7" d="M260.02,44.76c-0.01,0.49-0.56,0.61-0.85,0.27c-3.23-3.84-5.99-6.71-10.65-8.77
					c-2.71-1.2-5.53-2.1-8.33-3.02c-10.08-3.3-21.57-2.59-31.97-1.68c-9.52,0.84-19.29,3.27-27.2,8.83
					c-2.92,2.06-5.32,4.81-7.26,7.78c-0.7,1.07-2,3.4-2.77,5.67c-0.12-0.34-0.23-0.69-0.32-1.04c-0.84-3.32-0.77-6.88-0.56-10.25
					c0.49-7.73,2.61-14.62,7.72-20.54c5.27-6.12,12.59-10.08,20.17-12.56c4.47-1.46,9.95-2.9,15.09-3.38
					c9.08-0.44,18.18,1.29,26.49,5.65c6.33,3.32,12.02,10.2,15.61,16.22c2.36,3.97,3.89,8.93,4.51,14.27
					C259.89,43.05,260.02,43.9,260.02,44.76z"/>
				<path class="st0" d="M192.6,15.14c1.58-2.28,3.54-4.19,5.73-5.79c-0.11,0.04-0.23,0.07-0.34,0.11
					c-7.58,2.47-14.9,6.44-20.17,12.56c-5.1,5.92-7.23,12.82-7.72,20.54c-0.21,3.38-0.28,6.93,0.56,10.25
					c0.09,0.35,0.2,0.69,0.32,1.04c0.77-2.28,2.07-4.61,2.77-5.67c1.94-2.97,4.34-5.72,7.26-7.78c2.72-1.92,5.68-3.46,8.75-4.7
					C188.98,28.6,188.35,21.28,192.6,15.14z"/>
				<path class="st0" d="M259.69,42.22c-0.62-5.34-2.15-10.3-4.51-14.27c-3.58-6.02-9.28-12.9-15.61-16.22
					c-3.66-1.92-7.49-3.33-11.38-4.28c3.61,2.29,6.57,5.46,8.28,9.79c1.96,5.01,2.17,10.3,2.37,15.6c0.45,0.14,0.9,0.26,1.34,0.41
					c2.8,0.92,5.62,1.82,8.33,3.02c4.66,2.06,7.42,4.93,10.65,8.77c0.29,0.34,0.84,0.21,0.85-0.27
					C260.02,43.9,259.89,43.05,259.69,42.22z"/>
			</g>
			<path class="st5" d="M202.94,78.59c0,0,8.43,0.17,14.75-1.25c6.05-1.36,10.36-3.81,10.36-3.81s1.35,6.63-1.94,8.3
				C222.82,83.51,201.8,87.18,202.94,78.59z"/>
			<path class="st8" d="M228.05,73.54c0,0-0.21,0.11-0.61,0.32c-0.12,0.36-0.25,0.71-0.37,1.07c-0.18,1.09-0.61,2.15-1.39,2.51
				c0,0,0,0-0.01,0.01c-0.01,0.01-0.01,0.01-0.02,0.02c-0.1,0.13-0.23,0.16-0.36,0.13c-0.13,0.06-0.26,0.1-0.39,0.16
				c0.93,0.85,0.86,2.67,0.69,4.3c0.19-0.07,0.37-0.14,0.52-0.22C229.4,80.17,228.05,73.54,228.05,73.54z"/>
			<g>
				<path class="st9" d="M211.11,80.69c0,0,14.69-2.16,15.31-3.25c0.62-1.09,0.66-1.96,0.66-1.96s-0.29,1.06-1.14,1.72
					C224.71,78.16,211.11,80.69,211.11,80.69z"/>
				<path class="st9" d="M225.7,81.24c0,0,0.66-2.33-0.33-3.28l-0.79,0.24C224.57,78.2,225.6,78.63,225.7,81.24z"/>
			</g>
			<g>
				<path class="st1" d="M195.66,30.24c0,0,14.85-5.62,32.39-3.28c0,0-1.15-14.03-16.08-13.48
					C197.03,14.04,194.07,26.86,195.66,30.24z"/>
			</g>
			<path class="st6" d="M196.8,28.71c0,0,13.5-4.86,29.43-2.98c0,0-0.96-11.91-14.53-11.35C198.14,14.94,195.38,25.85,196.8,28.71z"
				/>
		</g>
		<g>
			<g>
				<path class="st1" d="M235.77,96.43c0.35-0.18,0.7-0.33,1.03-0.39c-0.65,0.1-1.34,0.25-2.02,0.46c-1.06,0.72-2.12,1.81-2.61,2.35
					c-0.7,0.73-1.98,2.31-2.31,3.66c-0.1,0.01-0.22,0.01-0.33,0.03c-1.51-0.48-3.53,0.02-4.81,0.48c-1.64,0.59-2.92,1.64-3.98,2.92
					c-4.47-0.49-8.9-0.84-13.47-0.79c-0.2,0.01-0.4,0.01-0.6,0.02c-0.84-1.14-1.78-1.88-3.2-2.26c-0.7-0.19-1.63-0.25-2.48-0.14
					c-0.31-0.1-0.65-0.02-0.98,0.12c-0.17-0.21-0.37-0.41-0.56-0.61c-1.61-0.94-3.89-2.75-5.87-2.23c0.77,0.26,1.47,0.59,2.12,0.98
					c-3.47,3.32-3.69,12.77,1.01,14.58c7.34,2.84,17.53,1.01,25.15-2.25c0,0.03,0.02,0.07,0.06,0.08c2.69,0.96,6.74-0.41,9.4-1.15
					c3.05-0.85,6.24-1.99,8.42-4.37C242.59,104.78,239.11,98.31,235.77,96.43z"/>
			</g>
			<path class="st4" d="M201.75,103.39c0.61,0.08,1.22,0.24,1.74,0.46c0.32,0.11,0.64,0.22,0.91,0.33c0.13,0.05,0.2,0.14,0.22,0.24
				c0.48,0.26,0.95,0.52,1.43,0.76c-1.09,0.07-2.19,0.21-3.2,0.51c-0.31,0.35-0.81,0.47-1.25,0.61c-0.73,0.24-1.26,0.76-1.87,1.21
				c-0.16,0.11-0.35,0.09-0.5-0.01c-0.59-0.44-0.56-0.98-0.24-1.53c0.09-0.21,0.26-0.4,0.44-0.57c0.33-0.35,0.74-0.68,1.15-0.97
				c-0.58,0.19-1.13,0.64-1.7,0.92c-0.05,0.06-0.09,0.1-0.15,0.15c-0.08,0.09-0.15,0.2-0.22,0.32c-0.1,0-0.22,0-0.32,0.01
				c-0.2,0.01-0.38-0.04-0.54-0.15c-0.69-0.46,0.45-1.39,0.74-1.59c0.06-0.04,0.14-0.09,0.21-0.13
				C199.43,103.26,200.58,103.2,201.75,103.39z"/>
			<path class="st4" d="M203.39,115.84c-3.7-0.17-7.11-0.42-8.98-4.09c-1.33-2.61-0.44-8.1,1.53-10.59
				c1.04,0.66,1.94,1.46,2.77,2.34c-0.44,0.25-0.87,0.55-1.18,0.94c-0.31,0.38-0.81,1.09-0.48,1.61c0.27,0.42,0.75,0.45,1.19,0.36
				c-0.07,0.22-0.11,0.44-0.09,0.64c0.09,0.62,0.45,1.1,1.02,1.15c-0.33,0.5-0.59,1.08-0.77,1.75c-0.05,0.2,0.22,0.01,0.26-0.07
				c2.61-5.36,11.61-4.07,16.23-3.77c1.78,0.11,3.56,0.32,5.34,0.48c-0.02,0.03-0.03,0.05-0.05,0.07c0.06,0,0.11,0,0.17,0.01
				c0.24-0.31,0.57-0.57,0.93-0.78c1.28-1.09,2.72-1.95,4.42-2.35c0.5-0.12,1.01-0.15,1.49-0.14c-0.76,0.46-1.35,1.06-1.8,1.87
				c-0.08,0.13,0.07,0.09,0.13,0.04c0.7-0.64,1.34-1.04,2.24-1.38c0.81-0.3,1.51-0.02,2.27,0.02c0.2,0.06,0.4,0.12,0.6,0.18
				c0.03,0.2,0.05,0.4,0.07,0.61c-0.68,0.03-1.47,0.31-1.86,0.5c-0.81,0.4-1.49,1.06-1.85,1.89c-0.05,0.1,0.1,0.04,0.13,0.01
				c0.61-0.69,1.23-1.11,2.15-1.22c0.54-0.06,1.03,0.11,1.55,0.05l0.01,0.04c-0.87,0.82-1.15,2.04-1.87,3.02
				c-0.88,1.19-2.18,2.13-3.68,2.2c-0.49,0.02-1.65,0.27-2.01-0.16c-0.04-0.06-0.17,0.1-0.17,0.14c-0.02,0.46,0.43,0.66,1.03,0.72
				C217.74,114.57,210.29,116.17,203.39,115.84z"/>
			<path class="st4" d="M222.77,112.94c0.71-0.33,1.39-0.65,2.04-0.99c0.83-0.02,1.71-0.21,1.96-0.3c0.97-0.4,1.87-1.31,2.52-2.08
				c0.75-0.89,1.06-2.01,1.63-2.96c0.06,0.49,0.17,0.96,0.34,1.42c0.24-0.48,0.5-0.95,0.7-1.44c-0.01-0.69-0.1-1.37-0.28-2.05
				c-0.1-0.38-0.25-0.86-0.47-1.27c-0.01,0-0.01-0.01-0.01-0.02c-0.08-0.23-0.23-0.38-0.39-0.5c-0.03-0.05-0.08-0.1-0.12-0.13
				c0.32-1.16,0.93-2.23,1.66-3.19c0.65-0.85,1.79-1.98,2.94-2.7c1.79,2.72,3.74,4.97,4.56,8.28
				C241.21,110.52,226.86,113.07,222.77,112.94z"/>
		</g>
	</g>
	<g>
		<g>
			<path class="st0" d="M273.49,119.43c-1.61,0-3.16-0.51-4.5-1.46c-1.67-1.19-2.73-2.95-3-4.97c-2.06-11.75-5.07-32.51-8.94-61.71
				c-0.19-1.67,0.21-3.37,1.17-5.12l0.22-0.4l0.3-0.35c1.33-1.52,3.06-2.44,5.01-2.66l36.22-4.55c0.33-0.04,0.62-0.06,0.91-0.06
				c1.44,0,2.92,0.41,4.37,1.21l0.54,0.3l0.43,0.44c1.95,1.97,2.36,3.98,2.31,5.46l0.5,5.9c0.21,1.79-0.3,3.64-1.49,5.23
				c-1.11,1.48-2.65,2.5-4.45,2.97l-0.27,0.07l-16.2,2.02l0.85,4.96l9.59-1.5c0.56-0.15,1.14-0.23,1.71-0.23
				c1.06,0,2.63,0.27,4.21,1.51c1.79,1.18,2.91,2.99,3.16,5.15l1.1,7.88c0.2,1.7-0.2,3.4-1.17,5.15l-0.22,0.4l-0.3,0.35
				c-1.33,1.52-3.06,2.44-5.01,2.66l-8.75,1.01c0.18,0.84,0.35,1.66,0.52,2.47c0.47,2.34,0.8,4.07,0.99,5.2
				c0.2,1.13,0.52,3.22,0.97,6.28c0.43,2.93,0.73,4.86,0.9,5.78l0.04,0.29c0.3,2.59-0.5,4.37-1.23,5.41l-0.13,0.18l-0.15,0.17
				c-1.82,2.11-3.83,2.74-5.2,2.89l-14.1,1.62C274.1,119.41,273.79,119.43,273.49,119.43z"/>
			<path class="st1" d="M300.88,42.43c0.72,0,1.49,0.23,2.3,0.68c0.8,0.81,1.16,1.64,1.06,2.48l0.52,6.22
				c0.1,0.83-0.12,1.59-0.65,2.3c-0.53,0.71-1.23,1.17-2.11,1.4l-20.37,2.54l2.33,13.54l14.04-2.19c0.26-0.09,0.52-0.13,0.77-0.13
				c0.59,0,1.16,0.24,1.71,0.72c0.83,0.48,1.3,1.2,1.41,2.15L303,80.1c0.08,0.7-0.15,1.53-0.68,2.49c-0.63,0.72-1.38,1.12-2.27,1.23
				l-13.53,1.56c0.6,2.38,1.12,4.71,1.58,7.01c0.46,2.3,0.78,4,0.97,5.1c0.19,1.1,0.51,3.16,0.95,6.17
				c0.44,3.01,0.75,4.98,0.92,5.93c0.12,1.02-0.05,1.84-0.49,2.47c-0.74,0.86-1.55,1.34-2.44,1.44l-14.1,1.62
				c-0.14,0.02-0.29,0.03-0.43,0.03c-0.72,0-1.39-0.22-2.01-0.66c-0.74-0.53-1.16-1.23-1.26-2.12c-2.06-11.73-5.04-32.28-8.93-61.63
				c-0.08-0.7,0.15-1.53,0.68-2.49c0.62-0.71,1.38-1.12,2.27-1.23l36.26-4.56C300.63,42.43,300.76,42.43,300.88,42.43 M300.88,33.86
				c-0.45,0-0.91,0.03-1.36,0.08l-0.04,0.01l-0.04,0.01l-36.23,4.56c-3,0.36-5.66,1.77-7.68,4.09l-0.61,0.69l-0.45,0.81
				c-1.41,2.55-1.98,5.11-1.69,7.61l0.01,0.07l0.01,0.07c3.87,29.19,6.88,49.98,8.95,61.81c0.45,3.16,2.13,5.92,4.75,7.79
				c2.06,1.48,4.48,2.26,6.99,2.26c0.47,0,0.94-0.03,1.41-0.08L289,122c2.12-0.24,5.22-1.2,7.95-4.35l0.29-0.33l0.25-0.36
				c1.15-1.65,2.43-4.43,1.98-8.36l-0.03-0.28l-0.05-0.28c-0.09-0.48-0.32-1.86-0.87-5.63c-0.43-2.93-0.77-5.13-0.98-6.37
				c-0.15-0.83-0.35-1.92-0.61-3.24l4.12-0.47c3.03-0.35,5.7-1.77,7.74-4.1l0.6-0.69l0.44-0.8c1.41-2.55,1.98-5.11,1.69-7.62
				l-0.01-0.1l-0.01-0.1l-1.1-7.91c-0.4-3.15-2.04-5.92-4.57-7.77c2.04-0.84,3.79-2.2,5.13-3.98c1.81-2.41,2.63-5.33,2.34-8.26
				l-0.47-5.58c0.03-3.04-1.21-5.96-3.55-8.33l-0.87-0.88l-1.08-0.6C305.23,34.45,303.06,33.86,300.88,33.86L300.88,33.86z"/>
		</g>
		<g>
			<path class="st6" d="M355.53,119.25c-0.3,0-0.6-0.02-0.9-0.05l-0.28-0.04c-3.23-0.59-6.28-1.52-9.07-2.78
				c-2.83-1.28-5.24-2.76-7.15-4.39c-1.57-1.33-3-2.77-4.27-4.28l-0.14,1.51c-0.24,2.14-1.17,3.89-2.69,5.17
				c-1.44,1.2-3.26,1.84-5.27,1.86l-0.2,0l-13.49-1.16c-2.11-0.24-3.82-1.14-5.08-2.61c-1.57-1.62-2.29-3.7-2.05-5.89l6.17-62.08
				c0.23-2.05,1.16-3.77,2.68-5.04c1.4-1.17,3.11-1.79,4.94-1.79l0.35,0.01c22.23,0.82,36.37,6.29,43.21,16.74
				c4.36,6.75,4.89,14.15,1.58,22.01c-2.42,5.93-6.3,10.35-11.51,13.1c-0.48,0.26-0.96,0.49-1.45,0.7c0.07,0.03,0.15,0.05,0.23,0.07
				c1.16,0.31,2.23,0.47,3.2,0.49l0.23,0c0.95,0,1.96-0.11,3.02-0.31c0.47-0.09,0.9-0.13,1.32-0.13c1.83,0,3.55,0.76,4.84,2.15
				c1.45,1.56,2.11,3.59,1.86,5.71l-2.43,15.08l-0.13,0.37c-0.53,1.49-1.41,2.78-2.6,3.83l-0.16,0.14l-0.17,0.12
				C358.74,118.72,357.15,119.25,355.53,119.25z M338.08,69.63c0.18-0.08,0.35-0.17,0.52-0.26c0.41-0.23,1.09-0.71,1.96-1.74
				c0.56-0.67,0.92-1.44,1.1-2.35c0.09-0.46,0.15-1.1-0.05-1.51c-0.23-0.46-0.45-0.61-0.63-0.7c-0.66-0.33-1.35-0.61-2.04-0.84
				L338.08,69.63z"/>
			<path class="st1" d="M318.73,41.94c0.06,0,0.11,0,0.17,0c20.57,0.76,33.84,5.69,39.81,14.81c3.55,5.49,3.96,11.49,1.21,18
				c-2.06,5.04-5.25,8.7-9.56,10.97c-1.79,0.97-3.56,1.45-5.33,1.45c-0.27,0-0.54-0.01-0.81-0.03c0.35,2.04,1.03,3.66,2.05,4.87
				c1.02,1.21,2.28,2.02,3.78,2.41c1.5,0.4,2.91,0.61,4.22,0.63c0.1,0,0.2,0,0.3,0c1.23,0,2.51-0.13,3.85-0.39
				c0.17-0.03,0.33-0.05,0.49-0.05c0.65,0,1.21,0.26,1.69,0.78c0.6,0.65,0.85,1.42,0.75,2.31L359,112.2
				c-0.29,0.8-0.75,1.49-1.4,2.06c-0.65,0.47-1.34,0.7-2.08,0.7c-0.14,0-0.27-0.01-0.41-0.02c-2.9-0.53-5.59-1.35-8.07-2.47
				c-2.48-1.12-4.52-2.37-6.14-3.75c-1.61-1.38-3.04-2.84-4.27-4.4c-1.24-1.56-2.19-3.05-2.86-4.48c-0.67-1.43-1.23-2.73-1.68-3.91
				c-0.44-1.18-0.72-2.09-0.84-2.75L331,92.09l-1.53,16.72c-0.11,0.95-0.5,1.71-1.18,2.28c-0.68,0.57-1.53,0.85-2.56,0.86
				l-13.29-1.14c-0.95-0.11-1.71-0.52-2.27-1.23c-0.75-0.73-1.07-1.57-0.96-2.52l6.18-62.14c0.1-0.89,0.49-1.62,1.17-2.18
				C317.17,42.2,317.9,41.94,318.73,41.94 M333.13,75.24c0.32-0.03,0.73-0.06,1.22-0.1c0.49-0.04,1.39-0.24,2.72-0.6
				c1.33-0.36,2.53-0.84,3.59-1.42c1.06-0.58,2.12-1.49,3.16-2.73c1.04-1.23,1.72-2.67,2.04-4.3c0.32-1.64,0.17-3.05-0.43-4.25
				c-0.6-1.19-1.45-2.06-2.55-2.61c-1.1-0.54-2.22-0.98-3.37-1.3c-1.15-0.33-2.14-0.54-2.97-0.63l-1.35-0.06L333.13,75.24
				 M318.73,33.37L318.73,33.37c-2.84,0-5.5,0.96-7.68,2.78c-2.35,1.96-3.83,4.73-4.19,7.78L306.86,44l-0.01,0.07l-6.17,62.1
				c-0.36,3.37,0.78,6.68,3.14,9.18c1.94,2.22,4.64,3.63,7.64,3.97l0.12,0.01l0.12,0.01l13.29,1.14l0.41,0.03l0.41,0
				c3.01-0.03,5.77-1.02,7.97-2.85c0.74-0.62,1.4-1.33,1.96-2.1c2.15,1.76,4.76,3.35,7.79,4.71c3.1,1.4,6.48,2.44,10.06,3.09
				l0.27,0.05l0.28,0.03c0.46,0.05,0.93,0.08,1.39,0.08c2.53,0,4.98-0.8,7.08-2.32l0.34-0.25l0.32-0.28
				c1.74-1.54,3.02-3.43,3.8-5.61l0.26-0.74l0.12-0.77l2.34-14.5l0.03-0.19l0.02-0.19c0.39-3.38-0.67-6.61-2.97-9.1
				c-1.21-1.31-2.66-2.28-4.26-2.86c2.12-2.48,3.86-5.37,5.21-8.67c3.82-9.1,3.15-18.07-1.93-25.93
				c-7.68-11.74-22.95-17.85-46.69-18.72C319.09,33.38,318.91,33.37,318.73,33.37L318.73,33.37z"/>
		</g>
		<g>
			<g>
				<path class="st3" d="M452.62,130.92c-0.49,0-0.99-0.06-1.5-0.19l-0.33-0.08l-2.13-1.01c-1-0.51-1.74-1.3-2.33-2.45
					c-0.77-1.42-0.79-3.09-0.03-4.58l0.02-0.03c-0.7-0.43-1.36-0.95-1.97-1.57c-1.85-1.84-2.82-4.17-2.82-6.74
					c0-2.73,0.98-5.18,2.84-7.09c1.88-1.93,4.37-2.95,7.2-2.95c2.68,0,5.11,1.01,7.03,2.92c1.91,1.92,2.92,4.34,2.92,7.03
					c0,3.79-1.41,8.35-4.32,13.95C456.22,129.92,454.56,130.92,452.62,130.92z"/>
				<path class="st1" d="M451.56,107.65c1.79,0,3.32,0.64,4.6,1.92c1.28,1.28,1.92,2.81,1.92,4.6c0,3.2-1.31,7.32-3.93,12.37
					c-0.34,0.63-0.85,0.95-1.53,0.95c-0.21,0-0.43-0.03-0.67-0.09l-1.82-0.86c-0.26-0.13-0.51-0.45-0.77-0.96
					c-0.26-0.45-0.26-0.93,0-1.44l1.73-3.55c-1.66-0.13-3.1-0.8-4.32-2.01c-1.21-1.21-1.82-2.65-1.82-4.32
					c0-1.85,0.62-3.42,1.87-4.7C448.06,108.29,449.64,107.65,451.56,107.65 M451.56,100.8c-3.77,0-7.11,1.38-9.66,3.99
					c-2.5,2.56-3.81,5.84-3.81,9.48c0,3.49,1.32,6.66,3.83,9.16c0.15,0.15,0.3,0.29,0.45,0.43c-0.21,1.68,0.1,3.38,0.93,4.93
					c0.92,1.78,2.17,3.08,3.73,3.87l0.08,0.04l0.08,0.04l1.82,0.86l0.62,0.29l0.66,0.16c0.78,0.19,1.56,0.29,2.33,0.29
					c3.2,0,6.02-1.7,7.56-4.55l0.03-0.05l0.03-0.05c3.16-6.1,4.7-11.18,4.7-15.53c0-3.61-1.36-6.88-3.92-9.45
					C458.44,102.15,455.17,100.8,451.56,100.8L451.56,100.8z"/>
			</g>
		</g>
		<g>
			<path class="st10" d="M406.31,120.14c-1.84,0-3.57-0.63-4.98-1.83c-1.44-1.22-2.35-2.89-2.62-4.82l-0.77-5.02l-6.18,0.04
				l-0.75,4.15l-0.07,0.24c-0.5,1.63-1.39,2.98-2.63,4.03c-1.25,1.06-2.78,1.62-4.43,1.62c-0.28,0-0.56-0.02-0.85-0.05
				c0,0-14.77-0.57-14.77-0.57c-2.42,0-4.59-1.14-5.96-3.22c-1.39-2-1.71-4.31-0.91-6.53l17.77-61.98l0.12-0.27
				c1.39-3.15,4.07-4.95,7.37-4.95l18.42,0.19l0.25,0.03c1.1,0.14,2.16,0.51,3.15,1.1c1.01,0.61,1.83,1.37,2.47,2.29
				c0.69,1,1.11,2.11,1.26,3.3c2.24,14.47,7.53,35.09,15.72,61.18c0.81,2.18,0.53,4.53-0.8,6.65l-0.18,0.26
				c-1.47,2.01-3.55,3.13-5.87,3.18l-14.61,0.96H406.31z"/>
			<path class="st1" d="M386.65,45.27l18.13,0.19c0.51,0.06,1.01,0.24,1.49,0.53c0.48,0.29,0.86,0.64,1.15,1.05
				c0.29,0.42,0.46,0.88,0.53,1.39c2.3,14.9,7.61,35.58,15.92,62.06c0.38,0.96,0.26,1.95-0.38,2.97c-0.7,0.96-1.57,1.44-2.59,1.44
				l-14.58,0.96c-0.83,0-1.57-0.27-2.21-0.82c-0.64-0.54-1.02-1.26-1.15-2.16l-1.34-8.73l-13.43,0.1l-1.34,7.39
				c-0.26,0.83-0.69,1.5-1.29,2.01c-0.49,0.41-1.04,0.61-1.67,0.61c-0.16,0-0.32-0.01-0.49-0.04l-14.96-0.58
				c-1.15,0-2.01-0.45-2.59-1.34c-0.64-0.89-0.77-1.82-0.38-2.78l17.74-61.87C383.9,46.07,385.05,45.27,386.65,45.27 M390.58,92.17
				c1.79-0.13,4.86-0.19,9.21-0.19l-4.22-26.57L390.58,92.17 M386.7,36.7h-0.05c-5,0-9.22,2.81-11.29,7.51l-0.24,0.53l-0.16,0.56
				l-17.66,61.57c-1.2,3.46-0.69,7.16,1.44,10.25c2.13,3.19,5.56,5.03,9.47,5.09l14.5,0.56c0.39,0.04,0.78,0.06,1.16,0.06
				c2.67,0,5.15-0.91,7.2-2.63c1.58-1.33,2.82-3.06,3.6-5.04c0.58,2.54,1.91,4.74,3.89,6.42c2.19,1.86,4.87,2.85,7.75,2.85h0.28
				l0.28-0.02l14.39-0.95c3.59-0.12,6.89-1.9,9.12-4.93l0.19-0.26l0.17-0.27c2-3.19,2.43-6.92,1.22-10.29
				c-8.09-25.79-13.32-46.14-15.55-60.5c-0.25-1.82-0.91-3.52-1.95-5.03c-1-1.44-2.27-2.62-3.79-3.53
				c-1.51-0.91-3.13-1.47-4.83-1.69l-0.49-0.06l-0.49-0.01l-18.13-0.19L386.7,36.7L386.7,36.7z"/>
		</g>
		<g>
			<path class="st3" d="M444.7,117.75c-1.89,0-3.62-0.63-5-1.82c-1.55-1.33-2.46-3.18-2.62-5.33l-3.18-41.83l-10.65,0.81
				c-0.19,0.02-0.38,0.02-0.57,0.02c-1.55,0-3.1-0.47-4.62-1.39l-0.67-0.41l-0.48-0.62c-1.1-1.4-1.71-2.96-1.84-4.64l-0.59-12.88
				c-0.15-1.94,0.51-3.87,1.93-5.44c1.36-1.51,3.16-2.39,5.22-2.54l50.64-5.38c0.32-0.03,0.51-0.03,0.7-0.03
				c1.54,0,3.1,0.47,4.62,1.39l0.31,0.19l0.27,0.24c1.55,1.33,2.45,3.14,2.61,5.23l1.08,14.16c0.15,2.04-0.49,3.95-1.85,5.53
				c-1.36,1.59-3.16,2.51-5.19,2.66l-11.9,0.9l4,41.35c0.48,2.13-0.07,4.23-1.56,5.97c-1.39,1.62-3.2,2.56-5.24,2.71l-14.73,1.12
				C445.14,117.74,444.92,117.75,444.7,117.75z"/>
			<path class="st1" d="M472.94,40.55c0.76,0,1.56,0.26,2.41,0.77c0.69,0.59,1.07,1.36,1.14,2.32l1.08,14.15
				c0.07,0.89-0.21,1.7-0.83,2.42c-0.62,0.72-1.37,1.11-2.27,1.18l-16.26,1.23l4.46,46.03c0.26,0.88,0.07,1.7-0.58,2.45
				c-0.65,0.76-1.42,1.17-2.31,1.23l-14.73,1.12c-0.12,0.01-0.24,0.01-0.35,0.01c-0.87,0-1.6-0.26-2.21-0.78
				c-0.69-0.59-1.07-1.39-1.14-2.41l-3.5-46.1l-14.92,1.13c-0.08,0.01-0.17,0.01-0.25,0.01c-0.76,0-1.56-0.26-2.4-0.77
				c-0.57-0.73-0.88-1.5-0.95-2.33l-0.58-12.75c-0.07-0.89,0.21-1.68,0.83-2.37c0.62-0.69,1.41-1.07,2.37-1.14l50.76-5.4
				C472.78,40.55,472.86,40.55,472.94,40.55 M472.94,31.99c-0.3,0-0.6,0.01-0.9,0.03l-0.13,0.01l-0.13,0.01l-50.67,5.39
				c-3.06,0.27-5.86,1.66-7.91,3.93c-2.15,2.39-3.22,5.43-3.03,8.59l0.58,12.66l0.01,0.13l0.01,0.13c0.19,2.5,1.14,4.91,2.74,6.96
				l0.97,1.23l1.34,0.81c2.2,1.33,4.5,2.01,6.84,2.01c0.3,0,0.6-0.01,0.9-0.03l6.38-0.48l2.85,37.56c0.25,3.27,1.71,6.21,4.11,8.27
				c2.16,1.86,4.86,2.84,7.79,2.84c0.33,0,0.66-0.01,1-0.04l14.73-1.12c3.14-0.24,6.04-1.73,8.16-4.19c2.31-2.68,3.21-6.06,2.56-9.4
				l-3.56-36.77l7.54-0.57c3.15-0.24,6.03-1.71,8.12-4.15c2.08-2.42,3.11-5.5,2.87-8.64l-1.08-14.15c-0.24-3.2-1.7-6.1-4.09-8.16
				l-0.55-0.47l-0.62-0.37C477.57,32.66,475.27,31.99,472.94,31.99L472.94,31.99z"/>
		</g>
		<g>
			<path class="st2" d="M503.54,115.19l-14.75-0.8c-2-0.11-3.79-0.95-5.18-2.43c-1.44-1.53-2.15-3.5-2.03-5.71l3.46-64.07
				c0.12-2.15,1.06-4.01,2.68-5.3c1.29-1.31,3.07-2.02,5.07-2.02c0.16,0,0.59,0.02,0.59,0.02l13.2,1.39
				c1.98,0.14,3.71,0.98,5.02,2.43c1.35,1.51,1.99,3.37,1.88,5.4l-1.8,63.67c-0.11,2.11-0.98,3.93-2.45,5.27
				c-1.31,1.4-3.14,2.16-5.22,2.16C503.87,115.2,503.71,115.2,503.54,115.19z"/>
			<path class="st1" d="M492.79,39.15c0.08,0,0.17,0,0.25,0.01l13.18,1.38c0.89,0.05,1.63,0.39,2.2,1.03
				c0.57,0.64,0.84,1.41,0.79,2.3l-1.81,63.78c-0.05,0.96-0.45,1.74-1.18,2.34c-0.51,0.62-1.24,0.93-2.2,0.93
				c-0.08,0-0.17,0-0.25-0.01l-14.75-0.8c-0.9-0.05-1.66-0.41-2.29-1.08c-0.64-0.67-0.93-1.52-0.87-2.54l3.46-64.07
				c0.06-1.02,0.48-1.8,1.28-2.33C491.1,39.46,491.83,39.15,492.79,39.15 M492.79,30.59L492.79,30.59c-3.1,0-5.88,1.1-7.96,3.13
				c-2.42,2.03-3.89,4.97-4.06,8.24l-3.46,64.07c-0.18,3.36,0.96,6.52,3.2,8.89c2.11,2.25,4.98,3.58,8.05,3.75l14.75,0.8
				c0.24,0.01,0.48,0.02,0.72,0.02c3.23,0,6.12-1.2,8.23-3.4c2.23-2.08,3.54-4.88,3.7-7.97l0.01-0.11l0-0.11l1.81-63.7
				c0.13-3.09-0.92-6.04-2.96-8.32c-2.05-2.27-4.82-3.63-7.85-3.86l-13.03-1.37l-0.22-0.02l-0.22-0.01
				C493.26,30.59,493.02,30.59,492.79,30.59L492.79,30.59z"/>
		</g>
	</g>
	<g>
		<g>
			<path class="st1" d="M564.05,97.18c0.65-1.05,1.1-2.2,1.21-3.47c0.03-0.39-0.08-0.77-0.28-1.07c-0.29-0.65-0.91-1.07-2.03-1.06
				c-2.29-2.52-4.75-5.38-8.02-6.38c-1.55-0.49-3.49,0-4.22,1.5c-2.79,3.61,0.82,9.79,3.52,13.14c-0.07,0.06-0.12,0.11-0.13,0.16
				c-0.03,0.2-0.03,0.38-0.03,0.55c-0.14,0.83,0.22,1.27,0.87,1.44c0.71,0.28,1.79,0.09,2.91-0.28c1.68-0.49,3.41-1.33,3.97-1.87
				c0.07-0.07,0.14-0.14,0.22-0.21c0.07-0.05,0.14-0.1,0.2-0.15C562.83,99.02,563.5,98.16,564.05,97.18z"/>
		</g>
		<path class="st6" d="M551.92,95.31c-1.31-2.67-2.5-7.39,0.1-9.7c1.88-0.84,4.87,1.15,6.15,2.21c1.53,1.26,2.82,2.83,4.32,4.12
			c-0.04,0.03-0.08,0.05-0.12,0.09c-0.04,0.03-0.03,0.07,0.03,0.04c2.18-0.8,2.05,2.47,1.68,3.52c-0.47,1.3-1.6,2.76-2.62,3.7
			c-1.52,1.41-6.3,3.85-6.69,0.23c-0.01-0.1-0.12-0.07-0.23-0.02C553.59,98.14,552.66,96.82,551.92,95.31z"/>
		<path class="st0" d="M553.07,89.64c1.17-1.23,2.56-2.1,4.12-2.56c-0.47-0.32-1.01-0.65-1.57-0.94c-2.26,0.79-4.19,2.42-5.07,4.67
			c0.08,0.68,0.23,1.36,0.42,2.01C551.41,91.62,552.25,90.49,553.07,89.64z"/>
		<path class="st0" d="M563.17,91.96c-1.96,0.07-3.72,1.9-4.53,2.61c-1.79,1.57-3.08,3.49-3.64,5.77c1.02,2.32,5.07,0.21,6.45-1.07
			c1.02-0.94,2.15-2.4,2.62-3.7C564.4,94.68,564.53,92.14,563.17,91.96z"/>
		<path class="st0" d="M558.42,91.36c0.58-0.35,1.38-0.81,2.25-1.16c-0.44-0.45-0.87-0.89-1.32-1.32c-3.17,1.03-6.4,3.84-7.13,7
			c0.29,0.54,0.61,1.07,0.93,1.58C554.1,94.9,556.11,92.75,558.42,91.36z"/>
		<g>
			<path class="st1" d="M524.33,95.1c0.03,0.05,0.08,0.11,0.14,0.17c0.05,0.08,0.1,0.16,0.14,0.24c0.38,0.61,1.72,1.76,3.1,2.59
				c0.91,0.6,1.82,1.01,2.53,0.94c0.61,0.01,1.03-0.31,1.1-1.08c0.05-0.15,0.08-0.31,0.1-0.5c0.01-0.04-0.03-0.1-0.08-0.17
				c3.19-2.35,7.84-7.01,6.2-10.86c-0.3-1.5-1.91-2.38-3.4-2.31c-3.14,0.13-6,2.1-8.62,3.8c-2.97-0.8-2.74,2.94-2.28,4.72
				C523.51,93.64,523.91,94.57,524.33,95.1z"/>
		</g>
		<path class="st6" d="M531.17,96.92c-0.09-0.08-0.19-0.13-0.22-0.04c-1.18,3.11-4.86-0.16-5.89-1.77c-0.68-1.08-1.34-2.63-1.46-3.9
			c-0.09-1.02,0.56-3.96,2.3-2.73c0.05,0.03,0.08,0.01,0.04-0.04c-0.03-0.04-0.06-0.07-0.1-0.1c1.64-0.79,3.15-1.89,4.81-2.66
			c1.39-0.64,4.5-1.71,5.98-0.53c1.78,2.67-0.38,6.58-2.17,8.65C533.45,94.98,532.33,95.94,531.17,96.92z"/>
		<path class="st0" d="M529.54,92.22c-0.91-1.7-2.2-2.83-3.65-3.89c-0.01,0.01-0.02,0.01-0.03,0.01c0.04,0.03,0.07,0.06,0.1,0.1
			c0.03,0.04,0,0.07-0.04,0.04c-1.75-1.23-2.4,1.71-2.3,2.73c0.12,1.27,0.77,2.83,1.46,3.9c1.03,1.61,4.71,4.88,5.89,1.77
			c0.02-0.06,0.07-0.05,0.12-0.03C530.78,95.25,530.31,93.65,529.54,92.22z"/>
		<path class="st11" d="M537.28,87.92c0.09-0.98-0.09-1.93-0.64-2.76c-0.36-0.28-0.8-0.43-1.29-0.49
			C536.16,85.63,536.79,86.74,537.28,87.92z"/>
		<path class="st0" d="M534.4,84.64c-0.51,0.04-1.04,0.14-1.56,0.27c1.08,1.18,1.96,2.49,2.67,4.01c0.26,0.57,0.62,1.23,0.9,1.92
			c0.25-0.52,0.46-1.06,0.61-1.61C536.45,87.54,535.61,85.93,534.4,84.64z"/>
		<path class="st0" d="M529.79,86.13c-0.49,0.26-0.98,0.53-1.45,0.81c1.48,1.08,2.57,2.56,3.39,4.27c0.58,1.25,1.17,2.63,1.33,4.04
			c0.36-0.33,0.7-0.68,1.04-1.05C533.62,91.02,532.26,88.2,529.79,86.13z"/>
		<g>
			<path class="st1" d="M555.43,108.85c0.7-7.13,0.14-15.36-1.85-22.17c0.56-1.55-0.91-2.72-2.88-3.46
				c-3.09-1.17-7.59-1.3-11.22-0.48c-2.37,0.23-4.53,1.23-3.83,3.52c-2.85,1.99-4.57,5.74-6,8.76c-1.84,3.92-2.97,8.31-3.19,12.65
				c-4.99,2.5,4.38,5.58,6.38,6.07c5.11,1.26,10.56,1.23,15.76,0.67c2.34-0.26,5.2-0.58,6.96-2.28
				C556.87,111.17,557.5,109.26,555.43,108.85z"/>
		</g>
		<path class="st6" d="M534.13,112.89c-1.75-0.36-10.15-2.58-7.68-4.97c-0.01,0.35-0.03,0.69-0.03,1.05c0,0.16,0.41-0.08,0.42-0.21
			c1.11-7.99,3.64-15.97,8.91-22.25c0.07,0.2,0.16,0.41,0.28,0.62c0.08,0.15,0.39-0.16,0.39-0.26c0.07-0.6,0.03-1.18,0.02-1.79
			c-0.04-1.19,1.1-1.45,2.09-1.64c1.69-0.32,3.36-0.25,5.07-0.22c0.03,0,0.17-0.1,0.11-0.12c-0.1-0.04-0.21-0.07-0.33-0.1
			c5.13,0.03,11,1.11,9,4.96c-0.13,0.24,0.26,0.09,0.34,0.01c0.25-0.25,0.44-0.49,0.59-0.73c0.34,3.51,0.97,6.99,1.27,10.52
			c0.36,4.19,0.26,8.35,0.29,12.54c-0.01,0.19,0.45-0.11,0.47-0.26c0.03-0.17,0.03-0.36,0.05-0.54c0.23,0.32,0.45,0.62,0.56,1.02
			c0.34,1.19-2.3,2.12-3.06,2.42c-0.47,0.19-0.96,0.34-1.45,0.48c-1.88,0.29-3.89,0.26-5.43,0.34
			C542.03,113.95,538.02,113.69,534.13,112.89z"/>
		<g>
			<path class="st11" d="M536.42,86.87c-0.01,0.04-0.04,0.1-0.09,0.16c2.97,0.54,6.04,0.8,9,0.87c2.43,0.05,4.84-0.11,7.25-0.4
				c1.3-3.47-4.29-4.46-9.2-4.5c0.12,0.04,0.23,0.07,0.33,0.1c0.06,0.02-0.08,0.13-0.11,0.12c-1.71-0.03-3.39-0.1-5.07,0.22
				c-0.98,0.19-2.12,0.44-2.09,1.64C536.45,85.69,536.48,86.27,536.42,86.87z"/>
			<path class="st0" d="M546.2,92.54c-4.63-0.14-8.95-0.93-13.31-2.01c-0.48,0.78-0.93,1.56-1.33,2.37
				c1.55,0.69,3.12,1.34,4.75,1.76c2.7,0.69,5.5,0.93,8.27,0.96c3.19,0.04,6.55,0.07,9.69-0.66c-0.11-0.86-0.22-1.71-0.34-2.57
				C551.33,92.77,548.53,92.62,546.2,92.54z"/>
			<path class="st0" d="M553.81,98.88c-2.94,0.64-5.88,1.03-8.89,1.23c-5.36,0.35-10.49-0.81-15.02-3.5
				c-0.25,0.65-0.5,1.31-0.72,1.97c3.1,3.31,8.64,4.55,12.87,4.75c4.29,0.21,8.72-0.28,12.72-1.87c-0.03-0.92-0.08-1.84-0.15-2.75
				C554.35,98.76,554.08,98.82,553.81,98.88z"/>
			<path class="st0" d="M553.37,106.04c-3,0.74-6.13,1.3-9.23,1.45c-5.68,0.28-12.02-0.97-16.06-5.16
				c-0.15,0.58-0.28,1.17-0.41,1.76c1.16,2.18,4.7,3.7,6.72,4.35c2.53,0.81,5.21,1.19,7.87,1.26c4.37,0.12,8.66-0.55,12.58-2.31
				c0-0.59-0.01-1.18,0-1.77C554.37,105.77,553.88,105.92,553.37,106.04z"/>
			<path class="st0" d="M555.63,109.88c-0.1,0.08-0.22,0.14-0.32,0.22c-0.07,0.12-0.3,0.28-0.41,0.27
				c-4.39,2.71-10.28,2.48-15.23,2.07c-4.31-0.35-9.86-1.07-12.68-4.71c-0.04,0.34-0.1,0.69-0.16,1.03
				c-0.01,0.13-0.42,0.37-0.42,0.21c0-0.35,0.02-0.7,0.03-1.05c-2.47,2.39,5.94,4.61,7.68,4.97c3.89,0.8,7.9,1.06,11.87,0.87
				c1.54-0.08,3.55-0.05,5.43-0.34c0.49-0.14,0.97-0.29,1.45-0.48c0.75-0.3,3.39-1.22,3.06-2.42
				C555.87,110.27,555.76,110.08,555.63,109.88z"/>
		</g>
		<path class="st12" d="M549.82,79.56c-1.14-1.66-3.9-1.78-5.65-1.63c-1.2,0.11-3.15,0.65-3.86,1.77c-0.53,0.82-0.17,1.77,0.12,2.72
			c-0.04,1-0.21,1.98-0.71,3.01c-0.35,0.71-0.57,1.31-0.49,2.1c0.18,1.69,2.83,2.32,4.13,2.55c1.87,0.34,3.7-0.17,5.27-1.19
			c1.27-0.83,1.14-2.04,0.86-3.34C549.03,83.32,551.32,81.72,549.82,79.56z"/>
		<path class="st4" d="M549.04,84.23c-0.03,0.7-0.01,1.4-0.05,2.14c-0.03,0.48-0.09,1.03-0.36,1.44c-0.39,0.58-0.92,0.87-1.51,1.01
			c-0.33,0.14-0.73,0.24-1.24,0.35c-1.93,0.38-4.05,0.1-5.46-1.4c-0.48-0.52-0.33-1.37-0.01-2.24c0.04-0.23,0.12-0.47,0.23-0.72
			c0.52-1.18,0.67-2.12,0.47-3.43c-0.18-1.17,0.29-1.89,1.28-2.2c1.21-0.56,3.2-0.38,4.27-0.15c1.74,0.36,3.29,1.55,2.92,3.48
			C549.45,83.13,549.23,83.67,549.04,84.23z"/>
		<g>
			<g>
				<path class="st1" d="M585.5,60.9c-1.31-0.37-3.01-0.24-4.02,0.69c0.34-1.25,0.56-2.51,0.66-3.75
					c1.82-5.83-1.36-14.11-4.04-19.13c-1.83-3.45-4.54-6.61-7.68-8.91c-3.45-2.51-7.44-4.31-11.59-5.28
					c-2.57-0.59-5.33-1.03-7.97-1.12c-2.37-0.07-4.73,0.11-7.05,0.55c-1.75,0.34-3.48,0.74-5.21,1.16c-0.73,0.18-1.42,0.39-2.1,0.62
					c-4.33,1.39-8.37,3.6-11.7,6.9c-6.52,6.45-10.71,15.9-9.34,24.88c-1.11-0.81-2.7-0.85-4.12,0.01c-3.02,1.84-4.66,5.17-3.74,8.66
					c1.26,4.89,9.05,6.13,11.48,1.9c1.38,2.36,3.15,4.56,5.2,6.57c6.62,6.49,15.53,9.42,24.67,9.42c8.45,0,16.96-2.61,23.48-8.04
					c1.07-0.88,2.13-1.96,3.13-3.18c1.41,1.98,5.32,1.15,7.22,0.57c2.86-0.87,5.15-3.13,6.07-5.94
					C589.8,64.6,588.35,61.72,585.5,60.9z"/>
			</g>
			<path class="st4" d="M509.24,66.5c-1.2-2.02-0.9-4.58,0.23-6.53c1.33-2.3,4.38-3.16,6.15-1.6c0.15,0.79,0.34,1.58,0.58,2.36
				c0.48,2.28,1.31,4.47,2.44,6.55C516.93,71.48,511.05,69.56,509.24,66.5z"/>
			<path class="st4" d="M569.36,76.95c-6.79,4.95-15.75,6.39-23.97,5.72c-9.92-0.81-20.54-7.11-25.79-15.96
				c0-0.05-0.03-0.08-0.06-0.09c-0.4-0.68-0.75-1.38-1.08-2.09c-0.91-1.93-1.39-4.4-1.71-6.5c-0.33-2.23-0.32-4.48-0.05-6.71
				c0.55-4.44,1.87-8.96,4.38-12.7c2.54-3.78,5.81-7.12,9.66-9.56c5.04-3.19,11.61-4.38,17.48-4.56c1.76-0.06,3.55,0.03,5.29,0.27
				c3.91,0.51,7.69,1.6,11.28,3.25c10.25,4.69,15.84,16.01,16.16,26.97C580.81,63.4,576.09,72.05,569.36,76.95z"/>
			<path class="st4" d="M587.76,67.84c-0.62,2.88-3.32,4.59-6,5.22c-1.6,0.37-4.55,0.55-5.45-1.16c2.18-2.85,4.02-6.31,5.04-9.84
				c1.66-1.44,4.16-0.5,5.52,0.9C588.11,64.25,588.11,66.22,587.76,67.84z"/>
			<g>
				<path class="st1" d="M513.82,60.79c-2.27-0.6-3.43,2.3-3.12,4.04c0.02,0.09,0.23-0.04,0.23-0.12c0.01-0.96,0.3-2.84,1.48-3.14
					c0.93-0.24,1.84,0.78,2.33,1.41c0.5,0.64,0.8,1.34,0.97,2.08c-0.38,0.4-0.67,0.75-1.36,0.73c-0.82-0.01-1.49-0.45-1.91-1.14
					c-0.04-0.07-0.27,0.07-0.25,0.15c0.29,1.04,1.03,1.7,2.14,1.63c0.33-0.02,1-0.29,1.5-0.67c0.11,0.76,0.12,1.53,0.08,2.31
					c-0.01,0.21,0.45-0.12,0.48-0.2C517.42,65.52,516.61,61.52,513.82,60.79z"/>
			</g>
			<g>
				<path class="st1" d="M582.27,65.87c-1.16,1.03-4.21,4.5-2.82,6.21c0.15,0.18,0.59-0.15,0.62-0.31c0.18-0.87,0.42-1.66,0.76-2.43
					c0.01,0.37,0.07,0.73,0.27,1.05c0.75,1.35,2.73,0.28,3.56-0.35c0.11-0.09,0.12-0.23-0.05-0.14c-0.94,0.49-2.06,0.76-2.62-0.36
					c-0.35-0.72-0.21-1.46-0.01-2.18c0.07-0.09,0.14-0.19,0.21-0.28c1.17-1.5,3.17-2.98,4.79-1.22c0.08,0.08,0.33-0.09,0.28-0.19
					C586.22,63.24,583.72,64.6,582.27,65.87z"/>
			</g>
		</g>
		<g>
			<g>
				<path class="st1" d="M537.22,60.98c-0.16,1.59-1.59,2.76-3.18,2.6c-1.59-0.16-2.76-1.58-2.6-3.18c0.16-1.59,1.58-2.76,3.18-2.6
					C536.21,57.95,537.37,59.38,537.22,60.98z"/>
			</g>
			<path class="st5" d="M534.61,59.2c-0.05,0.55-0.55,0.96-1.11,0.91c-0.55-0.06-0.96-0.56-0.9-1.11c0.05-0.56,0.55-0.96,1.11-0.9
				C534.26,58.14,534.66,58.64,534.61,59.2z"/>
		</g>
		<g>
			<path class="st1" d="M532.97,50.95c-0.91,0.39-1.6,0.91-2.11,1.76c-0.23,0.37-0.74,1.3-0.29,1.61c0.05,0.04,0.19-0.06,0.21-0.12
				c0.12-0.49,0.42-0.86,0.73-1.25c0.88-1.06,1.67-1.49,3.02-1.05c1.18,0.39,1.99,1.33,2.62,2.36c0.08,0.11,0.41-0.11,0.37-0.22
				C536.88,51.94,535.46,49.9,532.97,50.95z"/>
		</g>
		<g>
			<g>
				<path class="st1" d="M560.67,62.95c-0.47,1.53-2.11,2.38-3.64,1.91c-1.53-0.48-2.38-2.11-1.91-3.64
					c0.48-1.54,2.11-2.39,3.64-1.91C560.3,59.79,561.15,61.42,560.67,62.95z"/>
			</g>
			<path class="st5" d="M558.48,60.69c-0.17,0.53-0.74,0.82-1.27,0.66c-0.53-0.17-0.83-0.74-0.66-1.27
				c0.16-0.53,0.73-0.83,1.27-0.67C558.34,59.58,558.64,60.15,558.48,60.69z"/>
		</g>
		<g>
			<path class="st1" d="M558.54,52.28c-0.98,0.2-1.75,0.57-2.43,1.3c-0.29,0.32-0.99,1.12-0.61,1.52c0.04,0.06,0.2-0.02,0.23-0.07
				c0.22-0.45,0.57-0.76,0.97-1.07c1.08-0.86,1.95-1.12,3.17-0.41c1.08,0.62,1.68,1.7,2.1,2.84c0.04,0.12,0.42-0.02,0.41-0.14
				C562.17,54.03,561.19,51.75,558.54,52.28z"/>
		</g>
		<g>
			<path class="st1" d="M586.76,35.4c-2.13-5.34-5.62-10.02-10.54-13.06c-0.79-0.49-2.28-1.39-3.73-1.93
				c-3.51-3.88-10.26-6.16-14.51-6.94c-8.62-1.6-17.09-0.9-25.14,2.63c-6.22,2.73-12.5,7.18-16.23,12.95
				c-2.07,3.19-3.43,6.58-4.15,10.32c-0.53,2.79-1.2,7.01,0.01,9.71c-0.13,0.78-0.19,1.6-0.17,2.45c0.04,2.42,1.27,6.8,3.59,8.06
				c0.28,0.15,0.79-0.28,0.9-0.51c0.89-1.74,0.58-4.24,1.09-6.18c0.83-3.25,2.41-5.82,4.34-8.36c-0.76,1.95-0.76,4.43,2.06,3.91
				c4.09-0.76,9.55-3.2,13.16-6.47c-1.7,2.53-2.82,5.05-0.77,5.21c2.83,0.23,5.97-1.25,8.44-2.48c2.13-1.07,4.81-2.43,6.74-4.18
				c-1.08,1.47-2.17,2.93-3.03,4.5c-0.81,1.49,0.82,1.42,1.75,1.11c1.61-0.55,3.18-1.38,4.59-2.29c1.17-0.74,2.76-1.83,3.78-3.14
				c0.16,0.65,0.38,1.3,0.66,1.98c0.63,1.5,1.59,2.9,2.49,4.25c0.32,0.46,1.17,1.95,1.85,1.96c0.99,0.03,1.58-0.85,1.61-1.72
				c0.04-1.11-0.24-2.3-0.3-3.42c-0.03-0.54-0.06-1.08-0.1-1.61c1.3,1.58,2.42,3.37,3.36,4.94c1.14,1.9,2.15,3.91,2.87,6.01
				c0.14,0.42,0.3,1.62,0.77,1.82c2.04,0.86,2.64-4.77,2.77-8.32c2.51,5.94,5.32,12.45,4.09,18.93c-0.08,0.44,0.54,0.13,0.7,0.03
				c1.64-1.08,3.1-2.6,4.27-4.36C589.61,54.11,589.99,43.52,586.76,35.4z"/>
		</g>
		<path class="st13" d="M582.76,61.13c-0.05,0.05-0.1,0.07-0.14,0.09c-0.33,0.53-0.69,1.06-1.1,1.6c-1.15,1.55-1.31,2.27-0.97,0.02
			c0.18-1.2-0.01-2.51-0.14-3.7c-0.43-4.38-1.91-11.04-5.49-14.15c-0.1-0.06-0.21-0.12-0.33-0.17c-0.15,0.46-0.31,0.91-0.48,1.37
			c-0.15,2.45-0.49,4.9-1.22,7.25c-0.3,0.94-0.3-0.49-0.44-0.94c-0.28-1-0.64-1.95-1.06-2.91c-1.19-2.75-3.15-6.07-5.65-8.33
			c-0.5-0.33-1.04-0.56-1.58-0.59c-0.03,0.07-0.05,0.15-0.06,0.21c-0.08,0.23-0.15,0.49-0.21,0.73c-0.02,1.23,0.01,2.47,0.04,3.7
			c0,0.42,0.12,1.05,0.17,1.66c-1.22-1.4-3-4.65-3.29-5.17c-0.47-0.81-0.78-1.67-1.06-2.54c0-0.02,0.01-0.05,0.02-0.08
			c-0.12-0.22-0.25-0.42-0.39-0.63c-0.26,0.22-0.51,0.43-0.77,0.65c0.01,0.03,0.01,0.07,0.02,0.1c-1.83,2.59-4.43,4.39-7.4,5.53
			c-1.16,0.44-0.92-0.37-0.36-1.12c0.49-0.66,0.88-1.42,1.29-2.14c0.69-1.18,1.42-2.31,1.81-3.61c-0.84,1.08-1.98,1.97-3.23,2.59
			c-3.34,2.57-7.91,4.39-11.68,5.28c-3.59,0.84-1.32-2.87-0.74-4c0.24-0.46,0.5-0.89,0.78-1.32c0.14-0.53,0.34-1.06,0.59-1.56
			c-0.35,0.2-0.7,0.41-1.07,0.61c-3.61,3.6-8.23,6.39-13.13,7.82c-3.94,1.15-2.71-2.52-1.43-5.01c-0.37,0.16-0.73,0.34-1.09,0.53
			c-0.01,0.02-0.02,0.04-0.03,0.05c-2.01,1.63-3.52,3.87-4.55,6.24c-0.71,1.67-1.27,3.34-1.71,5.1c-0.28,1.09-0.22,2.74-0.49,4
			c-2.17-2.05-3.26-5.87-2.93-9.17c0.04-0.03,0.07-0.07,0.11-0.11c0.01-0.3,0.02-0.59,0.05-0.89c-0.01-0.01,0-0.03-0.01-0.04
			c0.01-0.04,0.03-0.08,0.03-0.13c0.07-0.69,0.19-1.39,0.36-2.08c-0.22,0.3-0.42,0.61-0.58,0.93c-0.56-5.36,1.31-11.78,3.71-16.25
			c3.6-6.72,10.7-11.21,17.57-13.99c10.23-4.13,24.5-3.74,34.23,2.61c1.29,0.49,2.33,1.37,3.31,2.33c0.91,0.88,2.8,1.35,3.88,2.16
			c1.15,0.86,2.2,1.87,3.17,2.94c2.81,3.12,5.17,6.75,6.62,10.71C588.41,44.68,588.6,55.16,582.76,61.13z"/>
		<path class="st8" d="M560.36,73.23c-0.09-0.56-0.36-1.05-0.82-1.42c-1.44-1.13-3.77-0.48-5.4-0.23
			c-4.46,0.68-9.21,0.37-13.55-0.74c-2.22-0.57-5.32-2.46-7.56-1.25c-2.62,1.4-0.81,3.74,0.47,5.28c0.62,0.75,1.31,1.42,2.09,1.99
			c4.71,3.46,11.98,4.31,17.55,2.98c1.56-0.36,3.15-1,4.5-1.88C559.05,77.02,560.67,75.06,560.36,73.23z"/>
		<path class="st14" d="M536.44,77.44c4.69,2.97,11.44,3.64,16.68,2.4c0.87-0.2,1.74-0.5,2.58-0.86
			C549.95,75.65,542.27,74.63,536.44,77.44z"/>
		<path class="st5" d="M540.74,74.07c2.23,0.84,4.61,1.36,6.99,1.44c4.09,0.12,8.27-0.99,10.44-4.28c-1.31-0.23-2.85,0.16-4.03,0.34
			c-4.46,0.68-9.21,0.37-13.55-0.74c-1.45-0.38-3.28-1.31-5-1.58C536.52,71.51,538.23,73.12,540.74,74.07z"/>
		<g>
			<g>
				<g>
					<path class="st1" d="M552.12,83.58c-0.21-0.47-0.55-1.22-1.04-1.7c-0.15-1.26-0.92-2.35-2.43-2.53
						c-0.52-1.42-1.96-2.42-3.63-2.08c-0.58,0.12-1.1,0.33-1.59,0.6c0.71-1.14,1.67-2.14,2.44-3.3c0.54-0.83,0.96-1.24,0.66-2.21
						c-0.3-1-2.8,0.26-3.21,0.55c-1.48,1.02-2.74,2.13-3.8,3.33c-0.02,0-0.04,0-0.06,0.01c-3.59,1.42-4.26,6.27-3.52,9.85
						c0.01,0.39,0.03,0.77,0.06,1.17c-2.16,1.61-4.37,3.15-6.54,4.78c-0.38,0.28-0.75,0.56-1.1,0.83c-0.54-1.1-1.29-2.08-2.24-2.82
						c-0.45-0.26-0.92-0.48-1.41-0.64c0.32,0.2,0.63,0.41,0.9,0.65c-4.4,3.06-6.52,11.37-0.18,13.52c0,0,0.02,0,0.02,0
						c3.96,1.21,9.82-4.84,13.79-10.05c1.1,0.43,3.1-0.06,3.75-0.33c1.6-0.66,3.77-2.8,3.96-4.67c0.15-0.15,0.28-0.39,0.31-0.61
						c-0.04,0.32-0.06,0.66,0,1.04c0.13,0.82,1.38,0.85,2,0.89c1.61,0.12,2.16-1.86,2.64-2.98
						C552.32,85.78,552.63,84.71,552.12,83.58z"/>
				</g>
				<path class="st4" d="M536.15,82.96c0.01-2.6,0.59-5.19,2.97-6.29C537.59,78.54,536.59,80.63,536.15,82.96z"/>
				<path class="st4" d="M550.55,88.72c-0.58,0.63-1.65,1.04-2.33,0.28c-0.75-0.84-0.45-2.18,0.04-3.26
					c-0.96,1.14-1.91,2.29-2.86,3.45c0.28-0.09,0.61-0.34,0.89-0.59c-0.84,1.71-1.73,3.36-3.6,4.14c-0.84,0.35-1.84,0.44-2.72,0.24
					c-0.01,0-0.01-0.01-0.01-0.01c-0.48-0.03-0.96-0.15-1.46-0.35c0.02,0.3,0.14,0.52,0.34,0.69c-4.36,5.99-10.86,12.98-15.3,8.11
					c-0.94-1.19-1.42-2.65-1.43-4.36c-0.01-2.89,1.96-4.85,3.6-6.88c0.96,0.87,1.59,1.95,2.1,3.11c-1.52,1.22-2.65,2.52-2.63,4.83
					c0,0.02,0.03,0.03,0.05,0.02c0.51-2.86,2.69-4.65,5.02-6.17c1.43-1.06,2.93-2.01,4.2-2.92c0.46-0.32,0.91-0.64,1.37-0.97
					c0.21-0.18,0.41-0.37,0.61-0.54c-0.01-0.08-0.01-0.15-0.02-0.23c0.02-0.02,0.03-0.05,0.02-0.06c-0.02-0.22-0.05-0.45-0.07-0.7
					c-0.04-0.45,0.05-0.97,0.09-1.43c0.04-0.46,0.09-0.94,0.14-1.41c0.12-0.92,0.32-1.84,0.61-2.72c0.59-1.8,1.59-3.43,2.88-4.83
					c0.38-0.41,0.77-0.79,1.17-1.16c0.53-0.48,0.96-0.94,1.58-1.3c0.5-0.29,2.79-2.04,3.14-0.76c0.21,0.78-0.88,1.71-1.33,2.21
					c-0.99,1.08-2.1,2.08-2.31,3.61c-0.53,0.44-0.95,0.97-1.12,1.59c0.65-0.9,1.59-1.76,2.62-2.11c0.07-0.04,0.14-0.09,0.2-0.12
					c0.31-0.1,0.63-0.17,0.97-0.18c0.67-0.03,1.17,0.13,1.57,0.41c0.04,0.02,0.07,0.02,0.09,0.03c0.12,0.05,0.17,0.12,0.21,0.21
					c0.23,0.24,0.44,0.51,0.61,0.82c-1.67,0.3-3.2,1.6-4.16,2.98c1.56-1.78,5.07-3.73,6.48-1.35c0.06,0.1,0.06,0.19,0.03,0.27
					c0.04,0.07,0.08,0.13,0.12,0.19c-0.76,0.07-1.38,0.35-2.04,0.76c-0.68,0.41-1.26,1.13-1.89,1.65c0,0,0.01,0.01,0.01,0.01
					c0.22-0.17,0.43-0.35,0.64-0.49c0.22-0.15,0.47-0.28,0.71-0.4c0.6-0.42,1.32-0.8,2.02-0.76c0.4-0.07,0.8-0.07,1.17,0.12
					c1.6,0.82,1.39,3.02,0.78,4.5C551.24,87.56,551.02,88.22,550.55,88.72z"/>
			</g>
			<g>
				<g>
					<path class="st1" d="M562.12,93.82c0.12-0.07,0.23-0.16,0.34-0.24c0.03-0.02,0.08-0.09,0.01-0.08
						c-1.6,0.27-2.88,1.41-4.03,2.46c-0.65,0.59-1.22,1.22-1.7,1.91c-2.19,0.01-4.49,0.32-6.71,0.39c-0.08-0.92-0.69-1.93-1.12-2.58
						c-0.73-1.11-2.13-2.12-3.36-2.55c-1.44-0.49-3.01-0.29-4.33,0.42c-1.05,0.57-2.06,1.29-2.83,2.2
						c-0.36,0.42-0.74,0.89-0.94,1.42c-0.09,0.22-0.15,0.45-0.1,0.69c0.03,0.13,0.36,0.49,0.34,0.58c-0.13,0.74,0.1,1.56,0.59,2.13
						c0.02,0.71,0.39,1.48,0.93,1.88c0.04,0.55,0.3,1.1,0.67,1.61c0.57,0.77,1.49,1.33,2.43,0.76c0.42-0.26,1-0.68,1.32-1.18
						c0.26,0.4,0.51,0.81,0.75,1.03c0.73,0.62,1.75,0.87,2.68,0.93c0.66,0.04,1.31-0.28,1.82-0.76c0.2,0.12,0.43,0.23,0.65,0.35
						c2.24,0.75,4.41,1.5,6.71,1.87c3.98,0.02,8.27-0.81,10.51-2.91C570.18,100.95,566.15,94.38,562.12,93.82z"/>
				</g>
				<path class="st4" d="M564.82,104.89c-2.25,1.04-5.1,1.39-7.94,1.38c-2.63-0.11-5.23-0.71-7.61-1.85
					c0.05-0.07,0.1-0.14,0.15-0.21c-0.29,0.21-0.62,0.37-0.96,0.48c-0.66,0.3-1.39,0.27-2.12,0.04c-0.03-0.01-0.04-0.01-0.07-0.02
					c-0.28-0.08-0.55-0.21-0.82-0.35c-0.46-0.24-0.74-0.55-0.95-0.9c-0.37-0.43-0.69-0.91-0.94-1.38c-0.56-0.07-1.27,0.06-1.59,0.52
					c0.63-0.29,1.08,0.16,1.49,0.73c-0.28,0.9-1.61,1.12-2.3,0.53c-0.37-0.31-0.64-0.75-0.92-1.13c-1.2-1.59,1.05-2.92,2.16-3.65
					c0.03-0.02,0.04-0.06,0-0.05c-1.01,0.37-1.93,1.03-2.62,1.84c-0.2,0.23-0.33,0.47-0.41,0.71c-0.24-0.38-0.44-0.79-0.54-1.21
					c-0.29-1.52,1.72-2.72,2.76-3.39c0.04-0.03,0.07-0.09-0.01-0.06c-1.25,0.66-2.35,1.38-3.06,2.63c-0.03,0.06-0.06,0.13-0.08,0.19
					c-0.23-0.71-0.27-1.49,0.04-2.18c0.37-0.85,1.5-1.32,2.28-1.72c0.07-0.04,0.14-0.19,0.01-0.13c-0.97,0.44-1.93,0.85-2.62,1.7
					c-0.04,0.04-0.11,0.16-0.08,0.12c-0.14,0.2-0.13-0.34,0.14-0.9c0.13-0.27,0.53-0.57,0.75-0.79c0.25-0.26,0.52-0.5,0.79-0.73
					c0.54-0.45,1.13-0.83,1.78-1.1c1.27-0.52,2.66-0.61,3.95-0.09c0.7,0.28,1.51,0.73,2.08,1.24c0.73,0.67,1.71,1.95,2.1,3.09
					c-0.02,0-0.05,0-0.09,0c0.13,0.3,0.26,0.6,0.36,0.91c0.03,0,0.05,0,0.08,0c3.16-0.76,6.42-0.96,9.66-0.59
					c0.92,0.1,1.91,0.25,2.82,0.55c-1.49-0.88-3.19-1.19-4.98-1.24c0.34-0.47,0.7-0.92,1.12-1.34c0.97-0.98,2.06-1.71,3.17-2.48
					C565.83,95.29,570.24,102.4,564.82,104.89z"/>
			</g>
		</g>
	</g>
</g>
</svg>
