<svg width="95" height="95" viewBox="0 0 95 95" fill="none" xmlns="http://www.w3.org/2000/svg">
<g id="bedroom_baby_FILL0_wght400_GRAD0_opsz48 (1) 1">
<path id="Vector" d="M47.7472 73.3281C53.2559 73.3281 58.5997 72.2726 63.7785 70.1615C68.9573 68.0503 73.4269 65.1146 77.1873 61.3542L72.7342 57.3958C72.1405 57.9896 71.3818 58.6328 70.4582 59.3255C69.5346 60.0182 68.6439 60.5955 67.7863 61.0573L63.729 53.5365V43.3437H68.479V39.9792H44.63L37.0103 26.9167H24.4425L27.9061 29.3906L21.078 36.6146L24.4425 40.0781L31.2707 35.3281V53.5365L27.3123 61.0573C26.4547 60.5955 25.5476 60.0182 24.591 59.3255C23.6344 58.6328 22.8592 57.9896 22.2655 57.3958L17.8123 61.3542C21.5728 65.1146 26.1248 68.0503 31.4686 70.1615C36.8123 72.2726 42.2386 73.3281 47.7472 73.3281ZM47.7472 67.4896C45.0754 67.4896 42.354 67.2092 39.5832 66.6484C36.8123 66.0877 34.0415 65.0486 31.2707 63.5312L35.8228 56.0104C37.8679 56.8021 39.8529 57.3958 41.7778 57.7917C43.7026 58.1875 45.61 58.3854 47.4998 58.3854C49.413 58.3854 51.3262 58.1875 53.2394 57.7917C55.1526 57.3958 57.1318 56.8021 59.1769 56.0104L63.729 63.5312C60.9582 64.9826 58.2698 66.0052 55.6639 66.599C53.058 67.1927 50.4191 67.4896 47.7472 67.4896ZM13.854 87.0833C12.2707 87.0833 10.8853 86.4896 9.69775 85.3021C8.51025 84.1146 7.9165 82.7292 7.9165 81.1458V13.8542C7.9165 12.2708 8.51025 10.8854 9.69775 9.69791C10.8853 8.51041 12.2707 7.91666 13.854 7.91666H81.1457C82.729 7.91666 84.1144 8.51041 85.3019 9.69791C86.4894 10.8854 87.0832 12.2708 87.0832 13.8542V81.1458C87.0832 82.7292 86.4894 84.1146 85.3019 85.3021C84.1144 86.4896 82.729 87.0833 81.1457 87.0833H13.854ZM13.854 81.1458H81.1457V13.8542H13.854V81.1458Z" fill="#48ACF0"/>
</g>
</svg>
